<svg width="45" height="35" viewBox="0 0 45 35" fill="none" xmlns="http://www.w3.org/2000/svg">
<path d="M44.2399 24.068C44.86 23.4832 44.9155 22.5351 44.364 21.9503L35.3762 12.4207C34.8246 11.8359 33.8749 11.8359 33.2549 12.4207C32.6348 13.0055 32.5793 13.9536 33.1308 14.5384L41.12 23.0091L32.1386 31.4799C31.5185 32.0647 31.463 33.0128 32.0145 33.5976C32.5661 34.1824 33.5158 34.1824 34.1358 33.5976L44.2399 24.068ZM2.34717 5.41656L3.84973 5.32915L2.34717 5.41656ZM19.9123 24.5066H43.1536L43.329 21.5117H20.0877L19.9123 24.5066ZM0.844606 1.0874L0.844606 5.50396L3.84973 5.32915L3.84973 0.912595L0.844606 1.0874ZM0.844606 5.50396C0.844606 16.1736 9.20611 24.5066 19.9123 24.5066L20.0877 21.5117C10.9704 21.5117 3.84973 14.4154 3.84973 5.32915L0.844606 5.50396Z" fill="#373737"/>
</svg>
