<svg width="285" height="1136" viewBox="0 0 285 1136" fill="none" xmlns="http://www.w3.org/2000/svg">
<g filter="url(#filter0_d)">
<path d="M159.121 1122.49C159.941 1122.37 160.512 1121.61 160.396 1120.79L158.498 1107.42C158.382 1106.6 157.623 1106.03 156.802 1106.15C155.982 1106.27 155.412 1107.02 155.528 1107.84L157.215 1119.73L145.334 1121.41C144.513 1121.53 143.943 1122.29 144.059 1123.11C144.176 1123.93 144.935 1124.5 145.755 1124.38L159.121 1122.49ZM157.824 4.03438C157.945 4.16134 158.066 4.28828 158.186 4.41521L160.361 2.34813C160.239 2.22064 160.118 2.09314 159.997 1.96562L157.824 4.03438ZM161.775 8.21901C162.012 8.47232 162.249 8.72558 162.485 8.97878L164.678 6.93208C164.441 6.67773 164.203 6.42333 163.965 6.16887L161.775 8.21901ZM165.997 12.7728C166.23 13.0254 166.461 13.278 166.692 13.5306L168.905 11.5048C168.673 11.251 168.44 10.9973 168.207 10.7434L165.997 12.7728ZM170.129 17.3148C170.356 17.5669 170.583 17.8188 170.809 18.0707L173.041 16.0663C172.814 15.8132 172.586 15.56 172.358 15.3068L170.129 17.3148ZM174.171 21.8452C174.393 22.0966 174.615 22.3479 174.836 22.5992L177.088 20.6166C176.866 20.3641 176.643 20.1116 176.42 19.859L174.171 21.8452ZM178.124 26.364C178.341 26.6148 178.558 26.8654 178.774 27.116L181.045 25.1559C180.828 24.9041 180.61 24.6521 180.392 24.4001L178.124 26.364ZM181.988 30.8713C182.2 31.1214 182.412 31.3714 182.623 31.6214L184.914 29.6842C184.701 29.433 184.489 29.1816 184.275 28.9303L181.988 30.8713ZM185.764 35.367C185.971 35.6165 186.178 35.8659 186.384 36.1152L188.695 34.2016C188.487 33.9509 188.279 33.7002 188.071 33.4494L185.764 35.367ZM189.452 39.8513C189.654 40.1001 189.856 40.3489 190.058 40.5976L192.388 38.708C192.185 38.458 191.982 38.2079 191.779 37.9577L189.452 39.8513ZM193.053 44.3243C193.251 44.5724 193.448 44.8206 193.645 45.0686L195.995 43.2037C195.797 42.9542 195.599 42.7047 195.4 42.4552L193.053 44.3243ZM196.775 49.0512C196.988 49.3251 197.201 49.599 197.413 49.8728L199.784 48.035C199.571 47.7596 199.357 47.4842 199.143 47.2087L196.775 49.0512ZM200.56 53.9751C200.768 54.2483 200.975 54.5214 201.181 54.7944L203.574 52.9852C203.366 52.7105 203.158 52.4358 202.95 52.1611L200.56 53.9751ZM204.242 58.8853C204.443 59.1577 204.644 59.43 204.845 59.7023L207.26 57.9224C207.058 57.6484 206.856 57.3745 206.653 57.1004L204.242 58.8853ZM207.82 63.7818C208.016 64.0535 208.211 64.3251 208.406 64.5966L210.843 62.8466C210.647 62.5734 210.45 62.3001 210.253 62.0268L207.82 63.7818ZM211.296 68.6648C211.486 68.9357 211.676 69.2065 211.865 69.4773L214.324 67.7581C214.133 67.4856 213.942 67.213 213.751 66.9404L211.296 68.6648ZM214.671 73.5343C214.855 73.8044 215.04 74.0745 215.223 74.3445L217.703 72.6567C217.519 72.3849 217.333 72.1131 217.147 71.8412L214.671 73.5343ZM217.945 78.3903C218.124 78.6597 218.303 78.9291 218.481 79.1984L220.983 77.5427C220.803 77.2716 220.623 77.0005 220.443 76.7293L217.945 78.3903ZM221.12 83.233C221.293 83.5017 221.466 83.7703 221.639 84.0389L224.162 82.4161C223.989 82.1457 223.814 81.8753 223.639 81.6047L221.12 83.233ZM224.226 88.1104C224.41 88.4045 224.594 88.6984 224.778 88.9924L227.323 87.4041C227.138 87.1081 226.953 86.8121 226.767 86.5159L224.226 88.1104ZM227.488 93.3956C227.666 93.6888 227.844 93.9819 228.02 94.2749L230.589 92.7244C230.411 92.4293 230.232 92.134 230.053 91.8387L227.488 93.3956ZM230.634 98.665C230.805 98.9573 230.976 99.2495 231.147 99.5417L233.738 98.0298C233.566 97.7355 233.394 97.4411 233.221 97.1466L230.634 98.665ZM233.664 103.919C233.829 104.21 233.994 104.502 234.158 104.793L236.772 103.321C236.606 103.027 236.44 102.733 236.274 102.44L233.664 103.919ZM236.579 109.157C236.738 109.448 236.897 109.738 237.054 110.029L239.691 108.596C239.532 108.304 239.372 108.011 239.212 107.718L236.579 109.157ZM239.382 114.38C239.534 114.669 239.686 114.959 239.838 115.249L242.496 113.858C242.343 113.566 242.19 113.274 242.036 112.982L239.382 114.38ZM242.072 119.587C242.218 119.876 242.364 120.165 242.51 120.454L245.189 119.105C245.043 118.814 244.896 118.523 244.748 118.231L242.072 119.587ZM244.651 124.78C244.791 125.068 244.931 125.356 245.07 125.643L247.771 124.337C247.631 124.047 247.49 123.757 247.349 123.466L244.651 124.78ZM247.201 130.129C247.346 130.44 247.49 130.751 247.634 131.062L250.357 129.802C250.212 129.488 250.066 129.174 249.92 128.86L247.201 130.129ZM249.75 135.722C249.888 136.032 250.026 136.342 250.163 136.652L252.907 135.44C252.769 135.127 252.63 134.815 252.491 134.502L249.75 135.722ZM252.173 141.298C252.305 141.607 252.435 141.916 252.565 142.225L255.331 141.062C255.199 140.75 255.068 140.438 254.935 140.126L252.173 141.298ZM254.472 146.856C254.596 147.164 254.72 147.473 254.843 147.781L257.629 146.668C257.505 146.357 257.38 146.046 257.255 145.735L254.472 146.856ZM256.647 152.397C256.765 152.705 256.882 153.012 256.998 153.319L259.804 152.257C259.686 151.947 259.568 151.637 259.45 151.327L256.647 152.397ZM258.701 157.922C258.812 158.228 258.922 158.535 259.031 158.841L261.856 157.83C261.745 157.521 261.634 157.212 261.522 156.902L258.701 157.922ZM260.634 163.429C260.738 163.735 260.842 164.04 260.944 164.346L263.787 163.387C263.683 163.079 263.579 162.77 263.474 162.462L260.634 163.429ZM262.481 169.024C262.585 169.349 262.688 169.673 262.791 169.998L265.651 169.094C265.548 168.766 265.444 168.438 265.339 168.111L262.481 169.024ZM264.283 174.859C264.38 175.182 264.476 175.506 264.571 175.829L267.449 174.982C267.353 174.655 267.256 174.329 267.158 174.002L264.283 174.859ZM265.954 180.674C266.043 180.997 266.132 181.319 266.22 181.642L269.114 180.852C269.025 180.526 268.935 180.201 268.845 179.875L265.954 180.674ZM267.494 186.472C267.576 186.793 267.658 187.115 267.739 187.436L270.648 186.705C270.566 186.38 270.484 186.055 270.401 185.73L267.494 186.472ZM268.907 192.251C268.982 192.572 269.056 192.892 269.13 193.213L272.053 192.539C271.979 192.216 271.904 191.892 271.828 191.568L268.907 192.251ZM270.192 198.012C270.26 198.332 270.328 198.652 270.395 198.971L273.331 198.357C273.264 198.034 273.196 197.711 273.127 197.388L270.192 198.012ZM271.354 203.756C271.415 204.075 271.475 204.393 271.535 204.712L274.483 204.157C274.423 203.835 274.362 203.513 274.3 203.191L271.354 203.756ZM272.42 209.644C272.476 209.976 272.532 210.308 272.588 210.64L275.547 210.147C275.491 209.811 275.434 209.476 275.377 209.14L272.42 209.644ZM273.372 215.614C273.422 215.945 273.47 216.276 273.518 216.607L276.487 216.175C276.439 215.841 276.389 215.506 276.34 215.172L273.372 215.614ZM274.194 221.564C274.237 221.894 274.278 222.224 274.319 222.554L277.296 222.185C277.255 221.852 277.213 221.518 277.17 221.185L274.194 221.564ZM274.888 227.497C274.923 227.826 274.958 228.155 274.991 228.484L277.976 228.177C277.941 227.844 277.907 227.512 277.871 227.179L274.888 227.497ZM275.455 233.411C275.483 233.739 275.511 234.067 275.538 234.395L278.528 234.15C278.5 233.819 278.473 233.487 278.444 233.156L275.455 233.411ZM275.898 239.307C275.919 239.634 275.94 239.961 275.96 240.288L278.954 240.105C278.934 239.774 278.913 239.444 278.892 239.114L275.898 239.307ZM276.219 245.222C276.234 245.557 276.248 245.892 276.262 246.226L279.259 246.104C279.246 245.766 279.231 245.429 279.217 245.09L276.219 245.222ZM276.422 251.236C276.429 251.57 276.437 251.903 276.443 252.237L279.443 252.177C279.436 251.84 279.429 251.503 279.421 251.166L276.422 251.236ZM276.499 257.232C276.5 257.564 276.5 257.897 276.5 258.229L279.5 258.231C279.5 257.896 279.5 257.56 279.499 257.224L276.499 257.232ZM276.454 263.209C276.448 263.541 276.441 263.872 276.434 264.204L279.434 264.267C279.441 263.932 279.447 263.597 279.453 263.262L276.454 263.209ZM276.288 269.169C276.275 269.5 276.262 269.83 276.248 270.161L279.246 270.284C279.26 269.95 279.273 269.617 279.285 269.283L276.288 269.169ZM276.003 275.112C275.984 275.441 275.964 275.771 275.944 276.1L278.939 276.283C278.959 275.95 278.979 275.618 278.998 275.285L276.003 275.112ZM275.602 281.038C275.576 281.37 275.55 281.702 275.523 282.033L278.514 282.275C278.541 281.94 278.567 281.605 278.593 281.27L275.602 281.038ZM275.082 287.001C275.05 287.332 275.017 287.662 274.984 287.993L277.969 288.292C278.002 287.959 278.035 287.625 278.068 287.291L275.082 287.001ZM274.447 292.947C274.409 293.277 274.37 293.606 274.33 293.936L277.309 294.292C277.349 293.959 277.388 293.627 277.427 293.294L274.447 292.947ZM273.7 298.876C273.656 299.205 273.611 299.534 273.565 299.862L276.537 300.274C276.583 299.942 276.628 299.61 276.673 299.278L273.7 298.876ZM272.844 304.788C272.793 305.116 272.742 305.444 272.69 305.772L275.654 306.238C275.706 305.908 275.758 305.577 275.809 305.246L272.844 304.788ZM271.879 310.684C271.823 311.012 271.766 311.339 271.708 311.666L274.663 312.185C274.721 311.855 274.779 311.525 274.836 311.195L271.879 310.684ZM270.81 316.565C270.747 316.891 270.685 317.216 270.621 317.542L273.566 318.114C273.63 317.785 273.694 317.456 273.756 317.127L270.81 316.565ZM269.64 322.412C269.572 322.736 269.504 323.061 269.435 323.385L272.37 324.007C272.439 323.68 272.508 323.353 272.577 323.026L269.64 322.412ZM268.37 328.242C268.297 328.565 268.223 328.888 268.149 329.212L271.073 329.883C271.148 329.557 271.222 329.231 271.296 328.905L268.37 328.242ZM267.002 334.056C266.923 334.378 266.844 334.701 266.765 335.023L269.677 335.742C269.757 335.417 269.837 335.092 269.917 334.767L267.002 334.056ZM265.538 339.855C265.454 340.176 265.369 340.498 265.284 340.82L268.185 341.585C268.271 341.261 268.356 340.937 268.44 340.612L265.538 339.855ZM263.979 345.639C263.89 345.96 263.8 346.281 263.71 346.601L266.599 347.412C266.69 347.088 266.78 346.765 266.87 346.442L263.979 345.639ZM262.329 351.408C262.235 351.728 262.14 352.048 262.045 352.368L264.921 353.222C265.017 352.9 265.112 352.578 265.207 352.255L262.329 351.408ZM260.602 357.119C260.504 357.435 260.406 357.751 260.307 358.066L263.17 358.963C263.27 358.645 263.369 358.327 263.467 358.009L260.602 357.119ZM258.796 362.796C258.693 363.111 258.59 363.426 258.486 363.741L261.337 364.678C261.441 364.361 261.545 364.043 261.648 363.726L258.796 362.796ZM256.906 368.46C256.798 368.774 256.691 369.088 256.583 369.402L259.42 370.378C259.528 370.062 259.637 369.745 259.745 369.429L256.906 368.46ZM254.934 374.109C254.822 374.423 254.71 374.736 254.598 375.05L257.421 376.063C257.534 375.748 257.647 375.432 257.76 375.117L254.934 374.109ZM252.883 379.746C252.767 380.058 252.65 380.371 252.534 380.684L255.344 381.734C255.461 381.419 255.579 381.105 255.695 380.79L252.883 379.746ZM250.754 385.369C250.634 385.681 250.513 385.993 250.392 386.305L253.189 387.39C253.311 387.076 253.432 386.762 253.553 386.448L250.754 385.369ZM248.565 390.943C248.442 391.25 248.32 391.556 248.196 391.863L250.98 392.982C251.104 392.674 251.227 392.365 251.351 392.056L248.565 390.943ZM246.323 396.458C246.196 396.764 246.069 397.07 245.942 397.376L248.712 398.527C248.84 398.219 248.968 397.912 249.095 397.604L246.323 396.458ZM244.011 401.96C243.881 402.266 243.75 402.571 243.619 402.876L246.377 404.059C246.508 403.752 246.64 403.445 246.771 403.138L244.011 401.96ZM241.633 407.451C241.499 407.755 241.364 408.06 241.23 408.365L243.974 409.577C244.109 409.271 244.244 408.965 244.379 408.658L241.633 407.451ZM239.189 412.929C239.052 413.233 238.914 413.537 238.776 413.841L241.507 415.082C241.646 414.777 241.784 414.471 241.922 414.166L239.189 412.929ZM236.682 418.396C236.541 418.7 236.4 419.003 236.259 419.306L238.977 420.575C239.119 420.27 239.261 419.965 239.403 419.661L236.682 418.396ZM234.118 423.844C233.976 424.142 233.834 424.44 233.691 424.738L236.397 426.034C236.541 425.734 236.684 425.434 236.826 425.135L234.118 423.844ZM231.532 429.206C231.386 429.504 231.241 429.801 231.095 430.099L233.789 431.419C233.935 431.12 234.082 430.821 234.228 430.522L231.532 429.206ZM228.89 434.557C228.741 434.854 228.593 435.151 228.444 435.448L231.126 436.792C231.275 436.494 231.425 436.195 231.574 435.897L228.89 434.557ZM226.194 439.897C226.043 440.194 225.891 440.49 225.74 440.787L228.41 442.154C228.562 441.856 228.715 441.558 228.866 441.261L226.194 439.897ZM223.447 445.227C223.293 445.523 223.139 445.819 222.984 446.115L225.643 447.504C225.798 447.207 225.953 446.91 226.108 446.613L223.447 445.227ZM220.65 450.547C220.494 450.842 220.337 451.137 220.179 451.433L222.827 452.843C222.985 452.546 223.143 452.25 223.3 451.954L220.65 450.547ZM217.806 455.856C217.646 456.151 217.487 456.446 217.327 456.74L219.964 458.17C220.125 457.875 220.285 457.579 220.445 457.283L217.806 455.856ZM214.94 461.111C214.781 461.401 214.621 461.692 214.461 461.982L217.088 463.431C217.248 463.139 217.409 462.848 217.569 462.557L214.94 461.111ZM212.045 466.332C211.883 466.622 211.721 466.912 211.558 467.201L214.175 468.668C214.338 468.377 214.501 468.087 214.663 467.796L212.045 466.332ZM209.109 471.544C208.944 471.833 208.78 472.122 208.615 472.411L211.223 473.895C211.388 473.605 211.553 473.315 211.717 473.025L209.109 471.544ZM206.133 476.746C205.967 477.035 205.8 477.324 205.634 477.612L208.232 479.112C208.399 478.823 208.566 478.533 208.733 478.244L206.133 476.746ZM203.121 481.94C202.952 482.228 202.784 482.516 202.615 482.804L205.204 484.32C205.373 484.031 205.542 483.742 205.711 483.453L203.121 481.94ZM200.073 487.124C199.902 487.412 199.732 487.7 199.561 487.987L202.142 489.517C202.313 489.229 202.484 488.94 202.655 488.652L200.073 487.124ZM196.995 492.294C196.824 492.578 196.654 492.863 196.483 493.148L199.055 494.691C199.226 494.406 199.397 494.121 199.568 493.835L196.995 492.294ZM193.91 497.414C193.738 497.698 193.566 497.982 193.393 498.266L195.958 499.823C196.131 499.538 196.304 499.253 196.476 498.968L193.91 497.414ZM190.797 502.525C190.623 502.809 190.449 503.093 190.275 503.376L192.832 504.945C193.006 504.661 193.181 504.376 193.355 504.092L190.797 502.525ZM187.655 507.629C187.48 507.912 187.305 508.195 187.129 508.479L189.679 510.059C189.855 509.775 190.031 509.491 190.207 509.207L187.655 507.629ZM184.488 512.724C184.312 513.007 184.135 513.29 183.958 513.573L186.502 515.164C186.679 514.88 186.856 514.597 187.033 514.313L184.488 512.724ZM181.297 517.812C181.119 518.095 180.941 518.377 180.763 518.66L183.301 520.26C183.479 519.977 183.657 519.694 183.836 519.411L181.297 517.812ZM178.084 522.893C177.905 523.175 177.726 523.457 177.547 523.739L180.078 525.348C180.258 525.066 180.437 524.783 180.617 524.501L178.084 522.893ZM174.858 527.954C174.679 528.234 174.499 528.515 174.32 528.795L176.846 530.413C177.026 530.132 177.206 529.852 177.385 529.571L174.858 527.954ZM171.62 532.998C171.44 533.278 171.259 533.559 171.079 533.838L173.6 535.464C173.781 535.184 173.962 534.903 174.142 534.623L171.62 532.998ZM168.365 538.036C168.184 538.315 168.003 538.595 167.821 538.875L170.338 540.507C170.52 540.227 170.701 539.947 170.883 539.667L168.365 538.036ZM165.096 543.066C164.914 543.346 164.732 543.625 164.55 543.904L167.062 545.543C167.245 545.264 167.427 544.984 167.609 544.704L165.096 543.066ZM161.813 548.09C161.631 548.369 161.448 548.648 161.265 548.927L163.774 550.572C163.957 550.292 164.14 550.013 164.323 549.734L161.813 548.09ZM158.519 553.108C158.336 553.386 158.153 553.665 157.969 553.943L160.475 555.593C160.659 555.314 160.842 555.035 161.026 554.756L158.519 553.108ZM155.216 558.119C155.032 558.397 154.848 558.675 154.664 558.954L157.167 560.608C157.351 560.329 157.535 560.051 157.719 559.772L155.216 558.119ZM151.9 563.131C151.716 563.409 151.531 563.687 151.347 563.965L153.847 565.623C154.032 565.345 154.217 565.066 154.401 564.788L151.9 563.131ZM148.578 568.137C148.394 568.415 148.209 568.693 148.024 568.971L150.523 570.631C150.707 570.353 150.892 570.075 151.077 569.797L148.578 568.137ZM145.252 573.137C145.067 573.415 144.882 573.693 144.697 573.97L147.194 575.633C147.379 575.356 147.564 575.078 147.749 574.8L145.252 573.137ZM141.923 578.132C141.738 578.41 141.554 578.687 141.369 578.964L143.864 580.629C144.049 580.352 144.234 580.074 144.419 579.797L141.923 578.132ZM138.594 583.122C138.409 583.399 138.224 583.676 138.039 583.953L140.534 585.618C140.719 585.341 140.904 585.064 141.089 584.787L138.594 583.122ZM135.266 588.105C135.081 588.382 134.897 588.659 134.712 588.936L137.207 590.602C137.391 590.325 137.576 590.048 137.761 589.772L135.266 588.105ZM131.933 593.097C131.747 593.375 131.561 593.654 131.375 593.932L133.87 595.598C134.056 595.32 134.242 595.041 134.428 594.763L131.933 593.097ZM128.587 598.109C128.401 598.387 128.216 598.665 128.03 598.944L130.526 600.609C130.711 600.33 130.897 600.052 131.083 599.774L128.587 598.109ZM125.248 603.116C125.063 603.394 124.878 603.672 124.692 603.95L127.189 605.613C127.374 605.335 127.559 605.057 127.745 604.779L125.248 603.116ZM121.917 608.118C121.733 608.396 121.548 608.674 121.363 608.951L123.862 610.612C124.046 610.335 124.231 610.057 124.415 609.78L121.917 608.118ZM118.597 613.116C118.413 613.393 118.229 613.671 118.045 613.948L120.545 615.606C120.729 615.329 120.913 615.052 121.097 614.774L118.597 613.116ZM115.289 618.109C115.106 618.386 114.922 618.664 114.739 618.941L117.242 620.595C117.425 620.318 117.608 620.041 117.791 619.764L115.289 618.109ZM111.995 623.098C111.813 623.375 111.63 623.652 111.448 623.929L113.953 625.579C114.135 625.302 114.318 625.026 114.5 624.749L111.995 623.098ZM108.681 628.137C108.497 628.418 108.313 628.699 108.129 628.98L110.638 630.624C110.822 630.344 111.006 630.064 111.19 629.783L108.681 628.137ZM105.375 633.188C105.192 633.469 105.009 633.749 104.826 634.03L107.339 635.669C107.522 635.389 107.704 635.109 107.887 634.828L105.375 633.188ZM102.089 638.236C101.907 638.516 101.726 638.796 101.544 639.076L104.061 640.709C104.242 640.429 104.424 640.149 104.606 639.869L102.089 638.236ZM98.8254 643.279C98.6447 643.559 98.4641 643.839 98.2837 644.119L100.805 645.744C100.986 645.465 101.166 645.185 101.346 644.905L98.8254 643.279ZM95.5854 648.319C95.4061 648.599 95.2269 648.879 95.0478 649.159L97.5749 650.776C97.7536 650.496 97.9325 650.217 98.1115 649.937L95.5854 648.319ZM92.3711 653.356C92.1933 653.636 92.0156 653.916 91.8381 654.195L94.3709 655.803C94.5481 655.524 94.7255 655.245 94.9029 654.965L92.3711 653.356ZM89.1644 658.422C88.9846 658.707 88.805 658.992 88.6255 659.278L91.1645 660.875C91.3437 660.591 91.5229 660.306 91.7023 660.022L89.1644 658.422ZM85.9442 663.554C85.7662 663.84 85.5884 664.125 85.4107 664.41L87.9565 665.997C88.1338 665.712 88.3112 665.428 88.4889 665.143L85.9442 663.554ZM82.7569 668.684C82.5808 668.969 82.4048 669.254 82.229 669.539L84.7821 671.114C84.9575 670.83 85.133 670.546 85.3088 670.262L82.7569 668.684ZM79.6045 673.811C79.4304 674.096 79.2565 674.381 79.0827 674.666L81.6435 676.229C81.8168 675.945 81.9903 675.66 82.164 675.376L79.6045 673.811ZM76.4891 678.936C76.317 679.221 76.1452 679.506 75.9735 679.79L78.5425 681.34C78.7137 681.056 78.8851 680.772 79.0566 680.488L76.4891 678.936ZM73.4126 684.059C73.2428 684.343 73.0731 684.628 72.9037 684.912L75.4813 686.447C75.6503 686.164 75.8194 685.88 75.9887 685.596L73.4126 684.059ZM70.377 689.18C70.2057 689.471 70.0346 689.761 69.8636 690.052L72.4504 691.572C72.6208 691.282 72.7914 690.992 72.9622 690.702L70.377 689.18ZM67.3093 694.428C67.1401 694.72 66.9711 695.011 66.8023 695.303L69.3989 696.806C69.5671 696.515 69.7355 696.224 69.9042 695.933L67.3093 694.428ZM64.2876 699.677C64.1211 699.969 63.9548 700.26 63.7887 700.552L66.3956 702.037C66.5611 701.746 66.7268 701.455 66.8927 701.165L64.2876 699.677ZM61.3156 704.925C61.1519 705.216 60.9884 705.508 60.8252 705.799L63.4428 707.265C63.6054 706.975 63.7683 706.684 63.9314 706.394L61.3156 704.925ZM58.3954 710.171C58.2346 710.463 58.0741 710.754 57.9139 711.046L60.5427 712.491C60.7023 712.201 60.8622 711.911 61.0223 711.62L58.3954 710.171ZM55.5292 715.417C55.3715 715.708 55.2141 716 55.0569 716.291L57.6973 717.715C57.8538 717.425 58.0106 717.135 58.1677 716.845L55.5292 715.417ZM52.7193 720.662C52.5647 720.953 52.4105 721.245 52.2566 721.536L54.909 722.938C55.0623 722.648 55.2158 722.357 55.3697 722.067L52.7193 720.662ZM49.9015 726.034C49.7458 726.334 49.5904 726.634 49.4353 726.934L52.1006 728.311C52.2549 728.013 52.4096 727.714 52.5645 727.415L49.9015 726.034ZM47.132 731.436C46.98 731.736 46.8282 732.036 46.6768 732.336L49.3552 733.687C49.5059 733.389 49.6569 733.09 49.8082 732.791L47.132 731.436ZM44.4293 736.838C44.281 737.138 44.1331 737.438 43.9855 737.738L46.6775 739.062C46.8243 738.763 46.9715 738.465 47.119 738.166L44.4293 736.838ZM41.7958 742.24C41.6514 742.54 41.5074 742.84 41.3637 743.14L44.0696 744.435C44.2125 744.137 44.3558 743.838 44.4993 743.54L41.7958 742.24ZM39.2338 747.642C39.0935 747.942 38.9536 748.242 38.8139 748.542L41.5341 749.808C41.6729 749.509 41.8121 749.211 41.9516 748.912L39.2338 747.642ZM36.7458 753.045C36.6097 753.345 36.4739 753.645 36.3385 753.946L39.0732 755.179C39.2078 754.881 39.3428 754.582 39.4781 754.284L36.7458 753.045ZM34.2719 758.591C34.136 758.901 34.0004 759.211 33.8653 759.521L36.6152 760.72C36.7495 760.412 36.8842 760.104 37.0193 759.796L34.2719 758.591ZM31.8674 764.171C31.7362 764.481 31.6054 764.791 31.475 765.101L34.2404 766.264C34.3699 765.956 34.4999 765.648 34.6302 765.34L31.8674 764.171ZM29.5496 769.752C29.4233 770.062 29.2974 770.372 29.172 770.682L31.9529 771.807C32.0775 771.499 32.2026 771.191 32.328 770.883L29.5496 769.752ZM27.3212 775.335C27.1999 775.645 27.079 775.955 26.9586 776.265L29.7553 777.351C29.8749 777.043 29.9949 776.735 30.1153 776.427L27.3212 775.335ZM25.1847 780.919C25.0686 781.23 24.953 781.54 24.8378 781.85L27.6502 782.894C27.7646 782.586 27.8794 782.278 27.9946 781.97L25.1847 780.919ZM23.1424 786.508C23.0282 786.828 22.9145 787.148 22.8013 787.468L25.6296 788.469C25.7419 788.151 25.8547 787.834 25.968 787.516L23.1424 786.508ZM21.1396 792.27C21.0313 792.59 20.9234 792.911 20.816 793.231L23.6605 794.184C23.7669 793.867 23.8739 793.549 23.9813 793.232L21.1396 792.27ZM19.2432 798.035C19.1408 798.356 19.039 798.676 18.9376 798.997L21.798 799.901C21.8984 799.584 21.9994 799.266 22.1009 798.948L19.2432 798.035ZM17.456 803.804C17.3598 804.124 17.2641 804.445 17.1689 804.766L20.0449 805.619C20.1392 805.302 20.234 804.984 20.3294 804.666L17.456 803.804ZM15.781 809.576C15.6911 809.897 15.6018 810.218 15.5129 810.538L18.4042 811.339C18.4922 811.021 18.5807 810.703 18.6697 810.385L15.781 809.576ZM14.2211 815.352C14.1377 815.673 14.0549 815.994 13.9726 816.315L16.8786 817.06C16.9601 816.742 17.0421 816.424 17.1247 816.107L14.2211 815.352ZM12.7668 821.185C12.6882 821.514 12.6102 821.843 12.5329 822.172L15.4532 822.859C15.5298 822.533 15.607 822.207 15.6847 821.882L12.7668 821.185ZM11.4167 827.109C11.3453 827.439 11.2745 827.768 11.2043 828.097L14.1383 828.723C14.2078 828.397 14.2779 828.071 14.3485 827.745L11.4167 827.109ZM10.1968 833.039C10.1327 833.369 10.0692 833.698 10.0063 834.028L12.9532 834.59C13.0154 834.264 13.0782 833.938 13.1416 833.612L10.1968 833.039ZM9.11007 838.974C9.05346 839.304 8.99748 839.633 8.94214 839.963L11.9008 840.46C11.9555 840.134 12.0109 839.807 12.0668 839.481L9.11007 838.974ZM8.15982 844.914C8.11088 845.244 8.06258 845.574 8.01493 845.905L10.9842 846.333C11.0313 846.007 11.079 845.68 11.1274 845.354L8.15982 844.914ZM7.34916 850.86C7.30795 851.192 7.2674 851.523 7.22751 851.854L10.206 852.213C10.2454 851.885 10.2855 851.558 10.3262 851.23L7.34916 850.86ZM6.67558 856.869C6.64222 857.204 6.60955 857.538 6.57757 857.873L9.56395 858.158C9.59554 857.828 9.62781 857.497 9.66077 857.167L6.67558 856.869ZM6.15017 862.892C6.12518 863.227 6.1009 863.562 6.07733 863.897L9.06992 864.108C9.0932 863.777 9.11718 863.446 9.14185 863.116L6.15017 862.892ZM5.77717 868.922C5.76075 869.258 5.74504 869.593 5.73005 869.928L8.72706 870.062C8.74185 869.731 8.75736 869.4 8.77358 869.069L5.77717 868.922ZM5.55987 874.959C5.55218 875.295 5.54523 875.631 5.53902 875.966L8.5385 876.022C8.54463 875.69 8.55149 875.359 8.55908 875.028L5.55987 874.959ZM5.50151 881.003C5.50274 881.339 5.50473 881.675 5.50747 882.011L8.50737 881.987C8.50466 881.655 8.50271 881.324 8.50149 880.992L5.50151 881.003ZM5.60461 887.03C5.61481 887.364 5.62577 887.697 5.63748 888.03L8.63563 887.925C8.62408 887.596 8.61327 887.267 8.6032 886.939L5.60461 887.03ZM5.86999 893.033C5.88931 893.367 5.90939 893.701 5.93023 894.035L8.9244 893.848C8.90384 893.518 8.88403 893.189 8.86498 892.86L5.86999 893.033ZM6.30093 899.044C6.32953 899.378 6.35891 899.712 6.38907 900.046L9.37693 899.777C9.34718 899.447 9.31821 899.118 9.29001 898.788L6.30093 899.044ZM6.90057 905.062C6.93863 905.397 6.97748 905.731 7.01713 906.066L9.99629 905.713C9.95719 905.383 9.91888 905.053 9.88135 904.723L6.90057 905.062ZM7.67204 911.088C7.71973 911.423 7.76823 911.758 7.81754 912.094L10.7856 911.657C10.7369 911.326 10.6891 910.996 10.6421 910.666L7.67204 911.088ZM8.61844 917.123C8.67463 917.45 8.73159 917.778 8.78935 918.106L11.7439 917.586C11.6869 917.262 11.6307 916.939 11.5753 916.616L8.61844 917.123ZM9.70383 922.97C9.76869 923.295 9.83433 923.619 9.90076 923.944L12.8398 923.342C12.7743 923.022 12.7096 922.702 12.6456 922.382L9.70383 922.97ZM10.9562 928.814C11.0305 929.139 11.1056 929.464 11.1815 929.789L14.1029 929.107C14.028 928.786 13.954 928.466 13.8807 928.145L10.9562 928.814ZM12.3803 934.666C12.4642 934.992 12.5489 935.317 12.6345 935.642L15.5359 934.88C15.4515 934.559 15.3679 934.238 15.2851 933.917L12.3803 934.666ZM13.9788 940.526C14.0725 940.852 14.167 941.178 14.2623 941.504L17.1416 940.661C17.0476 940.34 16.9543 940.019 16.8619 939.697L13.9788 940.526ZM15.7545 946.395C15.8581 946.721 15.9626 947.047 16.0679 947.374L18.9229 946.453C18.819 946.131 18.716 945.809 18.6137 945.487L15.7545 946.395ZM17.6784 952.18C17.7851 952.487 17.8926 952.795 18.0009 953.102L20.8304 952.105C20.7236 951.802 20.6175 951.499 20.5122 951.196L17.6784 952.18ZM19.681 957.713C19.7968 958.021 19.9134 958.329 20.0307 958.636L22.8338 957.568C22.7181 957.264 22.603 956.96 22.4887 956.657L19.681 957.713ZM21.8474 963.254C21.9724 963.562 22.0981 963.871 22.2246 964.179L24.9998 963.039C24.8749 962.735 24.7508 962.431 24.6275 962.127L21.8474 963.254ZM24.1799 968.803C24.3141 969.112 24.4491 969.42 24.5849 969.729L27.3307 968.52C27.1966 968.216 27.0633 967.911 26.9307 967.606L24.1799 968.803ZM26.6806 974.36C26.8242 974.669 26.9687 974.978 27.1139 975.287L29.829 974.011C29.6855 973.706 29.5428 973.401 29.4009 973.095L26.6806 974.36ZM29.3519 979.925C29.5051 980.235 29.659 980.544 29.8138 980.854L32.497 979.512C32.344 979.206 32.1918 978.9 32.0404 978.594L29.3519 979.925ZM32.1447 985.401C32.2941 985.686 32.4441 985.97 32.5948 986.255L35.2459 984.851C35.0969 984.57 34.9486 984.288 34.801 984.007L32.1447 985.401ZM34.907 990.526C35.0645 990.811 35.2228 991.095 35.3818 991.38L38.0017 989.919C37.8444 989.637 37.6879 989.355 37.5321 989.074L34.907 990.526ZM37.8185 995.657C37.9844 995.942 38.151 996.228 38.3183 996.513L40.9062 994.996C40.7407 994.713 40.5759 994.431 40.4117 994.149L37.8185 995.657ZM40.881 1000.8C41.0553 1001.08 41.2304 1001.37 41.4062 1001.65L43.9615 1000.08C43.7875 999.799 43.6143 999.516 43.4418 999.234L40.881 1000.8ZM44.0963 1005.94C44.2792 1006.23 44.4628 1006.52 44.6471 1006.8L47.1693 1005.18C46.9868 1004.89 46.8051 1004.61 46.624 1004.33L44.0963 1005.94ZM47.4661 1011.1C47.6576 1011.38 47.8499 1011.67 48.0429 1011.96L50.5315 1010.28C50.3404 1010 50.15 1009.71 49.9603 1009.43L47.4661 1011.1ZM50.9922 1016.26C51.1925 1016.55 51.3935 1016.83 51.5952 1017.12L54.0499 1015.4C53.8501 1015.11 53.651 1014.83 53.4526 1014.54L50.9922 1016.26ZM54.4454 1021.11C54.6334 1021.37 54.8221 1021.63 55.0114 1021.89L57.4346 1020.12C57.247 1019.87 57.06 1019.61 56.8737 1019.35L54.4454 1021.11ZM57.8963 1025.78C58.0916 1026.04 58.2876 1026.3 58.4841 1026.56L60.8763 1024.75C60.6814 1024.5 60.4872 1024.24 60.2936 1023.98L57.8963 1025.78ZM61.4784 1030.46C61.6811 1030.72 61.8843 1030.98 62.0882 1031.24L64.4493 1029.39C64.2471 1029.13 64.0456 1028.87 63.8447 1028.62L61.4784 1030.46ZM65.193 1035.15C65.4031 1035.41 65.6138 1035.67 65.8251 1035.93L68.155 1034.04C67.9454 1033.78 67.7364 1033.52 67.5281 1033.26L65.193 1035.15ZM69.0414 1039.84C69.2589 1040.1 69.4771 1040.36 69.6959 1040.62L71.9946 1038.69C71.7776 1038.43 71.5611 1038.17 71.3453 1037.92L69.0414 1039.84ZM73.0249 1044.54C73.25 1044.8 73.4756 1045.06 73.702 1045.32L75.9697 1043.36C75.7451 1043.1 75.5211 1042.84 75.2978 1042.58L73.0249 1044.54ZM77.1447 1049.24C77.3774 1049.5 77.6107 1049.77 77.8447 1050.03L80.0814 1048.03C79.8492 1047.77 79.6176 1047.51 79.3866 1047.25L77.1447 1049.24ZM81.2513 1053.79C81.4656 1054.03 81.6803 1054.26 81.8955 1054.49L84.103 1052.46C83.8893 1052.23 83.6761 1052 83.4634 1051.77L81.2513 1053.79ZM85.1628 1058C85.3832 1058.24 85.6041 1058.47 85.8255 1058.71L88.0056 1056.65C87.7857 1056.41 87.5663 1056.18 87.3475 1055.95L85.1628 1058ZM89.1858 1062.22C89.4124 1062.46 89.6395 1062.69 89.8671 1062.93L92.0201 1060.84C91.7939 1060.6 91.5683 1060.37 91.3432 1060.14L89.1858 1062.22ZM93.3211 1066.45C93.554 1066.68 93.7874 1066.92 94.0214 1067.15L96.1472 1065.04C95.9148 1064.8 95.6829 1064.57 95.4515 1064.34L93.3211 1066.45ZM97.5699 1070.68C97.8091 1070.91 98.0488 1071.15 98.2891 1071.38L100.388 1069.24C100.149 1069.01 99.9112 1068.77 99.6735 1068.54L97.5699 1070.68ZM101.933 1074.92C102.179 1075.15 102.425 1075.39 102.671 1075.62L104.744 1073.45C104.499 1073.22 104.254 1072.99 104.01 1072.75L101.933 1074.92ZM106.411 1079.16C106.663 1079.4 106.916 1079.63 107.169 1079.87L109.215 1077.68C108.963 1077.44 108.712 1077.21 108.462 1076.97L106.411 1079.16ZM111.006 1083.41C111.264 1083.65 111.523 1083.89 111.783 1084.12L113.803 1081.9C113.545 1081.67 113.287 1081.43 113.03 1081.2L111.006 1083.41ZM115.643 1087.6C115.878 1087.81 116.114 1088.02 116.35 1088.23L118.345 1085.99C118.11 1085.79 117.876 1085.58 117.642 1085.37L115.643 1087.6ZM119.923 1091.39C120.163 1091.6 120.404 1091.81 120.645 1092.02L122.618 1089.76C122.378 1089.55 122.138 1089.34 121.899 1089.13L119.923 1091.39ZM124.296 1095.18C124.542 1095.39 124.788 1095.6 125.034 1095.81L126.984 1093.53C126.739 1093.32 126.494 1093.11 126.25 1092.9L124.296 1095.18ZM128.764 1098.98C129.015 1099.19 129.266 1099.4 129.518 1099.61L131.446 1097.31C131.195 1097.1 130.945 1096.89 130.695 1096.68L128.764 1098.98ZM133.326 1102.78C133.582 1102.99 133.839 1103.2 134.096 1103.41L136.002 1101.1C135.746 1100.89 135.491 1100.68 135.236 1100.47L133.326 1102.78ZM137.984 1106.59C138.246 1106.8 138.508 1107.01 138.77 1107.22L140.654 1104.89C140.393 1104.68 140.133 1104.47 139.872 1104.26L137.984 1106.59ZM142.739 1110.4C143.005 1110.61 143.273 1110.83 143.54 1111.04L145.403 1108.69C145.137 1108.48 144.871 1108.27 144.605 1108.05L142.739 1110.4ZM147.59 1114.22C147.862 1114.44 148.135 1114.65 148.408 1114.86L150.25 1112.49C149.978 1112.28 149.706 1112.07 149.435 1111.86L147.59 1114.22ZM152.539 1118.05C152.816 1118.26 153.094 1118.47 153.373 1118.69L155.194 1116.3C154.917 1116.09 154.64 1115.88 154.363 1115.67L152.539 1118.05ZM157.586 1121.88C157.727 1121.99 157.868 1122.09 158.009 1122.2L159.812 1119.8C159.671 1119.7 159.53 1119.59 159.39 1119.48L157.586 1121.88ZM159.332 1123.97C160.972 1123.74 162.114 1122.22 161.881 1120.58L158.086 1093.85C157.853 1092.21 156.335 1091.06 154.694 1091.3C153.054 1091.53 151.913 1093.05 152.146 1094.69L155.519 1118.45L131.757 1121.82C130.116 1122.06 128.975 1123.58 129.208 1125.22C129.441 1126.86 130.96 1128 132.6 1127.76L159.332 1123.97ZM156.738 5.06876C156.858 5.19544 156.979 5.3221 157.099 5.44875L161.448 1.31459C161.326 1.18682 161.205 1.05904 161.083 0.931243L156.738 5.06876ZM160.68 9.24407C160.916 9.49682 161.153 9.7495 161.388 10.0021L165.775 5.90873C165.537 5.65381 165.299 5.39883 165.06 5.14381L160.68 9.24407ZM164.893 13.7875C165.124 14.0395 165.355 14.2915 165.586 14.5435L170.011 10.4919C169.779 10.2375 169.545 9.98318 169.312 9.72877L164.893 13.7875ZM169.015 18.3189C169.242 18.5703 169.468 18.8216 169.693 19.0729L174.157 15.0641C173.93 14.8103 173.701 14.5566 173.473 14.3028L169.015 18.3189ZM173.047 22.8383C173.269 23.0891 173.49 23.3398 173.711 23.5904L178.214 19.6254C177.991 19.3723 177.768 19.1191 177.544 18.8659L173.047 22.8383ZM176.99 27.346C177.207 27.5961 177.423 27.8461 177.638 28.0961L182.181 24.1759C181.963 23.9234 181.744 23.6708 181.526 23.4182L176.99 27.346ZM180.844 31.8418C181.056 32.0912 181.267 32.3406 181.478 32.5899L186.059 28.7156C185.846 28.4637 185.633 28.2118 185.419 27.9598L180.844 31.8418ZM184.61 36.3258C184.817 36.5746 185.023 36.8233 185.229 37.072L189.85 33.2447C189.642 32.9934 189.433 32.7421 189.224 32.4906L184.61 36.3258ZM188.288 40.7981C188.49 41.0463 188.692 41.2944 188.893 41.5424L193.553 37.7632C193.35 37.5125 193.146 37.2617 192.942 37.0109L188.288 40.7981ZM191.88 45.2588C192.077 45.5063 192.274 45.7537 192.47 46.0011L197.17 42.2712C196.971 42.021 196.772 41.7709 196.573 41.5206L191.88 45.2588ZM195.591 49.9725C195.804 50.2456 196.016 50.5187 196.228 50.7917L200.97 47.1161C200.756 46.8399 200.542 46.5637 200.327 46.2874L195.591 49.9725ZM199.366 54.8821C199.572 55.1545 199.779 55.4268 199.985 55.699L204.771 52.0806C204.562 51.8051 204.354 51.5296 204.144 51.254L199.366 54.8821ZM203.036 59.7777C203.237 60.0493 203.438 60.3208 203.638 60.5923L208.467 57.0324C208.265 56.7576 208.062 56.4828 207.858 56.208L203.036 59.7777ZM206.603 64.6593C206.799 64.9301 206.993 65.2009 207.188 65.4716L212.061 61.9717C211.865 61.6976 211.667 61.4235 211.469 61.1493L206.603 64.6593ZM210.068 69.527C210.258 69.797 210.447 70.067 210.636 70.3369L215.553 66.8984C215.362 66.6251 215.17 66.3516 214.978 66.0782L210.068 69.527ZM213.432 74.3808C213.616 74.6501 213.8 74.9193 213.983 75.1884L218.944 71.8128C218.758 71.5401 218.572 71.2674 218.385 70.9946L213.432 74.3808ZM216.696 79.2208C216.874 79.4893 217.052 79.7578 217.23 80.0262L222.234 76.7149C222.054 76.4429 221.873 76.1708 221.692 75.8987L216.696 79.2208ZM219.86 84.0472C220.033 84.3149 220.205 84.5826 220.378 84.8502L225.424 81.6047C225.25 81.3334 225.075 81.062 224.899 80.7906L219.86 84.0472ZM222.955 88.9076C223.139 89.2006 223.322 89.4936 223.505 89.7865L228.595 86.61C228.41 86.313 228.224 86.0159 228.038 85.7187L222.955 88.9076ZM226.206 94.174C226.383 94.4661 226.56 94.7582 226.736 95.0501L231.873 91.9492C231.694 91.6529 231.515 91.3567 231.335 91.0603L226.206 94.174ZM229.34 99.4242C229.511 99.7154 229.681 100.007 229.851 100.298L235.034 97.2739C234.861 96.9785 234.688 96.683 234.515 96.3874L229.34 99.4242ZM232.359 104.658C232.523 104.949 232.687 105.239 232.851 105.529L238.078 102.584C237.912 102.29 237.746 101.995 237.579 101.7L232.359 104.658ZM235.263 109.876C235.421 110.166 235.579 110.455 235.736 110.745L241.009 107.88C240.849 107.587 240.689 107.293 240.528 106.999L235.263 109.876ZM238.055 115.079C238.207 115.367 238.358 115.656 238.509 115.944L243.825 113.163C243.672 112.869 243.518 112.576 243.364 112.283L238.055 115.079ZM240.734 120.265C240.88 120.553 241.025 120.841 241.17 121.128L246.529 118.43C246.382 118.138 246.234 117.846 246.086 117.553L240.734 120.265ZM243.303 125.436C243.442 125.723 243.581 126.01 243.72 126.296L249.122 123.684C248.981 123.393 248.839 123.101 248.697 122.81L243.303 125.436ZM245.841 130.763C245.986 131.073 246.13 131.382 246.273 131.692L251.718 129.172C251.572 128.857 251.426 128.541 251.279 128.226L245.841 130.763ZM248.38 136.332C248.517 136.641 248.654 136.95 248.791 137.258L254.279 134.834C254.14 134.52 254.001 134.206 253.861 133.892L248.38 136.332ZM250.793 141.883C250.923 142.191 251.053 142.499 251.182 142.807L256.713 140.481C256.582 140.167 256.449 139.854 256.316 139.541L250.793 141.883ZM253.081 147.417C253.204 147.724 253.328 148.03 253.45 148.337L259.022 146.111C258.897 145.799 258.772 145.486 258.646 145.174L253.081 147.417ZM255.246 152.933C255.363 153.239 255.479 153.545 255.595 153.85L261.206 151.726C261.089 151.414 260.97 151.103 260.851 150.791L255.246 152.933ZM257.29 158.432C257.4 158.737 257.51 159.041 257.619 159.346L263.268 157.325C263.157 157.014 263.045 156.703 262.933 156.393L257.29 158.432ZM259.214 163.913C259.318 164.217 259.421 164.521 259.523 164.825L265.209 162.908C265.104 162.598 264.999 162.288 264.894 161.978L259.214 163.913ZM261.053 169.481C261.156 169.804 261.259 170.127 261.361 170.45L267.082 168.642C266.978 168.312 266.873 167.983 266.768 167.654L261.053 169.481ZM262.846 175.287C262.942 175.609 263.037 175.931 263.132 176.253L268.888 174.558C268.791 174.23 268.694 173.902 268.596 173.573L262.846 175.287ZM264.508 181.074C264.597 181.395 264.685 181.716 264.772 182.037L270.561 180.457C270.472 180.13 270.382 179.803 270.291 179.475L264.508 181.074ZM266.041 186.842C266.122 187.162 266.203 187.482 266.284 187.802L272.103 186.339C272.021 186.013 271.938 185.686 271.855 185.36L266.041 186.842ZM267.446 192.592C267.521 192.911 267.594 193.23 267.668 193.549L273.515 192.203C273.44 191.878 273.365 191.552 273.288 191.227L267.446 192.592ZM268.725 198.324C268.793 198.642 268.86 198.96 268.926 199.278L274.799 198.05C274.731 197.725 274.663 197.401 274.594 197.076L268.725 198.324ZM269.881 204.039C269.941 204.356 270.002 204.672 270.061 204.989L275.958 203.879C275.897 203.556 275.835 203.232 275.773 202.909L269.881 204.039ZM270.941 209.896C270.997 210.226 271.053 210.557 271.108 210.887L277.026 209.9C276.97 209.563 276.913 209.226 276.856 208.888L270.941 209.896ZM271.889 215.834C271.938 216.164 271.986 216.493 272.034 216.822L277.972 215.96C277.923 215.624 277.873 215.287 277.823 214.951L271.889 215.834ZM272.707 221.754C272.748 222.082 272.79 222.411 272.83 222.739L278.785 222.001C278.743 221.666 278.701 221.33 278.658 220.995L272.707 221.754ZM273.397 227.655C273.431 227.983 273.466 228.31 273.499 228.637L279.468 228.023C279.433 227.689 279.398 227.355 279.363 227.021L273.397 227.655ZM273.961 233.539C273.989 233.865 274.016 234.191 274.043 234.517L280.023 234.027C279.995 233.694 279.967 233.361 279.939 233.028L273.961 233.539ZM274.401 239.404C274.422 239.729 274.443 240.055 274.462 240.38L280.451 240.013C280.431 239.681 280.41 239.349 280.388 239.017L274.401 239.404ZM274.721 245.288C274.736 245.621 274.75 245.954 274.763 246.287L280.758 246.044C280.744 245.704 280.73 245.364 280.715 245.024L274.721 245.288ZM274.922 251.271C274.93 251.603 274.937 251.935 274.943 252.266L280.942 252.148C280.936 251.809 280.928 251.47 280.92 251.132L274.922 251.271ZM274.999 257.235C275 257.566 275 257.897 275 258.228L281 258.233C281 257.895 281 257.557 280.999 257.22L274.999 257.235ZM274.954 263.182C274.948 263.512 274.942 263.842 274.935 264.172L280.933 264.299C280.94 263.962 280.947 263.626 280.953 263.289L274.954 263.182ZM274.789 269.112C274.776 269.441 274.763 269.77 274.75 270.099L280.745 270.346C280.758 270.011 280.772 269.675 280.784 269.339L274.789 269.112ZM274.506 275.025C274.487 275.353 274.467 275.681 274.447 276.009L280.436 276.375C280.456 276.04 280.476 275.706 280.496 275.371L274.506 275.025ZM274.107 280.922C274.081 281.252 274.055 281.582 274.028 281.912L280.009 282.395C280.036 282.059 280.063 281.722 280.089 281.386L274.107 280.922ZM273.589 286.856C273.557 287.185 273.524 287.514 273.491 287.843L279.461 288.442C279.495 288.107 279.528 287.771 279.561 287.436L273.589 286.856ZM272.957 292.773C272.919 293.102 272.88 293.43 272.841 293.758L278.798 294.47C278.838 294.136 278.878 293.802 278.917 293.467L272.957 292.773ZM272.214 298.674C272.17 299.002 272.125 299.329 272.079 299.656L278.023 300.48C278.069 300.147 278.114 299.813 278.16 299.48L272.214 298.674ZM271.361 304.56C271.311 304.886 271.26 305.213 271.209 305.539L277.136 306.472C277.188 306.139 277.24 305.807 277.291 305.474L271.361 304.56ZM270.401 310.429C270.345 310.755 270.288 311.08 270.231 311.406L276.14 312.445C276.199 312.114 276.256 311.782 276.314 311.451L270.401 310.429ZM269.336 316.283C269.274 316.608 269.212 316.932 269.149 317.257L275.039 318.4C275.103 318.07 275.167 317.739 275.23 317.409L269.336 316.283ZM268.172 322.105C268.104 322.428 268.036 322.751 267.968 323.074L273.837 324.318C273.907 323.989 273.976 323.661 274.045 323.333L268.172 322.105ZM266.907 327.91C266.834 328.232 266.761 328.554 266.687 328.876L272.535 330.218C272.61 329.891 272.685 329.564 272.759 329.236L266.907 327.91ZM265.545 333.7C265.466 334.021 265.388 334.343 265.308 334.664L271.134 336.102C271.214 335.775 271.294 335.449 271.374 335.122L265.545 333.7ZM264.086 339.476C264.003 339.796 263.919 340.117 263.834 340.437L269.636 341.968C269.721 341.642 269.807 341.317 269.892 340.991L264.086 339.476ZM262.534 345.237C262.445 345.557 262.356 345.877 262.266 346.196L268.043 347.817C268.134 347.492 268.225 347.168 268.315 346.843L262.534 345.237ZM260.89 350.985C260.796 351.304 260.702 351.622 260.607 351.941L266.359 353.65C266.455 353.326 266.55 353.002 266.646 352.679L260.89 350.985ZM259.17 356.675C259.072 356.989 258.974 357.304 258.875 357.618L264.602 359.411C264.701 359.091 264.801 358.772 264.9 358.453L259.17 356.675ZM257.37 362.331C257.267 362.645 257.165 362.959 257.061 363.273L262.762 365.146C262.866 364.828 262.97 364.51 263.074 364.191L257.37 362.331ZM255.486 367.975C255.379 368.288 255.272 368.601 255.164 368.914L260.838 370.866C260.947 370.548 261.056 370.231 261.164 369.914L255.486 367.975ZM253.521 373.606C253.41 373.918 253.298 374.23 253.186 374.543L258.833 376.57C258.947 376.254 259.06 375.937 259.173 375.62L253.521 373.606ZM251.477 379.224C251.361 379.535 251.245 379.847 251.128 380.159L256.749 382.259C256.867 381.943 256.984 381.628 257.102 381.312L251.477 379.224ZM249.355 384.829C249.235 385.14 249.115 385.451 248.994 385.762L254.587 387.933C254.71 387.618 254.831 387.303 254.953 386.988L249.355 384.829ZM247.172 390.386C247.05 390.692 246.927 390.998 246.805 391.303L252.371 393.542C252.496 393.232 252.62 392.923 252.744 392.613L247.172 390.386ZM244.937 395.885C244.81 396.19 244.684 396.495 244.557 396.8L250.098 399.103C250.226 398.794 250.354 398.486 250.481 398.177L244.937 395.885ZM242.632 401.372C242.502 401.676 242.371 401.981 242.241 402.285L247.755 404.65C247.887 404.342 248.019 404.034 248.15 403.726L242.632 401.372ZM240.26 406.847C240.126 407.151 239.992 407.455 239.858 407.759L245.346 410.183C245.482 409.876 245.617 409.569 245.752 409.262L240.26 406.847ZM237.822 412.311C237.685 412.614 237.548 412.918 237.41 413.221L242.873 415.703C243.012 415.397 243.151 415.09 243.289 414.784L237.822 412.311ZM235.322 417.764C235.181 418.067 235.041 418.369 234.899 418.672L240.336 421.209C240.479 420.904 240.621 420.598 240.763 420.293L235.322 417.764ZM232.764 423.199C232.622 423.496 232.48 423.794 232.338 424.091L237.75 426.681C237.894 426.381 238.037 426.081 238.18 425.78L232.764 423.199ZM230.184 428.548C230.039 428.845 229.894 429.142 229.748 429.439L235.136 432.079C235.283 431.779 235.429 431.48 235.576 431.18L230.184 428.548ZM227.548 433.887C227.4 434.183 227.251 434.48 227.103 434.776L232.467 437.464C232.617 437.165 232.766 436.866 232.916 436.567L227.548 433.887ZM224.858 439.216C224.707 439.512 224.556 439.807 224.405 440.103L229.745 442.837C229.898 442.539 230.05 442.241 230.203 441.942L224.858 439.216ZM222.116 444.535C221.963 444.83 221.809 445.125 221.655 445.42L226.973 448.198C227.128 447.901 227.283 447.603 227.438 447.305L222.116 444.535ZM219.325 449.844C219.169 450.138 219.012 450.433 218.855 450.728L224.151 453.548C224.31 453.251 224.467 452.954 224.625 452.657L219.325 449.844ZM216.486 455.143C216.327 455.437 216.168 455.731 216.009 456.025L221.283 458.885C221.444 458.589 221.604 458.293 221.764 457.996L216.486 455.143ZM213.626 460.388C213.467 460.678 213.307 460.968 213.147 461.257L218.401 464.155C218.562 463.863 218.723 463.571 218.883 463.28L213.626 460.388ZM210.736 465.6C210.574 465.889 210.412 466.179 210.25 466.468L215.484 469.401C215.647 469.11 215.81 468.819 215.973 468.528L210.736 465.6ZM207.804 470.803C207.64 471.092 207.476 471.381 207.312 471.669L212.526 474.637C212.692 474.347 212.857 474.056 213.022 473.765L207.804 470.803ZM204.833 475.997C204.667 476.286 204.501 476.574 204.335 476.862L209.531 479.863C209.698 479.573 209.865 479.282 210.033 478.992L204.833 475.997ZM201.825 481.183C201.657 481.471 201.489 481.759 201.32 482.046L206.499 485.077C206.668 484.788 206.837 484.499 207.006 484.209L201.825 481.183ZM198.782 486.36C198.612 486.648 198.441 486.935 198.271 487.222L203.432 490.282C203.603 489.993 203.774 489.705 203.945 489.416L198.782 486.36ZM195.708 491.523C195.538 491.807 195.367 492.091 195.197 492.376L200.341 495.463C200.513 495.178 200.684 494.892 200.855 494.606L195.708 491.523ZM192.627 496.636C192.455 496.92 192.283 497.204 192.111 497.488L197.24 500.601C197.413 500.316 197.586 500.031 197.759 499.745L192.627 496.636ZM189.517 501.742C189.344 502.025 189.17 502.309 188.996 502.592L194.111 505.729C194.285 505.445 194.46 505.16 194.634 504.875L189.517 501.742ZM186.38 506.84C186.204 507.123 186.029 507.406 185.854 507.689L190.954 510.849C191.13 510.564 191.306 510.28 191.482 509.996L186.38 506.84ZM183.216 511.93C183.039 512.213 182.863 512.495 182.686 512.778L187.773 515.959C187.951 515.675 188.128 515.391 188.305 515.108L183.216 511.93ZM180.028 517.013C179.85 517.295 179.673 517.577 179.495 517.859L184.569 521.06C184.748 520.777 184.927 520.494 185.105 520.211L180.028 517.013ZM176.818 522.089C176.639 522.37 176.46 522.652 176.281 522.934L181.344 526.153C181.524 525.87 181.704 525.588 181.883 525.305L176.818 522.089ZM173.595 527.146C173.415 527.426 173.236 527.706 173.057 527.986L178.109 531.222C178.289 530.941 178.469 530.66 178.649 530.379L173.595 527.146ZM170.359 532.186C170.179 532.466 169.999 532.746 169.818 533.026L174.861 536.277C175.042 535.996 175.223 535.716 175.403 535.435L170.359 532.186ZM167.107 537.22C166.926 537.5 166.744 537.779 166.563 538.058L171.597 541.324C171.778 541.044 171.96 540.763 172.142 540.483L167.107 537.22ZM163.839 542.247C163.657 542.527 163.475 542.806 163.293 543.085L168.319 546.363C168.501 546.083 168.684 545.803 168.866 545.523L163.839 542.247ZM160.558 547.268C160.376 547.547 160.193 547.826 160.011 548.105L165.029 551.394C165.212 551.115 165.395 550.835 165.578 550.556L160.558 547.268ZM157.266 552.283C157.083 552.562 156.9 552.84 156.717 553.118L161.728 556.418C161.912 556.139 162.095 555.86 162.279 555.581L157.266 552.283ZM153.964 557.292C153.781 557.57 153.597 557.849 153.413 558.127L158.419 561.435C158.603 561.156 158.787 560.877 158.971 560.599L153.964 557.292ZM150.65 562.302C150.466 562.58 150.281 562.858 150.097 563.136L155.098 566.452C155.282 566.173 155.467 565.895 155.652 565.616L150.65 562.302ZM147.329 567.307C147.144 567.585 146.96 567.863 146.775 568.14L151.772 571.462C151.957 571.184 152.142 570.905 152.326 570.627L147.329 567.307ZM144.003 572.306C143.819 572.584 143.634 572.861 143.449 573.139L148.443 576.465C148.628 576.187 148.813 575.909 148.998 575.632L144.003 572.306ZM140.676 577.3C140.491 577.577 140.306 577.855 140.121 578.132L145.112 581.461C145.297 581.184 145.482 580.906 145.667 580.629L140.676 577.3ZM137.347 582.289C137.162 582.566 136.977 582.843 136.792 583.12L141.782 586.451C141.967 586.174 142.152 585.897 142.337 585.62L137.347 582.289ZM134.019 587.272C133.834 587.549 133.649 587.826 133.465 588.103L138.454 591.435C138.639 591.158 138.824 590.881 139.008 590.605L134.019 587.272ZM130.685 592.264C130.499 592.542 130.313 592.821 130.127 593.099L135.117 596.431C135.303 596.153 135.489 595.874 135.675 595.596L130.685 592.264ZM127.339 597.276C127.154 597.555 126.968 597.833 126.782 598.111L131.773 601.441C131.959 601.163 132.145 600.885 132.33 600.607L127.339 597.276ZM124 602.284C123.815 602.562 123.629 602.84 123.444 603.118L128.437 606.445C128.622 606.167 128.808 605.889 128.993 605.611L124 602.284ZM120.669 607.287C120.484 607.565 120.299 607.843 120.114 608.121L125.111 611.443C125.295 611.165 125.48 610.888 125.664 610.61L120.669 607.287ZM117.347 612.286C117.163 612.564 116.979 612.842 116.795 613.119L121.795 616.435C121.979 616.158 122.163 615.881 122.347 615.604L117.347 612.286ZM114.038 617.282C113.855 617.559 113.671 617.836 113.488 618.114L118.493 621.422C118.676 621.145 118.859 620.869 119.042 620.592L114.038 617.282ZM110.743 622.273C110.56 622.55 110.377 622.827 110.195 623.104L115.206 626.404C115.388 626.128 115.57 625.851 115.753 625.574L110.743 622.273ZM107.427 627.315C107.243 627.595 107.059 627.876 106.875 628.157L111.892 631.447C112.076 631.167 112.26 630.886 112.444 630.606L107.427 627.315ZM104.119 632.368C103.936 632.649 103.753 632.93 103.57 633.21L108.595 636.488C108.778 636.208 108.961 635.928 109.143 635.648L104.119 632.368ZM100.831 637.419C100.649 637.699 100.467 637.98 100.285 638.26L105.319 641.525C105.501 641.245 105.682 640.965 105.864 640.686L100.831 637.419ZM97.5649 642.466C97.3841 642.746 97.2034 643.027 97.0228 643.307L102.066 646.557C102.246 646.277 102.427 645.998 102.607 645.718L97.5649 642.466ZM94.3223 647.51C94.1428 647.79 93.9635 648.07 93.7843 648.351L98.8384 651.584C99.017 651.305 99.1958 651.026 99.3746 650.746L94.3223 647.51ZM91.1052 652.551C90.9273 652.831 90.7494 653.111 90.5717 653.391L95.6373 656.607C95.8143 656.328 95.9915 656.049 96.1688 655.77L91.1052 652.551ZM87.8954 657.622C87.7155 657.908 87.5357 658.193 87.356 658.479L92.434 661.674C92.613 661.39 92.7921 661.106 92.9713 660.821L87.8954 657.622ZM84.6719 662.76C84.4937 663.045 84.3157 663.331 84.1378 663.616L89.2294 666.79C89.4065 666.506 89.5838 666.222 89.7612 665.938L84.6719 662.76ZM81.481 667.896C81.3047 668.181 81.1285 668.466 80.9525 668.751L86.0586 671.902C86.2338 671.618 86.4092 671.334 86.5847 671.05L81.481 667.896ZM78.3248 673.029C78.1505 673.314 77.9763 673.599 77.8023 673.884L82.9238 677.01C83.097 676.726 83.2702 676.443 83.4437 676.159L78.3248 673.029ZM75.2053 678.16C75.033 678.445 74.8609 678.731 74.689 679.016L79.827 682.114C79.998 681.831 80.1691 681.547 80.3404 681.264L75.2053 678.16ZM72.1245 683.29C71.9544 683.575 71.7846 683.86 71.6149 684.145L76.7702 687.215C76.9388 686.931 77.1077 686.648 77.2768 686.365L72.1245 683.29ZM69.0844 688.418C68.9128 688.71 68.7414 689.001 68.5703 689.293L73.7438 692.332C73.9139 692.042 74.0843 691.752 74.2548 691.463L69.0844 688.418ZM66.0118 693.675C65.8423 693.967 65.673 694.26 65.504 694.552L70.6972 697.557C70.8651 697.267 71.0333 696.976 71.2017 696.686L66.0118 693.675ZM62.985 698.933C62.8182 699.225 62.6517 699.518 62.4853 699.81L67.6991 702.779C67.8642 702.489 68.0297 702.199 68.1953 701.909L62.985 698.933ZM60.0077 704.19C59.8437 704.483 59.6799 704.775 59.5164 705.067L64.7517 707.998C64.914 707.708 65.0765 707.418 65.2393 707.128L60.0077 704.19ZM57.0819 709.447C56.9209 709.739 56.7601 710.031 56.5995 710.323L61.8571 713.214C62.0164 712.924 62.1759 712.635 62.3357 712.345L57.0819 709.447ZM54.21 714.703C54.052 714.995 53.8942 715.287 53.7367 715.579L59.0175 718.427C59.1737 718.138 59.3302 717.848 59.4869 717.559L54.21 714.703ZM51.3941 719.959C51.2392 720.251 51.0846 720.543 50.9303 720.835L56.2352 723.638C56.3881 723.349 56.5414 723.06 56.6949 722.77L51.3941 719.959ZM48.5699 725.343C48.4139 725.644 48.2582 725.945 48.1027 726.246L53.4332 729C53.5872 728.702 53.7415 728.404 53.8961 728.106L48.5699 725.343ZM45.7939 730.758C45.6415 731.059 45.4894 731.36 45.3376 731.66L50.6944 734.363C50.8447 734.065 50.9954 733.767 51.1463 733.469L45.7939 730.758ZM43.0844 736.173C42.9358 736.474 42.7875 736.775 42.6395 737.076L48.0235 739.724C48.17 739.426 48.3167 739.128 48.4639 738.831L43.0844 736.173ZM40.444 741.589C40.2992 741.89 40.1548 742.191 40.0108 742.492L45.4226 745.083C45.5651 744.785 45.7079 744.488 45.8511 744.19L40.444 741.589ZM37.8749 747.007C37.7342 747.308 37.5939 747.609 37.4539 747.91L42.8942 750.44C43.0326 750.143 43.1714 749.845 43.3105 749.547L37.8749 747.007ZM35.3797 752.426C35.2432 752.727 35.107 753.028 34.9712 753.329L40.4405 755.796C40.5747 755.498 40.7093 755.201 40.8442 754.903L35.3797 752.426ZM32.8983 757.989C32.7619 758.299 32.6259 758.61 32.4903 758.921L37.9901 761.32C38.124 761.013 38.2583 760.706 38.393 760.399L32.8983 757.989ZM30.4861 763.586C30.3544 763.897 30.2232 764.208 30.0924 764.519L35.6231 766.845C35.7522 766.538 35.8817 766.231 36.0116 765.924L30.4861 763.586ZM28.1605 769.186C28.0337 769.497 27.9074 769.808 27.7815 770.119L33.3434 772.37C33.4676 772.063 33.5922 771.756 33.7172 771.449L28.1605 769.186ZM25.9241 774.788C25.8024 775.1 25.6811 775.411 25.5603 775.722L31.1537 777.894C31.2728 777.587 31.3923 777.28 31.5123 776.973L25.9241 774.788ZM23.7798 780.394C23.6633 780.705 23.5472 781.017 23.4315 781.328L29.0565 783.417C29.1704 783.11 29.2847 782.803 29.3995 782.496L23.7798 780.394ZM21.7296 786.004C21.615 786.325 21.5008 786.647 21.3872 786.968L27.0438 788.969C27.1556 788.653 27.268 788.336 27.3808 788.02L21.7296 786.004ZM19.7187 791.79C19.6099 792.111 19.5016 792.433 19.3938 792.754L25.0827 794.661C25.1887 794.345 25.2952 794.029 25.4022 793.713L19.7187 791.79ZM17.8143 797.579C17.7115 797.901 17.6092 798.222 17.5075 798.544L23.2282 800.354C23.3282 800.037 23.4287 799.721 23.5297 799.405L17.8143 797.579ZM16.0193 803.373C15.9226 803.695 15.8265 804.017 15.7309 804.339L21.4829 806.046C21.5768 805.73 21.6712 805.414 21.7661 805.097L16.0193 803.373ZM14.3366 809.171C14.2463 809.494 14.1565 809.816 14.0673 810.138L19.8498 811.739C19.9374 811.423 20.0255 811.106 20.1141 810.79L14.3366 809.171ZM12.7693 814.975C12.6855 815.297 12.6023 815.62 12.5196 815.943L18.3316 817.433C18.4127 817.116 18.4943 816.8 18.5765 816.484L12.7693 814.975ZM11.3078 820.836C11.2288 821.167 11.1505 821.498 11.0727 821.829L16.9134 823.202C16.9896 822.878 17.0664 822.554 17.1437 822.23L11.3078 820.836ZM9.9508 826.791C9.87901 827.122 9.80782 827.453 9.73724 827.785L15.6054 829.036C15.6745 828.711 15.7442 828.387 15.8145 828.063L9.9508 826.791ZM8.72435 832.753C8.6599 833.084 8.59607 833.415 8.53287 833.747L14.4266 834.871C14.4885 834.547 14.5509 834.222 14.614 833.898L8.72435 832.753ZM7.63168 838.72C7.57476 839.052 7.51847 839.383 7.46281 839.715L13.3801 840.708C13.4345 840.384 13.4896 840.059 13.5452 839.735L7.63168 838.72ZM6.67603 844.694C6.62681 845.026 6.57823 845.358 6.53031 845.69L12.4688 846.547C12.5156 846.223 12.5631 845.898 12.6112 845.574L6.67603 844.694ZM5.86063 850.675C5.81917 851.008 5.77837 851.342 5.73825 851.675L11.6953 852.392C11.7345 852.066 11.7743 851.741 11.8148 851.415L5.86063 850.675ZM5.18299 856.72C5.14942 857.057 5.11655 857.393 5.08437 857.73L11.0571 858.301C11.0885 857.972 11.1206 857.644 11.1534 857.316L5.18299 856.72ZM4.65433 862.781C4.62919 863.118 4.60475 863.455 4.58103 863.792L10.5662 864.213C10.5893 863.884 10.6132 863.556 10.6377 863.227L4.65433 862.781ZM4.27897 868.849C4.26244 869.186 4.24663 869.524 4.23155 869.861L10.2256 870.129C10.2403 869.8 10.2557 869.472 10.2718 869.143L4.27897 868.849ZM4.06026 874.925C4.05252 875.263 4.04553 875.601 4.03927 875.938L10.0382 876.05C10.0443 875.72 10.0512 875.391 10.0587 875.062L4.06026 874.925ZM4.00152 881.009C4.00276 881.347 4.00476 881.685 4.00752 882.024L10.0073 881.975C10.0046 881.645 10.0027 881.316 10.0015 880.987L4.00152 881.009ZM4.10531 887.076C4.11558 887.412 4.12661 887.747 4.1384 888.083L10.1347 887.872C10.1232 887.546 10.1125 887.219 10.1025 886.893L4.10531 887.076ZM4.3725 893.12C4.39194 893.456 4.41216 893.792 4.43315 894.128L10.4215 893.754C10.4011 893.427 10.3814 893.1 10.3625 892.773L4.3725 893.12ZM4.8064 899.172C4.83519 899.508 4.86478 899.845 4.89515 900.181L10.8709 899.642C10.8413 899.315 10.8125 898.987 10.7845 898.66L4.8064 899.172ZM5.41018 905.232C5.44851 905.569 5.48763 905.906 5.52755 906.243L11.4859 905.537C11.447 905.209 11.409 904.881 11.3717 904.554L5.41018 905.232ZM6.18701 911.3C6.23503 911.637 6.28387 911.975 6.33353 912.312L12.2696 911.438C12.2213 911.11 12.1738 910.782 12.1271 910.454L6.18701 911.3ZM7.14 917.376C7.19657 917.706 7.25394 918.036 7.3121 918.366L13.2211 917.325C13.1646 917.004 13.1088 916.683 13.0538 916.362L7.14 917.376ZM8.23294 923.264C8.29824 923.591 8.36434 923.918 8.43123 924.244L14.3094 923.041C14.2443 922.723 14.18 922.406 14.1165 922.088L8.23294 923.264ZM9.49398 929.149C9.56881 929.476 9.64443 929.803 9.72086 930.13L15.5636 928.765C15.4892 928.447 15.4157 928.129 15.3429 927.811L9.49398 929.149ZM10.9278 935.041C11.0123 935.369 11.0976 935.696 11.1838 936.024L16.9866 934.498C16.9028 934.179 16.8198 933.861 16.7376 933.542L10.9278 935.041ZM12.5372 940.941C12.6315 941.269 12.7267 941.597 12.8227 941.925L18.5813 940.24C18.4878 939.921 18.3952 939.602 18.3035 939.283L12.5372 940.941ZM14.3249 946.849C14.4292 947.177 14.5343 947.506 14.6403 947.834L20.3505 945.992C20.2473 945.672 20.1449 945.352 20.0434 945.033L14.3249 946.849ZM16.2615 952.673C16.369 952.982 16.4772 953.291 16.5861 953.6L22.2452 951.607C22.1391 951.305 22.0337 951.004 21.929 950.703L16.2615 952.673ZM18.2772 958.242C18.3937 958.551 18.511 958.861 18.6291 959.171L24.2354 957.033C24.1204 956.732 24.0061 956.43 23.8926 956.128L18.2772 958.242ZM20.4574 963.818C20.5832 964.128 20.7097 964.438 20.8369 964.748L26.3875 962.47C26.2634 962.167 26.14 961.865 26.0175 961.563L20.4574 963.818ZM22.8044 969.402C22.9395 969.712 23.0753 970.023 23.2119 970.333L28.7037 967.916C28.5704 967.613 28.4379 967.311 28.3062 967.008L22.8044 969.402ZM25.3204 974.993C25.4649 975.303 25.6102 975.614 25.7563 975.925L31.1866 973.373C31.044 973.07 30.9021 972.766 30.7611 972.463L25.3204 974.993ZM28.0076 980.591C28.1617 980.902 28.3166 981.213 28.4723 981.525L33.8385 978.841C33.6865 978.537 33.5352 978.233 33.3847 977.929L28.0076 980.591ZM30.8166 986.099C30.9668 986.385 31.1177 986.671 31.2693 986.957L36.5714 984.149C36.4233 983.869 36.2759 983.589 36.1291 983.31L30.8166 986.099ZM33.5944 991.252C33.7529 991.538 33.912 991.825 34.0719 992.111L39.3116 989.188C39.1553 988.908 38.9996 988.628 38.8447 988.347L33.5944 991.252ZM36.5218 996.411C36.6886 996.698 36.8562 996.985 37.0244 997.272L42.2002 994.237C42.0356 993.956 41.8716 993.675 41.7084 993.395L36.5218 996.411ZM39.6006 1001.58C39.7759 1001.86 39.9518 1002.15 40.1285 1002.44L45.2391 999.296C45.0661 999.015 44.8938 998.733 44.7222 998.452L39.6006 1001.58ZM42.8324 1006.75C43.0162 1007.04 43.2008 1007.33 43.386 1007.61L48.4304 1004.37C48.2488 1004.08 48.068 1003.8 47.8879 1003.52L42.8324 1006.75ZM46.219 1011.93C46.4115 1012.22 46.6047 1012.51 46.7986 1012.8L51.7758 1009.44C51.5856 1009.16 51.3962 1008.88 51.2075 1008.6L46.219 1011.93ZM49.7621 1017.12C49.9633 1017.41 50.1652 1017.7 50.3679 1017.98L55.2773 1014.53C55.0784 1014.25 54.8802 1013.97 54.6828 1013.69L49.7621 1017.12ZM53.2312 1021.99C53.4202 1022.25 53.6097 1022.52 53.7998 1022.78L58.6461 1019.24C58.4594 1018.98 58.2733 1018.73 58.0878 1018.47L53.2312 1021.99ZM56.6976 1026.69C56.8938 1026.95 57.0906 1027.21 57.2881 1027.47L62.0724 1023.85C61.8784 1023.59 61.685 1023.33 61.4923 1023.08L56.6976 1026.69ZM60.2953 1031.38C60.4988 1031.64 60.703 1031.91 60.9077 1032.17L65.6298 1028.47C65.4285 1028.21 65.2278 1027.95 65.0278 1027.7L60.2953 1031.38ZM64.0255 1036.09C64.2364 1036.35 64.448 1036.61 64.6601 1036.87L69.3199 1033.09C69.1112 1032.84 68.9031 1032.58 68.6957 1032.32L64.0255 1036.09ZM67.8894 1040.8C68.1078 1041.06 68.3268 1041.32 68.5465 1041.58L73.144 1037.73C72.9278 1037.47 72.7123 1037.21 72.4973 1036.96L67.8894 1040.8ZM71.8885 1045.52C72.1144 1045.78 72.3409 1046.04 72.5681 1046.3L77.1035 1042.37C76.8798 1042.12 76.6567 1041.86 76.4342 1041.6L71.8885 1045.52ZM76.0238 1050.24C76.2573 1050.5 76.4915 1050.77 76.7264 1051.03L81.1998 1047.03C80.9684 1046.77 80.7376 1046.51 80.5075 1046.25L76.0238 1050.24ZM80.1453 1054.81C80.3603 1055.04 80.5758 1055.28 80.7918 1055.51L85.2068 1051.45C84.9938 1051.22 84.7814 1050.98 84.5694 1050.75L80.1453 1054.81ZM84.0705 1059.03C84.2916 1059.27 84.5133 1059.5 84.7354 1059.74L89.0957 1055.62C88.8765 1055.38 88.6579 1055.15 88.4398 1054.92L84.0705 1059.03ZM88.107 1063.27C88.3344 1063.5 88.5623 1063.74 88.7907 1063.97L93.0965 1059.79C92.8711 1059.56 92.6463 1059.33 92.4219 1059.1L88.107 1063.27ZM92.2559 1067.5C92.4896 1067.74 92.7237 1067.98 92.9584 1068.21L97.2102 1063.98C96.9785 1063.74 96.7473 1063.51 96.5167 1063.28L92.2559 1067.5ZM96.5182 1071.75C96.7581 1071.98 96.9985 1072.22 97.2395 1072.46L101.438 1068.17C101.2 1067.94 100.962 1067.7 100.725 1067.47L96.5182 1071.75ZM100.895 1076C101.141 1076.24 101.388 1076.47 101.635 1076.71L105.78 1072.37C105.536 1072.14 105.292 1071.9 105.048 1071.67L100.895 1076ZM105.386 1080.26C105.639 1080.49 105.892 1080.73 106.146 1080.97L110.238 1076.58C109.987 1076.34 109.737 1076.11 109.487 1075.88L105.386 1080.26ZM109.993 1084.52C110.253 1084.76 110.512 1084.99 110.773 1085.23L114.813 1080.79C114.556 1080.56 114.299 1080.33 114.042 1080.09L109.993 1084.52ZM114.644 1088.72C114.88 1088.93 115.116 1089.14 115.352 1089.36L119.343 1084.87C119.109 1084.67 118.875 1084.46 118.642 1084.25L114.644 1088.72ZM118.935 1092.52C119.176 1092.73 119.417 1092.94 119.659 1093.15L123.604 1088.63C123.365 1088.42 123.126 1088.21 122.887 1088L118.935 1092.52ZM123.319 1096.32C123.565 1096.53 123.812 1096.74 124.059 1096.95L127.959 1092.39C127.715 1092.18 127.471 1091.98 127.227 1091.77L123.319 1096.32ZM127.798 1100.13C128.049 1100.34 128.301 1100.55 128.553 1100.76L132.41 1096.16C132.16 1095.95 131.91 1095.74 131.661 1095.53L127.798 1100.13ZM132.371 1103.94C132.628 1104.15 132.885 1104.36 133.143 1104.57L136.955 1099.94C136.7 1099.73 136.445 1099.52 136.191 1099.31L132.371 1103.94ZM137.04 1107.75C137.302 1107.97 137.565 1108.18 137.828 1108.39L141.597 1103.72C141.336 1103.51 141.076 1103.3 140.816 1103.09L137.04 1107.75ZM141.805 1111.58C142.073 1111.79 142.341 1112 142.609 1112.21L146.335 1107.51C146.069 1107.3 145.804 1107.09 145.538 1106.88L141.805 1111.58ZM146.667 1115.41C146.94 1115.62 147.213 1115.83 147.487 1116.04L151.171 1111.31C150.899 1111.1 150.628 1110.89 150.358 1110.67L146.667 1115.41ZM151.627 1119.24C151.905 1119.45 152.183 1119.67 152.462 1119.88L156.105 1115.11C155.828 1114.9 155.551 1114.69 155.275 1114.48L151.627 1119.24ZM156.684 1123.08C156.825 1123.19 156.967 1123.29 157.108 1123.4L160.713 1118.6C160.572 1118.5 160.432 1118.39 160.292 1118.29L156.684 1123.08Z" fill="black"/>
</g>
<defs>
<filter id="filter0_d" x="0.00146484" y="0.931244" width="284.998" height="1134.86" filterUnits="userSpaceOnUse" color-interpolation-filters="sRGB">
<feFlood flood-opacity="0" result="BackgroundImageFix"/>
<feColorMatrix in="SourceAlpha" type="matrix" values="0 0 0 0 0 0 0 0 0 0 0 0 0 0 0 0 0 0 127 0"/>
<feOffset dy="4"/>
<feGaussianBlur stdDeviation="2"/>
<feColorMatrix type="matrix" values="0 0 0 0 0 0 0 0 0 0 0 0 0 0 0 0 0 0 0.25 0"/>
<feBlend mode="normal" in2="BackgroundImageFix" result="effect1_dropShadow"/>
<feBlend mode="normal" in="SourceGraphic" in2="effect1_dropShadow" result="shape"/>
</filter>
</defs>
</svg>
