<svg width="1764" height="465" viewBox="0 0 1764 465" fill="none" xmlns="http://www.w3.org/2000/svg">
<path d="M1263.25 0L1549.22 232.5L1835.2 465H691.3L1263.25 0Z" fill="#58511C"/>
<path d="M1049.35 0L1621.3 465H477.4L1049.35 0Z" fill="#F3B024"/>
<path d="M810.65 0L1382.6 465H238.7L810.65 0Z" fill="#9C8E5E"/>
<path d="M571.95 0L1143.9 465H0L571.95 0Z" fill="#D17428"/>
<path d="M835.985 162H833.463V143.371H835.985V162ZM845.201 162V148.831H846.592C846.921 148.831 847.125 148.991 847.203 149.312L847.372 150.664C847.857 150.066 848.403 149.576 849.01 149.195C849.617 148.814 850.319 148.623 851.116 148.623C852 148.623 852.715 148.87 853.261 149.364C853.816 149.858 854.214 150.525 854.457 151.366C854.648 150.889 854.89 150.478 855.185 150.131C855.488 149.784 855.826 149.498 856.199 149.273C856.572 149.048 856.966 148.883 857.382 148.779C857.807 148.675 858.236 148.623 858.669 148.623C859.362 148.623 859.978 148.736 860.515 148.961C861.061 149.178 861.52 149.498 861.893 149.923C862.274 150.348 862.565 150.872 862.764 151.496C862.963 152.111 863.063 152.818 863.063 153.615V162H860.736V153.615C860.736 152.584 860.511 151.804 860.06 151.275C859.609 150.738 858.959 150.469 858.11 150.469C857.729 150.469 857.365 150.538 857.018 150.677C856.68 150.807 856.381 151.002 856.121 151.262C855.861 151.522 855.653 151.851 855.497 152.25C855.35 152.64 855.276 153.095 855.276 153.615V162H852.949V153.615C852.949 152.558 852.737 151.769 852.312 151.249C851.887 150.729 851.268 150.469 850.453 150.469C849.881 150.469 849.352 150.625 848.867 150.937C848.382 151.24 847.935 151.656 847.528 152.185V162H845.201ZM874.107 158.828C874.532 159.4 874.995 159.803 875.498 160.037C876.001 160.271 876.564 160.388 877.188 160.388C878.419 160.388 879.363 159.95 880.022 159.075C880.681 158.2 881.01 156.952 881.01 155.331C881.01 154.473 880.932 153.736 880.776 153.121C880.629 152.506 880.412 152.003 880.126 151.613C879.84 151.214 879.489 150.924 879.073 150.742C878.657 150.56 878.185 150.469 877.656 150.469C876.902 150.469 876.239 150.642 875.667 150.989C875.104 151.336 874.584 151.825 874.107 152.458V158.828ZM873.99 150.872C874.545 150.187 875.186 149.637 875.914 149.221C876.642 148.805 877.474 148.597 878.41 148.597C879.173 148.597 879.862 148.744 880.477 149.039C881.092 149.325 881.617 149.754 882.05 150.326C882.483 150.889 882.817 151.591 883.051 152.432C883.285 153.273 883.402 154.239 883.402 155.331C883.402 156.302 883.272 157.207 883.012 158.048C882.752 158.88 882.375 159.604 881.881 160.219C881.396 160.826 880.798 161.307 880.087 161.662C879.385 162.009 878.592 162.182 877.708 162.182C876.902 162.182 876.209 162.048 875.628 161.779C875.056 161.502 874.549 161.12 874.107 160.635V166.459H871.78V148.831H873.171C873.5 148.831 873.704 148.991 873.782 149.312L873.99 150.872ZM893.751 151.47C894.167 150.569 894.679 149.867 895.285 149.364C895.892 148.853 896.633 148.597 897.508 148.597C897.786 148.597 898.05 148.627 898.301 148.688C898.561 148.749 898.791 148.844 898.99 148.974L898.821 150.703C898.769 150.92 898.639 151.028 898.431 151.028C898.31 151.028 898.132 151.002 897.898 150.95C897.664 150.898 897.4 150.872 897.105 150.872C896.689 150.872 896.317 150.933 895.987 151.054C895.667 151.175 895.376 151.357 895.116 151.6C894.865 151.834 894.635 152.129 894.427 152.484C894.228 152.831 894.046 153.229 893.881 153.68V162H891.554V148.831H892.88C893.132 148.831 893.305 148.879 893.4 148.974C893.496 149.069 893.561 149.234 893.595 149.468L893.751 151.47ZM914.506 153.979C914.506 153.442 914.428 152.952 914.272 152.51C914.124 152.059 913.903 151.674 913.609 151.353C913.323 151.024 912.972 150.772 912.556 150.599C912.14 150.417 911.667 150.326 911.139 150.326C910.029 150.326 909.15 150.651 908.5 151.301C907.858 151.942 907.46 152.835 907.304 153.979H914.506ZM916.378 160.154C916.092 160.501 915.749 160.804 915.351 161.064C914.952 161.315 914.523 161.523 914.064 161.688C913.613 161.853 913.145 161.974 912.66 162.052C912.174 162.139 911.693 162.182 911.217 162.182C910.307 162.182 909.466 162.03 908.695 161.727C907.932 161.415 907.269 160.964 906.706 160.375C906.151 159.777 905.718 159.04 905.406 158.165C905.094 157.29 904.938 156.284 904.938 155.149C904.938 154.23 905.076 153.372 905.354 152.575C905.64 151.778 906.047 151.089 906.576 150.508C907.104 149.919 907.75 149.459 908.513 149.13C909.275 148.792 910.133 148.623 911.087 148.623C911.875 148.623 912.603 148.757 913.271 149.026C913.947 149.286 914.527 149.667 915.013 150.17C915.507 150.664 915.892 151.279 916.17 152.016C916.447 152.744 916.586 153.576 916.586 154.512C916.586 154.876 916.547 155.119 916.469 155.24C916.391 155.361 916.243 155.422 916.027 155.422H907.226C907.252 156.254 907.364 156.978 907.564 157.593C907.772 158.208 908.058 158.724 908.422 159.14C908.786 159.547 909.219 159.855 909.722 160.063C910.224 160.262 910.788 160.362 911.412 160.362C911.992 160.362 912.491 160.297 912.907 160.167C913.331 160.028 913.695 159.881 913.999 159.725C914.302 159.569 914.553 159.426 914.753 159.296C914.961 159.157 915.138 159.088 915.286 159.088C915.476 159.088 915.624 159.162 915.728 159.309L916.378 160.154ZM932.298 151.002C932.194 151.193 932.034 151.288 931.817 151.288C931.687 151.288 931.54 151.24 931.375 151.145C931.21 151.05 931.007 150.946 930.764 150.833C930.53 150.712 930.248 150.603 929.919 150.508C929.59 150.404 929.2 150.352 928.749 150.352C928.359 150.352 928.008 150.404 927.696 150.508C927.384 150.603 927.115 150.738 926.89 150.911C926.673 151.084 926.504 151.288 926.383 151.522C926.27 151.747 926.214 151.994 926.214 152.263C926.214 152.601 926.309 152.883 926.5 153.108C926.699 153.333 926.959 153.528 927.28 153.693C927.601 153.858 927.965 154.005 928.372 154.135C928.779 154.256 929.195 154.391 929.62 154.538C930.053 154.677 930.474 154.833 930.881 155.006C931.288 155.179 931.652 155.396 931.973 155.656C932.294 155.916 932.549 156.237 932.74 156.618C932.939 156.991 933.039 157.441 933.039 157.97C933.039 158.577 932.931 159.14 932.714 159.66C932.497 160.171 932.177 160.618 931.752 160.999C931.327 161.372 930.807 161.666 930.192 161.883C929.577 162.1 928.866 162.208 928.06 162.208C927.141 162.208 926.309 162.061 925.564 161.766C924.819 161.463 924.186 161.077 923.666 160.609L924.212 159.725C924.281 159.612 924.364 159.526 924.459 159.465C924.554 159.404 924.676 159.374 924.823 159.374C924.979 159.374 925.144 159.435 925.317 159.556C925.49 159.677 925.698 159.812 925.941 159.959C926.192 160.106 926.496 160.241 926.851 160.362C927.206 160.483 927.648 160.544 928.177 160.544C928.628 160.544 929.022 160.488 929.36 160.375C929.698 160.254 929.98 160.093 930.205 159.894C930.43 159.695 930.595 159.465 930.699 159.205C930.812 158.945 930.868 158.668 930.868 158.373C930.868 158.009 930.768 157.71 930.569 157.476C930.378 157.233 930.123 157.03 929.802 156.865C929.481 156.692 929.113 156.544 928.697 156.423C928.29 156.293 927.869 156.159 927.436 156.02C927.011 155.881 926.591 155.725 926.175 155.552C925.768 155.37 925.404 155.145 925.083 154.876C924.762 154.607 924.502 154.278 924.303 153.888C924.112 153.489 924.017 153.008 924.017 152.445C924.017 151.942 924.121 151.461 924.329 151.002C924.537 150.534 924.84 150.127 925.239 149.78C925.638 149.425 926.127 149.143 926.708 148.935C927.289 148.727 927.952 148.623 928.697 148.623C929.564 148.623 930.339 148.762 931.024 149.039C931.717 149.308 932.315 149.68 932.818 150.157L932.298 151.002ZM948.746 151.002C948.642 151.193 948.482 151.288 948.265 151.288C948.135 151.288 947.988 151.24 947.823 151.145C947.658 151.05 947.455 150.946 947.212 150.833C946.978 150.712 946.696 150.603 946.367 150.508C946.038 150.404 945.648 150.352 945.197 150.352C944.807 150.352 944.456 150.404 944.144 150.508C943.832 150.603 943.563 150.738 943.338 150.911C943.121 151.084 942.952 151.288 942.831 151.522C942.718 151.747 942.662 151.994 942.662 152.263C942.662 152.601 942.757 152.883 942.948 153.108C943.147 153.333 943.407 153.528 943.728 153.693C944.049 153.858 944.413 154.005 944.82 154.135C945.227 154.256 945.643 154.391 946.068 154.538C946.501 154.677 946.922 154.833 947.329 155.006C947.736 155.179 948.1 155.396 948.421 155.656C948.742 155.916 948.997 156.237 949.188 156.618C949.387 156.991 949.487 157.441 949.487 157.97C949.487 158.577 949.379 159.14 949.162 159.66C948.945 160.171 948.625 160.618 948.2 160.999C947.775 161.372 947.255 161.666 946.64 161.883C946.025 162.1 945.314 162.208 944.508 162.208C943.589 162.208 942.757 162.061 942.012 161.766C941.267 161.463 940.634 161.077 940.114 160.609L940.66 159.725C940.729 159.612 940.812 159.526 940.907 159.465C941.002 159.404 941.124 159.374 941.271 159.374C941.427 159.374 941.592 159.435 941.765 159.556C941.938 159.677 942.146 159.812 942.389 159.959C942.64 160.106 942.944 160.241 943.299 160.362C943.654 160.483 944.096 160.544 944.625 160.544C945.076 160.544 945.47 160.488 945.808 160.375C946.146 160.254 946.428 160.093 946.653 159.894C946.878 159.695 947.043 159.465 947.147 159.205C947.26 158.945 947.316 158.668 947.316 158.373C947.316 158.009 947.216 157.71 947.017 157.476C946.826 157.233 946.571 157.03 946.25 156.865C945.929 156.692 945.561 156.544 945.145 156.423C944.738 156.293 944.317 156.159 943.884 156.02C943.459 155.881 943.039 155.725 942.623 155.552C942.216 155.37 941.852 155.145 941.531 154.876C941.21 154.607 940.95 154.278 940.751 153.888C940.56 153.489 940.465 153.008 940.465 152.445C940.465 151.942 940.569 151.461 940.777 151.002C940.985 150.534 941.288 150.127 941.687 149.78C942.086 149.425 942.575 149.143 943.156 148.935C943.737 148.727 944.4 148.623 945.145 148.623C946.012 148.623 946.787 148.762 947.472 149.039C948.165 149.308 948.763 149.68 949.266 150.157L948.746 151.002ZM968.353 148.831V162H966.975C966.646 162 966.438 161.84 966.351 161.519L966.169 160.102C965.597 160.735 964.956 161.246 964.245 161.636C963.535 162.017 962.72 162.208 961.801 162.208C961.082 162.208 960.445 162.091 959.89 161.857C959.344 161.614 958.885 161.276 958.512 160.843C958.14 160.41 957.858 159.885 957.667 159.27C957.485 158.655 957.394 157.974 957.394 157.229V148.831H959.708V157.229C959.708 158.226 959.934 158.997 960.384 159.543C960.844 160.089 961.541 160.362 962.477 160.362C963.162 160.362 963.799 160.202 964.388 159.881C964.986 159.552 965.537 159.101 966.039 158.529V148.831H968.353ZM977.222 162V148.831H978.613C978.943 148.831 979.146 148.991 979.224 149.312L979.393 150.664C979.879 150.066 980.425 149.576 981.031 149.195C981.638 148.814 982.34 148.623 983.137 148.623C984.021 148.623 984.736 148.87 985.282 149.364C985.837 149.858 986.236 150.525 986.478 151.366C986.669 150.889 986.912 150.478 987.206 150.131C987.51 149.784 987.848 149.498 988.22 149.273C988.593 149.048 988.987 148.883 989.403 148.779C989.828 148.675 990.257 148.623 990.69 148.623C991.384 148.623 991.999 148.736 992.536 148.961C993.082 149.178 993.542 149.498 993.914 149.923C994.296 150.348 994.586 150.872 994.785 151.496C994.985 152.111 995.084 152.818 995.084 153.615V162H992.757V153.615C992.757 152.584 992.532 151.804 992.081 151.275C991.631 150.738 990.981 150.469 990.131 150.469C989.75 150.469 989.386 150.538 989.039 150.677C988.701 150.807 988.402 151.002 988.142 151.262C987.882 151.522 987.674 151.851 987.518 152.25C987.371 152.64 987.297 153.095 987.297 153.615V162H984.97V153.615C984.97 152.558 984.758 151.769 984.333 151.249C983.909 150.729 983.289 150.469 982.474 150.469C981.902 150.469 981.374 150.625 980.888 150.937C980.403 151.24 979.957 151.656 979.549 152.185V162H977.222ZM868.702 204.152C868.841 204.152 868.962 204.208 869.066 204.321L870.067 205.4C869.304 206.284 868.377 206.973 867.285 207.467C866.202 207.961 864.889 208.208 863.346 208.208C862.011 208.208 860.798 207.978 859.706 207.519C858.614 207.051 857.682 206.401 856.911 205.569C856.14 204.728 855.542 203.723 855.117 202.553C854.692 201.383 854.48 200.096 854.48 198.692C854.48 197.288 854.701 196.001 855.143 194.831C855.585 193.661 856.205 192.656 857.002 191.815C857.808 190.974 858.77 190.324 859.888 189.865C861.006 189.397 862.241 189.163 863.593 189.163C864.919 189.163 866.089 189.375 867.103 189.8C868.117 190.225 869.01 190.801 869.781 191.529L868.949 192.686C868.897 192.773 868.828 192.846 868.741 192.907C868.663 192.959 868.555 192.985 868.416 192.985C868.26 192.985 868.069 192.903 867.844 192.738C867.619 192.565 867.324 192.374 866.96 192.166C866.596 191.958 866.141 191.772 865.595 191.607C865.049 191.434 864.377 191.347 863.58 191.347C862.618 191.347 861.738 191.516 860.941 191.854C860.144 192.183 859.455 192.664 858.874 193.297C858.302 193.93 857.856 194.701 857.535 195.611C857.214 196.521 857.054 197.548 857.054 198.692C857.054 199.853 857.219 200.889 857.548 201.799C857.886 202.709 858.341 203.48 858.913 204.113C859.494 204.737 860.174 205.214 860.954 205.543C861.743 205.872 862.592 206.037 863.502 206.037C864.057 206.037 864.555 206.007 864.997 205.946C865.448 205.877 865.859 205.773 866.232 205.634C866.613 205.495 866.964 205.322 867.285 205.114C867.614 204.897 867.939 204.642 868.26 204.347C868.407 204.217 868.555 204.152 868.702 204.152ZM882.942 194.623C883.904 194.623 884.771 194.783 885.542 195.104C886.314 195.425 886.972 195.88 887.518 196.469C888.064 197.058 888.48 197.773 888.766 198.614C889.061 199.446 889.208 200.378 889.208 201.409C889.208 202.449 889.061 203.385 888.766 204.217C888.48 205.049 888.064 205.76 887.518 206.349C886.972 206.938 886.314 207.393 885.542 207.714C884.771 208.026 883.904 208.182 882.942 208.182C881.972 208.182 881.096 208.026 880.316 207.714C879.545 207.393 878.886 206.938 878.34 206.349C877.794 205.76 877.374 205.049 877.079 204.217C876.793 203.385 876.65 202.449 876.65 201.409C876.65 200.378 876.793 199.446 877.079 198.614C877.374 197.773 877.794 197.058 878.34 196.469C878.886 195.88 879.545 195.425 880.316 195.104C881.096 194.783 881.972 194.623 882.942 194.623ZM882.942 206.375C884.242 206.375 885.213 205.942 885.854 205.075C886.496 204.2 886.816 202.982 886.816 201.422C886.816 199.853 886.496 198.631 885.854 197.756C885.213 196.881 884.242 196.443 882.942 196.443C882.284 196.443 881.707 196.556 881.213 196.781C880.728 197.006 880.321 197.331 879.991 197.756C879.671 198.181 879.428 198.705 879.263 199.329C879.107 199.944 879.029 200.642 879.029 201.422C879.029 202.982 879.35 204.2 879.991 205.075C880.641 205.942 881.625 206.375 882.942 206.375ZM899.527 196.742C899.813 196.421 900.117 196.131 900.437 195.871C900.758 195.611 901.096 195.39 901.451 195.208C901.815 195.017 902.197 194.874 902.595 194.779C903.003 194.675 903.44 194.623 903.908 194.623C904.628 194.623 905.26 194.744 905.806 194.987C906.361 195.221 906.82 195.559 907.184 196.001C907.557 196.434 907.839 196.959 908.029 197.574C908.22 198.189 908.315 198.87 908.315 199.615V208H905.988V199.615C905.988 198.618 905.759 197.847 905.299 197.301C904.849 196.746 904.16 196.469 903.232 196.469C902.548 196.469 901.906 196.634 901.308 196.963C900.719 197.292 900.173 197.739 899.67 198.302V208H897.343V194.831H898.734C899.064 194.831 899.267 194.991 899.345 195.312L899.527 196.742ZM920.907 208.208C919.867 208.208 919.065 207.918 918.502 207.337C917.947 206.756 917.67 205.92 917.67 204.828V196.768H916.084C915.945 196.768 915.828 196.729 915.733 196.651C915.637 196.564 915.59 196.434 915.59 196.261V195.338L917.748 195.065L918.281 190.996C918.307 190.866 918.363 190.762 918.45 190.684C918.545 190.597 918.666 190.554 918.814 190.554H919.984V195.091H923.793V196.768H919.984V204.672C919.984 205.227 920.118 205.638 920.387 205.907C920.655 206.176 921.002 206.31 921.427 206.31C921.669 206.31 921.877 206.28 922.051 206.219C922.233 206.15 922.389 206.076 922.519 205.998C922.649 205.92 922.757 205.851 922.844 205.79C922.939 205.721 923.021 205.686 923.091 205.686C923.212 205.686 923.32 205.76 923.416 205.907L924.092 207.012C923.693 207.385 923.212 207.679 922.649 207.896C922.085 208.104 921.505 208.208 920.907 208.208ZM938.519 202.072C937.453 202.107 936.543 202.193 935.789 202.332C935.044 202.462 934.433 202.635 933.956 202.852C933.488 203.069 933.146 203.324 932.929 203.619C932.721 203.914 932.617 204.243 932.617 204.607C932.617 204.954 932.673 205.253 932.786 205.504C932.899 205.755 933.05 205.963 933.241 206.128C933.44 206.284 933.67 206.401 933.93 206.479C934.199 206.548 934.485 206.583 934.788 206.583C935.195 206.583 935.568 206.544 935.906 206.466C936.244 206.379 936.56 206.258 936.855 206.102C937.158 205.946 937.444 205.76 937.713 205.543C937.99 205.326 938.259 205.079 938.519 204.802V202.072ZM931.044 196.69C931.772 195.988 932.556 195.464 933.397 195.117C934.238 194.77 935.169 194.597 936.192 194.597C936.929 194.597 937.583 194.718 938.155 194.961C938.727 195.204 939.208 195.542 939.598 195.975C939.988 196.408 940.283 196.933 940.482 197.548C940.681 198.163 940.781 198.839 940.781 199.576V208H939.754C939.529 208 939.355 207.965 939.234 207.896C939.113 207.818 939.017 207.671 938.948 207.454L938.688 206.206C938.341 206.527 938.003 206.813 937.674 207.064C937.345 207.307 936.998 207.515 936.634 207.688C936.27 207.853 935.88 207.978 935.464 208.065C935.057 208.16 934.602 208.208 934.099 208.208C933.588 208.208 933.107 208.139 932.656 208C932.205 207.853 931.811 207.636 931.473 207.35C931.144 207.064 930.879 206.704 930.68 206.271C930.489 205.829 930.394 205.309 930.394 204.711C930.394 204.191 930.537 203.693 930.823 203.216C931.109 202.731 931.573 202.302 932.214 201.929C932.855 201.556 933.692 201.253 934.723 201.019C935.754 200.776 937.02 200.638 938.519 200.603V199.576C938.519 198.553 938.298 197.782 937.856 197.262C937.414 196.733 936.768 196.469 935.919 196.469C935.347 196.469 934.866 196.543 934.476 196.69C934.095 196.829 933.761 196.989 933.475 197.171C933.198 197.344 932.955 197.505 932.747 197.652C932.548 197.791 932.348 197.86 932.149 197.86C931.993 197.86 931.859 197.821 931.746 197.743C931.633 197.656 931.538 197.552 931.46 197.431L931.044 196.69ZM958.671 197.171C958.602 197.266 958.532 197.34 958.463 197.392C958.394 197.444 958.298 197.47 958.177 197.47C958.047 197.47 957.904 197.418 957.748 197.314C957.592 197.201 957.397 197.08 957.163 196.95C956.938 196.82 956.656 196.703 956.318 196.599C955.989 196.486 955.581 196.43 955.096 196.43C954.446 196.43 953.874 196.547 953.38 196.781C952.886 197.006 952.47 197.336 952.132 197.769C951.803 198.202 951.551 198.727 951.378 199.342C951.213 199.957 951.131 200.646 951.131 201.409C951.131 202.206 951.222 202.917 951.404 203.541C951.586 204.156 951.842 204.676 952.171 205.101C952.509 205.517 952.912 205.838 953.38 206.063C953.857 206.28 954.39 206.388 954.979 206.388C955.542 206.388 956.006 206.323 956.37 206.193C956.734 206.054 957.033 205.903 957.267 205.738C957.51 205.573 957.709 205.426 957.865 205.296C958.03 205.157 958.19 205.088 958.346 205.088C958.537 205.088 958.684 205.162 958.788 205.309L959.438 206.154C959.152 206.509 958.827 206.813 958.463 207.064C958.099 207.315 957.705 207.528 957.28 207.701C956.864 207.866 956.426 207.987 955.967 208.065C955.508 208.143 955.04 208.182 954.563 208.182C953.74 208.182 952.973 208.03 952.262 207.727C951.56 207.424 950.949 206.986 950.429 206.414C949.909 205.833 949.502 205.123 949.207 204.282C948.912 203.441 948.765 202.484 948.765 201.409C948.765 200.43 948.899 199.524 949.168 198.692C949.445 197.86 949.844 197.145 950.364 196.547C950.893 195.94 951.538 195.468 952.301 195.13C953.072 194.792 953.956 194.623 954.953 194.623C955.88 194.623 956.695 194.775 957.397 195.078C958.108 195.373 958.736 195.793 959.282 196.339L958.671 197.171ZM971.165 208.208C970.125 208.208 969.323 207.918 968.76 207.337C968.205 206.756 967.928 205.92 967.928 204.828V196.768H966.342C966.203 196.768 966.086 196.729 965.991 196.651C965.896 196.564 965.848 196.434 965.848 196.261V195.338L968.006 195.065L968.539 190.996C968.565 190.866 968.621 190.762 968.708 190.684C968.803 190.597 968.925 190.554 969.072 190.554H970.242V195.091H974.051V196.768H970.242V204.672C970.242 205.227 970.376 205.638 970.645 205.907C970.914 206.176 971.26 206.31 971.685 206.31C971.928 206.31 972.136 206.28 972.309 206.219C972.491 206.15 972.647 206.076 972.777 205.998C972.907 205.92 973.015 205.851 973.102 205.79C973.197 205.721 973.28 205.686 973.349 205.686C973.47 205.686 973.579 205.76 973.674 205.907L974.35 207.012C973.951 207.385 973.47 207.679 972.907 207.896C972.344 208.104 971.763 208.208 971.165 208.208ZM851.352 247.084L848.427 239.505C848.34 239.28 848.249 239.02 848.154 238.725C848.058 238.422 847.967 238.101 847.881 237.763C847.699 238.465 847.512 239.05 847.322 239.518L844.397 247.084H851.352ZM856.604 254H854.654C854.428 254 854.246 253.944 854.108 253.831C853.969 253.718 853.865 253.575 853.796 253.402L852.054 248.904H843.695L841.953 253.402C841.901 253.558 841.801 253.697 841.654 253.818C841.506 253.939 841.324 254 841.108 254H839.158L846.607 235.371H849.155L856.604 254ZM865.985 250.828C866.409 251.4 866.873 251.803 867.376 252.037C867.887 252.271 868.446 252.388 869.053 252.388C870.292 252.388 871.241 251.95 871.9 251.075C872.558 250.2 872.888 248.895 872.888 247.162C872.888 245.55 872.593 244.367 872.004 243.613C871.423 242.85 870.591 242.469 869.508 242.469C868.754 242.469 868.095 242.642 867.532 242.989C866.977 243.336 866.461 243.825 865.985 244.458V250.828ZM865.985 242.729C866.539 242.088 867.163 241.576 867.857 241.195C868.559 240.814 869.365 240.623 870.275 240.623C871.046 240.623 871.739 240.77 872.355 241.065C872.979 241.36 873.507 241.789 873.941 242.352C874.374 242.907 874.703 243.583 874.929 244.38C875.163 245.177 875.28 246.074 875.28 247.071C875.28 248.137 875.15 249.108 874.89 249.983C874.63 250.858 874.253 251.608 873.759 252.232C873.273 252.847 872.68 253.328 871.978 253.675C871.276 254.013 870.487 254.182 869.612 254.182C868.745 254.182 868.013 254.022 867.415 253.701C866.825 253.372 866.31 252.908 865.868 252.31L865.751 253.506C865.681 253.835 865.482 254 865.153 254H863.658V234.851H865.985V242.729ZM888.957 240.623C889.919 240.623 890.786 240.783 891.557 241.104C892.329 241.425 892.987 241.88 893.533 242.469C894.079 243.058 894.495 243.773 894.781 244.614C895.076 245.446 895.223 246.378 895.223 247.409C895.223 248.449 895.076 249.385 894.781 250.217C894.495 251.049 894.079 251.76 893.533 252.349C892.987 252.938 892.329 253.393 891.557 253.714C890.786 254.026 889.919 254.182 888.957 254.182C887.987 254.182 887.111 254.026 886.331 253.714C885.56 253.393 884.901 252.938 884.355 252.349C883.809 251.76 883.389 251.049 883.094 250.217C882.808 249.385 882.665 248.449 882.665 247.409C882.665 246.378 882.808 245.446 883.094 244.614C883.389 243.773 883.809 243.058 884.355 242.469C884.901 241.88 885.56 241.425 886.331 241.104C887.111 240.783 887.987 240.623 888.957 240.623ZM888.957 252.375C890.257 252.375 891.228 251.942 891.869 251.075C892.511 250.2 892.831 248.982 892.831 247.422C892.831 245.853 892.511 244.631 891.869 243.756C891.228 242.881 890.257 242.443 888.957 242.443C888.299 242.443 887.722 242.556 887.228 242.781C886.743 243.006 886.336 243.331 886.006 243.756C885.686 244.181 885.443 244.705 885.278 245.329C885.122 245.944 885.044 246.642 885.044 247.422C885.044 248.982 885.365 250.2 886.006 251.075C886.656 251.942 887.64 252.375 888.957 252.375ZM914.187 240.831V254H912.809C912.48 254 912.272 253.84 912.185 253.519L912.003 252.102C911.431 252.735 910.79 253.246 910.079 253.636C909.369 254.017 908.554 254.208 907.635 254.208C906.916 254.208 906.279 254.091 905.724 253.857C905.178 253.614 904.719 253.276 904.346 252.843C903.974 252.41 903.692 251.885 903.501 251.27C903.319 250.655 903.228 249.974 903.228 249.229V240.831H905.542V249.229C905.542 250.226 905.768 250.997 906.218 251.543C906.678 252.089 907.375 252.362 908.311 252.362C908.996 252.362 909.633 252.202 910.222 251.881C910.82 251.552 911.371 251.101 911.873 250.529V240.831H914.187ZM927.099 254.208C926.059 254.208 925.258 253.918 924.694 253.337C924.14 252.756 923.862 251.92 923.862 250.828V242.768H922.276C922.138 242.768 922.021 242.729 921.925 242.651C921.83 242.564 921.782 242.434 921.782 242.261V241.338L923.94 241.065L924.473 236.996C924.499 236.866 924.556 236.762 924.642 236.684C924.738 236.597 924.859 236.554 925.006 236.554H926.176V241.091H929.985V242.768H926.176V250.672C926.176 251.227 926.311 251.638 926.579 251.907C926.848 252.176 927.195 252.31 927.619 252.31C927.862 252.31 928.07 252.28 928.243 252.219C928.425 252.15 928.581 252.076 928.711 251.998C928.841 251.92 928.95 251.851 929.036 251.79C929.132 251.721 929.214 251.686 929.283 251.686C929.405 251.686 929.513 251.76 929.608 251.907L930.284 253.012C929.886 253.385 929.405 253.679 928.841 253.896C928.278 254.104 927.697 254.208 927.099 254.208ZM949.427 254V240.831H950.818C951.147 240.831 951.351 240.991 951.429 241.312L951.598 242.664C952.083 242.066 952.629 241.576 953.236 241.195C953.843 240.814 954.545 240.623 955.342 240.623C956.226 240.623 956.941 240.87 957.487 241.364C958.042 241.858 958.44 242.525 958.683 243.366C958.874 242.889 959.116 242.478 959.411 242.131C959.714 241.784 960.052 241.498 960.425 241.273C960.798 241.048 961.192 240.883 961.608 240.779C962.033 240.675 962.462 240.623 962.895 240.623C963.588 240.623 964.204 240.736 964.741 240.961C965.287 241.178 965.746 241.498 966.119 241.923C966.5 242.348 966.791 242.872 966.99 243.496C967.189 244.111 967.289 244.818 967.289 245.615V254H964.962V245.615C964.962 244.584 964.737 243.804 964.286 243.275C963.835 242.738 963.185 242.469 962.336 242.469C961.955 242.469 961.591 242.538 961.244 242.677C960.906 242.807 960.607 243.002 960.347 243.262C960.087 243.522 959.879 243.851 959.723 244.25C959.576 244.64 959.502 245.095 959.502 245.615V254H957.175V245.615C957.175 244.558 956.963 243.769 956.538 243.249C956.113 242.729 955.494 242.469 954.679 242.469C954.107 242.469 953.578 242.625 953.093 242.937C952.608 243.24 952.161 243.656 951.754 244.185V254H949.427ZM984.82 245.979C984.82 245.442 984.742 244.952 984.586 244.51C984.439 244.059 984.218 243.674 983.923 243.353C983.637 243.024 983.286 242.772 982.87 242.599C982.454 242.417 981.982 242.326 981.453 242.326C980.344 242.326 979.464 242.651 978.814 243.301C978.173 243.942 977.774 244.835 977.618 245.979H984.82ZM986.692 252.154C986.406 252.501 986.064 252.804 985.665 253.064C985.266 253.315 984.837 253.523 984.378 253.688C983.927 253.853 983.459 253.974 982.974 254.052C982.489 254.139 982.008 254.182 981.531 254.182C980.621 254.182 979.78 254.03 979.009 253.727C978.246 253.415 977.583 252.964 977.02 252.375C976.465 251.777 976.032 251.04 975.72 250.165C975.408 249.29 975.252 248.284 975.252 247.149C975.252 246.23 975.391 245.372 975.668 244.575C975.954 243.778 976.361 243.089 976.89 242.508C977.419 241.919 978.064 241.459 978.827 241.13C979.59 240.792 980.448 240.623 981.401 240.623C982.19 240.623 982.918 240.757 983.585 241.026C984.261 241.286 984.842 241.667 985.327 242.17C985.821 242.664 986.207 243.279 986.484 244.016C986.761 244.744 986.9 245.576 986.9 246.512C986.9 246.876 986.861 247.119 986.783 247.24C986.705 247.361 986.558 247.422 986.341 247.422H977.54C977.566 248.254 977.679 248.978 977.878 249.593C978.086 250.208 978.372 250.724 978.736 251.14C979.1 251.547 979.533 251.855 980.036 252.063C980.539 252.262 981.102 252.362 981.726 252.362C982.307 252.362 982.805 252.297 983.221 252.167C983.646 252.028 984.01 251.881 984.313 251.725C984.616 251.569 984.868 251.426 985.067 251.296C985.275 251.157 985.453 251.088 985.6 251.088C985.791 251.088 985.938 251.162 986.042 251.309L986.692 252.154ZM857.596 291.03C858.316 291.03 858.948 290.935 859.494 290.744C860.049 290.553 860.513 290.289 860.885 289.951C861.267 289.604 861.553 289.193 861.743 288.716C861.934 288.239 862.029 287.715 862.029 287.143C862.029 285.956 861.661 285.028 860.924 284.361C860.196 283.694 859.087 283.36 857.596 283.36H854.606V291.03H857.596ZM857.596 281.371C858.775 281.371 859.798 281.51 860.664 281.787C861.54 282.056 862.263 282.441 862.835 282.944C863.407 283.447 863.832 284.053 864.109 284.764C864.395 285.475 864.538 286.268 864.538 287.143C864.538 288.01 864.387 288.803 864.083 289.522C863.78 290.241 863.334 290.861 862.744 291.381C862.164 291.901 861.44 292.308 860.573 292.603C859.715 292.889 858.723 293.032 857.596 293.032H854.606V300H852.097V281.371H857.596ZM874.31 289.47C874.726 288.569 875.237 287.867 875.844 287.364C876.45 286.853 877.191 286.597 878.067 286.597C878.344 286.597 878.608 286.627 878.86 286.688C879.12 286.749 879.349 286.844 879.549 286.974L879.38 288.703C879.328 288.92 879.198 289.028 878.99 289.028C878.868 289.028 878.691 289.002 878.457 288.95C878.223 288.898 877.958 288.872 877.664 288.872C877.248 288.872 876.875 288.933 876.546 289.054C876.225 289.175 875.935 289.357 875.675 289.6C875.423 289.834 875.194 290.129 874.986 290.484C874.786 290.831 874.604 291.229 874.44 291.68V300H872.113V286.831H873.439C873.69 286.831 873.863 286.879 873.959 286.974C874.054 287.069 874.119 287.234 874.154 287.468L874.31 289.47ZM891.801 286.623C892.763 286.623 893.63 286.783 894.401 287.104C895.173 287.425 895.831 287.88 896.377 288.469C896.923 289.058 897.339 289.773 897.625 290.614C897.92 291.446 898.067 292.378 898.067 293.409C898.067 294.449 897.92 295.385 897.625 296.217C897.339 297.049 896.923 297.76 896.377 298.349C895.831 298.938 895.173 299.393 894.401 299.714C893.63 300.026 892.763 300.182 891.801 300.182C890.831 300.182 889.955 300.026 889.175 299.714C888.404 299.393 887.745 298.938 887.199 298.349C886.653 297.76 886.233 297.049 885.938 296.217C885.652 295.385 885.509 294.449 885.509 293.409C885.509 292.378 885.652 291.446 885.938 290.614C886.233 289.773 886.653 289.058 887.199 288.469C887.745 287.88 888.404 287.425 889.175 287.104C889.955 286.783 890.831 286.623 891.801 286.623ZM891.801 298.375C893.101 298.375 894.072 297.942 894.713 297.075C895.355 296.2 895.675 294.982 895.675 293.422C895.675 291.853 895.355 290.631 894.713 289.756C894.072 288.881 893.101 288.443 891.801 288.443C891.143 288.443 890.566 288.556 890.072 288.781C889.587 289.006 889.18 289.331 888.85 289.756C888.53 290.181 888.287 290.705 888.122 291.329C887.966 291.944 887.888 292.642 887.888 293.422C887.888 294.982 888.209 296.2 888.85 297.075C889.5 297.942 890.484 298.375 891.801 298.375ZM908.646 286.831V300.975C908.646 301.504 908.577 301.993 908.438 302.444C908.299 302.903 908.078 303.302 907.775 303.64C907.472 303.978 907.082 304.242 906.605 304.433C906.137 304.632 905.574 304.732 904.915 304.732C904.638 304.732 904.382 304.71 904.148 304.667C903.914 304.624 903.68 304.559 903.446 304.472L903.537 303.224C903.554 303.146 903.585 303.085 903.628 303.042C903.663 303.007 903.715 302.986 903.784 302.977C903.853 302.968 903.944 302.964 904.057 302.964C904.161 302.973 904.295 302.977 904.46 302.977C905.136 302.977 905.617 302.817 905.903 302.496C906.189 302.184 906.332 301.677 906.332 300.975V286.831H908.646ZM909.127 282.697C909.127 282.922 909.079 283.135 908.984 283.334C908.897 283.525 908.776 283.698 908.62 283.854C908.473 284.001 908.299 284.118 908.1 284.205C907.901 284.292 907.688 284.335 907.463 284.335C907.238 284.335 907.025 284.292 906.826 284.205C906.635 284.118 906.466 284.001 906.319 283.854C906.172 283.698 906.055 283.525 905.968 283.334C905.881 283.135 905.838 282.922 905.838 282.697C905.838 282.472 905.881 282.259 905.968 282.06C906.055 281.852 906.172 281.674 906.319 281.527C906.466 281.371 906.635 281.25 906.826 281.163C907.025 281.076 907.238 281.033 907.463 281.033C907.688 281.033 907.901 281.076 908.1 281.163C908.299 281.25 908.473 281.371 908.62 281.527C908.776 281.674 908.897 281.852 908.984 282.06C909.079 282.259 909.127 282.472 909.127 282.697ZM926.462 291.979C926.462 291.442 926.384 290.952 926.228 290.51C926.081 290.059 925.86 289.674 925.565 289.353C925.279 289.024 924.928 288.772 924.512 288.599C924.096 288.417 923.624 288.326 923.095 288.326C921.986 288.326 921.106 288.651 920.456 289.301C919.815 289.942 919.416 290.835 919.26 291.979H926.462ZM928.334 298.154C928.048 298.501 927.706 298.804 927.307 299.064C926.909 299.315 926.48 299.523 926.02 299.688C925.57 299.853 925.102 299.974 924.616 300.052C924.131 300.139 923.65 300.182 923.173 300.182C922.263 300.182 921.423 300.03 920.651 299.727C919.889 299.415 919.226 298.964 918.662 298.375C918.108 297.777 917.674 297.04 917.362 296.165C917.05 295.29 916.894 294.284 916.894 293.149C916.894 292.23 917.033 291.372 917.31 290.575C917.596 289.778 918.004 289.089 918.532 288.508C919.061 287.919 919.707 287.459 920.469 287.13C921.232 286.792 922.09 286.623 923.043 286.623C923.832 286.623 924.56 286.757 925.227 287.026C925.903 287.286 926.484 287.667 926.969 288.17C927.463 288.664 927.849 289.279 928.126 290.016C928.404 290.744 928.542 291.576 928.542 292.512C928.542 292.876 928.503 293.119 928.425 293.24C928.347 293.361 928.2 293.422 927.983 293.422H919.182C919.208 294.254 919.321 294.978 919.52 295.593C919.728 296.208 920.014 296.724 920.378 297.14C920.742 297.547 921.176 297.855 921.678 298.063C922.181 298.262 922.744 298.362 923.368 298.362C923.949 298.362 924.447 298.297 924.863 298.167C925.288 298.028 925.652 297.881 925.955 297.725C926.259 297.569 926.51 297.426 926.709 297.296C926.917 297.157 927.095 297.088 927.242 297.088C927.433 297.088 927.58 297.162 927.684 297.309L928.334 298.154ZM945.75 289.171C945.68 289.266 945.611 289.34 945.542 289.392C945.472 289.444 945.377 289.47 945.256 289.47C945.126 289.47 944.983 289.418 944.827 289.314C944.671 289.201 944.476 289.08 944.242 288.95C944.016 288.82 943.735 288.703 943.397 288.599C943.067 288.486 942.66 288.43 942.175 288.43C941.525 288.43 940.953 288.547 940.459 288.781C939.965 289.006 939.549 289.336 939.211 289.769C938.881 290.202 938.63 290.727 938.457 291.342C938.292 291.957 938.21 292.646 938.21 293.409C938.21 294.206 938.301 294.917 938.483 295.541C938.665 296.156 938.92 296.676 939.25 297.101C939.588 297.517 939.991 297.838 940.459 298.063C940.935 298.28 941.468 298.388 942.058 298.388C942.621 298.388 943.085 298.323 943.449 298.193C943.813 298.054 944.112 297.903 944.346 297.738C944.588 297.573 944.788 297.426 944.944 297.296C945.108 297.157 945.269 297.088 945.425 297.088C945.615 297.088 945.763 297.162 945.867 297.309L946.517 298.154C946.231 298.509 945.906 298.813 945.542 299.064C945.178 299.315 944.783 299.528 944.359 299.701C943.943 299.866 943.505 299.987 943.046 300.065C942.586 300.143 942.118 300.182 941.642 300.182C940.818 300.182 940.051 300.03 939.341 299.727C938.639 299.424 938.028 298.986 937.508 298.414C936.988 297.833 936.58 297.123 936.286 296.282C935.991 295.441 935.844 294.484 935.844 293.409C935.844 292.43 935.978 291.524 936.247 290.692C936.524 289.86 936.923 289.145 937.443 288.547C937.971 287.94 938.617 287.468 939.38 287.13C940.151 286.792 941.035 286.623 942.032 286.623C942.959 286.623 943.774 286.775 944.476 287.078C945.186 287.373 945.815 287.793 946.361 288.339L945.75 289.171ZM958.244 300.208C957.204 300.208 956.402 299.918 955.839 299.337C955.284 298.756 955.007 297.92 955.007 296.828V288.768H953.421C953.282 288.768 953.165 288.729 953.07 288.651C952.974 288.564 952.927 288.434 952.927 288.261V287.338L955.085 287.065L955.618 282.996C955.644 282.866 955.7 282.762 955.787 282.684C955.882 282.597 956.003 282.554 956.151 282.554H957.321V287.091H961.13V288.768H957.321V296.672C957.321 297.227 957.455 297.638 957.724 297.907C957.992 298.176 958.339 298.31 958.764 298.31C959.006 298.31 959.214 298.28 959.388 298.219C959.57 298.15 959.726 298.076 959.856 297.998C959.986 297.92 960.094 297.851 960.181 297.79C960.276 297.721 960.358 297.686 960.428 297.686C960.549 297.686 960.657 297.76 960.753 297.907L961.429 299.012C961.03 299.385 960.549 299.679 959.986 299.896C959.422 300.104 958.842 300.208 958.244 300.208ZM976.389 289.002C976.285 289.193 976.125 289.288 975.908 289.288C975.778 289.288 975.631 289.24 975.466 289.145C975.301 289.05 975.098 288.946 974.855 288.833C974.621 288.712 974.339 288.603 974.01 288.508C973.681 288.404 973.291 288.352 972.84 288.352C972.45 288.352 972.099 288.404 971.787 288.508C971.475 288.603 971.206 288.738 970.981 288.911C970.764 289.084 970.595 289.288 970.474 289.522C970.361 289.747 970.305 289.994 970.305 290.263C970.305 290.601 970.4 290.883 970.591 291.108C970.79 291.333 971.05 291.528 971.371 291.693C971.692 291.858 972.056 292.005 972.463 292.135C972.87 292.256 973.286 292.391 973.711 292.538C974.144 292.677 974.565 292.833 974.972 293.006C975.379 293.179 975.743 293.396 976.064 293.656C976.385 293.916 976.64 294.237 976.831 294.618C977.03 294.991 977.13 295.441 977.13 295.97C977.13 296.577 977.022 297.14 976.805 297.66C976.588 298.171 976.268 298.618 975.843 298.999C975.418 299.372 974.898 299.666 974.283 299.883C973.668 300.1 972.957 300.208 972.151 300.208C971.232 300.208 970.4 300.061 969.655 299.766C968.91 299.463 968.277 299.077 967.757 298.609L968.303 297.725C968.372 297.612 968.455 297.526 968.55 297.465C968.645 297.404 968.767 297.374 968.914 297.374C969.07 297.374 969.235 297.435 969.408 297.556C969.581 297.677 969.789 297.812 970.032 297.959C970.283 298.106 970.587 298.241 970.942 298.362C971.297 298.483 971.739 298.544 972.268 298.544C972.719 298.544 973.113 298.488 973.451 298.375C973.789 298.254 974.071 298.093 974.296 297.894C974.521 297.695 974.686 297.465 974.79 297.205C974.903 296.945 974.959 296.668 974.959 296.373C974.959 296.009 974.859 295.71 974.66 295.476C974.469 295.233 974.214 295.03 973.893 294.865C973.572 294.692 973.204 294.544 972.788 294.423C972.381 294.293 971.96 294.159 971.527 294.02C971.102 293.881 970.682 293.725 970.266 293.552C969.859 293.37 969.495 293.145 969.174 292.876C968.853 292.607 968.593 292.278 968.394 291.888C968.203 291.489 968.108 291.008 968.108 290.445C968.108 289.942 968.212 289.461 968.42 289.002C968.628 288.534 968.931 288.127 969.33 287.78C969.729 287.425 970.218 287.143 970.799 286.935C971.38 286.727 972.043 286.623 972.788 286.623C973.655 286.623 974.43 286.762 975.115 287.039C975.808 287.308 976.406 287.68 976.909 288.157L976.389 289.002Z" fill="#58511C"/>
</svg>
