<svg width="243" height="233" viewBox="0 0 243 233" fill="none" xmlns="http://www.w3.org/2000/svg">
<path opacity="0.3" d="M95.5628 232.205C148.341 232.205 191.126 189.47 191.126 136.753C191.126 84.0364 148.341 41.301 95.5628 41.301C42.7849 41.301 0 84.0364 0 136.753C0 189.47 42.7849 232.205 95.5628 232.205Z" fill="#ED6A5A"/>
<path d="M145.962 194.369C126.77 194.369 108.01 188.684 92.0531 178.034C76.0961 167.385 63.6592 152.248 56.315 134.538C48.9708 116.828 47.0492 97.3403 50.7932 78.5396C54.5372 59.7388 63.7787 42.4692 77.349 28.9146C90.9193 15.36 108.209 6.12915 127.032 2.38945C145.854 -1.35026 165.364 0.569098 183.095 7.9048C200.825 15.2405 215.98 27.6631 226.642 43.6016C237.304 59.5401 242.995 78.2787 242.995 97.4478C242.966 123.144 232.733 147.779 214.542 165.949C196.351 184.119 171.688 194.34 145.962 194.369ZM145.962 3.46413C127.352 3.46413 109.16 8.97618 93.6867 19.3032C78.2132 29.6303 66.1532 44.3086 59.0315 61.4818C51.9099 78.6551 50.0465 97.5521 53.6771 115.783C57.3077 134.014 66.2692 150.761 79.4283 163.904C92.5873 177.048 109.353 185.999 127.605 189.626C145.857 193.252 164.776 191.391 181.969 184.277C199.163 177.164 213.858 165.118 224.197 149.662C234.536 134.207 240.054 116.036 240.054 97.4478C240.026 72.5305 230.104 48.6418 212.464 31.0225C194.824 13.4033 170.908 3.49239 145.962 3.46413Z" fill="#58511C" fill-opacity="0.5"/>
</svg>
