<svg width="59" height="54" viewBox="0 0 59 54" fill="none" xmlns="http://www.w3.org/2000/svg">
<path d="M25.403 2.38047V12.0764C25.403 13.3914 24.3207 14.4569 22.9854 14.4569C18.2215 14.4569 15.6302 19.2689 15.271 28.7663H22.9854C24.3207 28.7663 25.403 29.8328 25.403 31.1473V51.6199C25.403 52.9342 24.3207 53.9998 22.9854 53.9998H2.41711C1.08137 53.9998 0 52.9334 0 51.6199V31.1473C0 26.5944 0.465472 22.4164 1.38306 18.728C2.32415 14.9459 3.76873 11.6392 5.67541 8.89916C7.63736 6.08325 10.0915 3.87356 12.9702 2.33419C15.8683 0.785499 19.2385 0 22.9863 0C24.3207 0 25.403 1.06548 25.403 2.38047ZM56.5822 14.4571C57.9168 14.4571 59 13.3906 59 12.0766V2.38063C59 1.06564 57.9169 0.000166363 56.5822 0.000166363C52.836 0.000166363 49.4653 0.785832 46.5681 2.33436C43.6889 3.87373 41.2335 6.08341 39.2712 8.89932C37.3652 11.6393 35.9206 14.9463 34.9793 18.7291C34.0623 22.4188 33.5968 26.5968 33.5968 31.1475V51.62C33.5968 52.9344 34.6795 54 36.0144 54H56.582C57.9166 54 58.9988 52.9335 58.9988 51.62V31.1473C58.9988 29.833 57.9168 28.7663 56.582 28.7663H48.9776C49.3314 19.2691 51.8849 14.4571 56.5822 14.4571Z" fill="#ED6A5A"/>
</svg>
