<svg width="378" height="333" viewBox="0 0 378 333" fill="none" xmlns="http://www.w3.org/2000/svg">
<g clip-path="url(#clip0)">
<path d="M56.3617 60.1592C60.1014 60.1592 63.133 57.1278 63.133 53.3884C63.133 49.6491 60.1014 46.6177 56.3617 46.6177C52.622 46.6177 49.5903 49.6491 49.5903 53.3884C49.5903 57.1278 52.622 60.1592 56.3617 60.1592Z" fill="#3F3D56"/>
<path d="M75.2612 24.4738C75.9032 23.7454 76.5681 23.0205 77.2376 22.3192L77.9387 22.9882C77.2775 23.6803 76.6213 24.3956 75.9881 25.1141L75.2612 24.4738Z" fill="#3F3D56"/>
<path d="M81.5273 18.1848C83.0079 16.8711 84.5607 15.6041 86.1429 14.4192L86.7239 15.1943C85.1631 16.3636 83.631 17.6135 82.1705 18.9095L81.5273 18.1848ZM91.0547 11.0492C92.7304 9.99904 94.4714 9.0062 96.2288 8.09805L96.6738 8.95889C94.9398 9.85459 93.2224 10.834 91.5694 11.8699L91.0547 11.0492ZM101.63 5.58599C103.453 4.82791 105.333 4.13545 107.218 3.52718L107.515 4.44933C105.655 5.04913 103.8 5.73265 102.002 6.48045L101.63 5.58599ZM113.178 2.873L112.956 1.93018C114.884 1.47663 116.851 1.09777 118.802 0.803927L118.947 1.76207C117.021 2.05185 115.08 2.4256 113.178 2.873ZM124.787 1.12746L124.722 0.160869C126.696 0.0287234 128.698 -0.0224158 130.675 0.00895669L130.66 0.977809C128.71 0.946623 126.734 0.997105 124.787 1.12745V1.12746ZM136.526 1.31551L136.621 0.351625C138.59 0.547204 140.575 0.828104 142.522 1.18647L142.347 2.1393C140.426 1.7856 138.468 1.50846 136.526 1.31549V1.31551ZM172.837 128.964C174.385 127.778 175.903 126.513 177.35 125.201L178.001 125.919C176.534 127.248 174.995 128.531 173.427 129.733L172.837 128.964ZM148.08 3.44145L148.333 2.50646C150.241 3.02377 152.152 3.62749 154.014 4.30082L153.684 5.21164C151.848 4.54748 149.962 3.95178 148.08 3.44145ZM181.537 121.079C182.869 119.654 184.159 118.156 185.37 116.626L186.13 117.227C184.902 118.778 183.595 120.297 182.244 121.74L181.537 121.079ZM159.125 7.4365L159.528 6.55537C161.327 7.37874 163.113 8.28651 164.838 9.25401L164.364 10.0988C162.662 9.14434 160.899 8.24851 159.125 7.4365ZM188.826 111.874C189.908 110.249 190.936 108.56 191.881 106.854L192.729 107.323C191.771 109.053 190.729 110.765 189.632 112.411L188.826 111.874ZM169.368 13.1807L169.909 12.3775C171.549 13.4825 173.163 14.6694 174.707 15.9052L174.101 16.6615C172.578 15.4421 170.985 14.2711 169.368 13.1807ZM194.516 101.601C195.318 99.8217 196.057 97.9875 196.711 96.1494L197.624 96.4739C196.961 98.3371 196.212 100.196 195.399 101.999L194.516 101.601ZM178.533 20.5176L179.198 19.8137C180.636 21.1728 182.034 22.6074 183.353 24.078L182.631 24.7246C181.33 23.2739 179.951 21.8586 178.533 20.5176ZM198.451 90.536C198.952 88.6469 199.379 86.7164 199.722 84.798L200.676 84.9682C200.328 86.9128 199.895 88.8696 199.387 90.7842L198.451 90.536ZM186.368 29.2548L187.14 28.6697C188.334 30.2456 189.476 31.8903 190.534 33.5581L189.716 34.077C188.672 32.4318 187.546 30.8092 186.368 29.2548ZM200.514 78.9744C200.696 77.0324 200.799 75.0577 200.82 73.1055L201.789 73.116C201.768 75.0946 201.664 77.0963 201.479 79.0651L200.514 78.9744ZM192.654 39.1637L193.513 38.7146C194.429 40.4641 195.284 42.276 196.054 44.0995L195.162 44.4764C194.402 42.6774 193.558 40.8901 192.654 39.1637ZM200.638 67.2316C200.498 65.2896 200.273 63.3255 199.972 61.3941L200.929 61.2447C201.235 63.2022 201.462 65.193 201.605 67.1615L200.638 67.2316ZM197.223 49.9775L198.143 49.675C198.76 51.5506 199.308 53.4837 199.771 55.4033L198.829 55.6304C198.373 53.7346 197.831 51.8287 197.223 49.9775Z" fill="#3F3D56"/>
<path d="M165.504 133.886C166.331 133.403 167.16 132.896 167.967 132.38L168.489 133.195C167.671 133.719 166.832 134.233 165.993 134.723L165.504 133.886Z" fill="#3F3D56"/>
<path d="M10.7544 71.9859L25.5988 57.1428L39.0347 70.5772L64.5268 45.0873L85.4383 66.3953V87.305H10.7544V71.9859Z" fill="#F3B114"/>
<path d="M253.726 208.382V304.368H377.203V208.382H253.726ZM361.079 234.051H351.516V224.489H361.079V234.051Z" fill="#9C8E5E"/>
<path d="M262.889 273.399C262.448 274.264 261.984 275.131 261.509 275.977L260.664 275.503C261.133 274.668 261.591 273.812 262.025 272.959L262.889 273.399Z" fill="#3F3D56"/>
<path d="M258.381 281.047C257.273 282.687 256.083 284.3 254.845 285.841L254.09 285.234C255.311 283.714 256.485 282.123 257.578 280.505L258.381 281.047ZM250.924 290.325C249.562 291.758 248.122 293.152 246.645 294.469L246 293.745C247.458 292.447 248.878 291.072 250.222 289.658L250.924 290.325ZM242.038 298.243C240.46 299.43 238.811 300.568 237.136 301.625L236.619 300.806C238.272 299.763 239.899 298.64 241.455 297.469L242.038 298.243ZM231.525 303.739L231.974 304.597C230.219 305.515 228.408 306.371 226.591 307.14L226.213 306.248C228.006 305.489 229.793 304.645 231.525 303.739ZM220.713 308.313L221.016 309.233C219.137 309.851 217.21 310.398 215.287 310.859L215.061 309.916C216.958 309.462 218.86 308.923 220.713 308.313ZM209.296 311.046L209.442 312.003C207.487 312.303 205.494 312.524 203.519 312.66L203.452 311.694C205.401 311.559 207.367 311.341 209.296 311.046ZM142.416 196.415C141.211 197.948 140.055 199.551 138.979 201.18L138.171 200.647C139.261 198.995 140.433 197.37 141.654 195.817L142.416 196.415ZM197.576 311.856L197.563 312.825C195.586 312.797 193.584 312.687 191.614 312.497L191.707 311.533C193.651 311.72 195.626 311.829 197.576 311.856ZM135.948 206.213C135.011 207.924 134.134 209.696 133.341 211.479L132.455 211.085C133.259 209.278 134.149 207.482 135.098 205.748L135.948 206.213ZM185.884 310.729L185.713 311.683C183.766 311.332 181.81 310.896 179.899 310.387L180.148 309.451C182.034 309.953 183.964 310.383 185.884 310.729ZM131.174 216.94C130.528 218.782 129.952 220.674 129.461 222.562L128.523 222.317C129.021 220.404 129.605 218.487 130.259 216.62L131.174 216.94ZM174.536 307.709L174.211 308.621C172.348 307.958 170.49 307.209 168.687 306.395L169.086 305.512C170.864 306.315 172.698 307.054 174.536 307.709ZM128.213 228.304C127.878 230.227 127.618 232.187 127.441 234.13L126.476 234.042C126.656 232.073 126.919 230.086 127.259 228.138L128.213 228.304ZM163.835 302.878L163.365 303.725C161.635 302.765 159.925 301.723 158.282 300.626L158.82 299.82C160.441 300.902 162.128 301.931 163.835 302.878ZM127.15 240C127.134 241.954 127.199 243.93 127.344 245.873L126.378 245.945C126.231 243.976 126.165 241.972 126.181 239.992L127.15 240ZM154.075 296.36L153.473 297.119C151.925 295.888 150.41 294.579 148.971 293.226L149.635 292.52C151.055 293.855 152.549 295.147 154.075 296.36H154.075ZM128.023 251.711C128.329 253.638 128.719 255.576 129.184 257.472L128.243 257.703C127.772 255.781 127.376 253.816 127.066 251.863L128.023 251.711ZM145.525 288.323L144.805 288.971C143.483 287.504 142.205 285.961 141.006 284.386L141.776 283.799C142.959 285.353 144.22 286.875 145.525 288.323ZM130.819 263.117C131.438 264.963 132.143 266.81 132.915 268.606L132.025 268.989C131.243 267.168 130.528 265.296 129.901 263.425L130.819 263.117ZM138.414 278.982L137.597 279.504C136.534 277.84 135.522 276.104 134.597 274.359L135.454 273.905C136.367 275.629 137.365 277.34 138.414 278.982Z" fill="#3F3D56"/>
<path d="M148.297 189.826C147.616 190.499 146.939 191.196 146.286 191.897L145.577 191.236C146.239 190.526 146.925 189.819 147.616 189.137L148.297 189.826Z" fill="#3F3D56"/>
<path d="M358.541 213.369C358.449 213.22 356.294 209.621 355.547 202.149C354.861 195.293 355.302 183.738 361.295 167.619C372.65 137.082 358.679 112.444 358.536 112.198L359.225 111.799C359.261 111.861 362.866 118.143 364.996 128.146C367.81 141.407 366.785 155.196 362.042 167.897C350.707 198.381 359.134 212.812 359.221 212.954L358.541 213.369Z" fill="#3F3D56"/>
<path d="M354.101 110.405C356.961 110.405 359.279 108.087 359.279 105.228C359.279 102.368 356.961 100.05 354.101 100.05C351.241 100.05 348.923 102.368 348.923 105.228C348.923 108.087 351.241 110.405 354.101 110.405Z" fill="#E6535E"/>
<path d="M370.432 129.523C373.292 129.523 375.61 127.205 375.61 124.345C375.61 121.486 373.292 119.168 370.432 119.168C367.572 119.168 365.254 121.486 365.254 124.345C365.254 127.205 367.572 129.523 370.432 129.523Z" fill="#3F3D56"/>
<path d="M359.28 142.268C362.139 142.268 364.458 139.95 364.458 137.09C364.458 134.231 362.139 131.912 359.28 131.912C356.42 131.912 354.102 134.231 354.102 137.09C354.102 139.95 356.42 142.268 359.28 142.268Z" fill="#E6535E"/>
<path d="M372.822 153.021C375.681 153.021 378 150.703 378 147.844C378 144.984 375.681 142.666 372.822 142.666C369.962 142.666 367.644 144.984 367.644 147.844C367.644 150.703 369.962 153.021 372.822 153.021Z" fill="#E6535E"/>
<path d="M355.296 169.749C358.156 169.749 360.474 167.431 360.474 164.571C360.474 161.712 358.156 159.394 355.296 159.394C352.436 159.394 350.118 161.712 350.118 164.571C350.118 167.431 352.436 169.749 355.296 169.749Z" fill="#3F3D56"/>
<path d="M361.669 213.56C361.669 213.56 356.491 200.815 372.025 191.256L361.669 213.56Z" fill="#3F3D56"/>
<path d="M355.3 213.329C355.3 213.329 352.944 199.775 334.704 199.892L355.3 213.329Z" fill="#3F3D56"/>
<path d="M240.477 205.683H79.8687V135.082H211.352L211.463 135.351L240.477 205.683ZM80.7404 204.812H239.175L210.768 135.953H80.7404V204.812Z" fill="#3F3D56"/>
<path d="M191.883 156.872H120.839V163.409H191.883V156.872Z" fill="#F3B114"/>
<path d="M191.883 170.382H120.839V176.92H191.883V170.382Z" fill="#F3B114"/>
<path d="M191.883 183.893H120.839V190.43H191.883V183.893Z" fill="#F3B114"/>
<path d="M119.268 96.8638H0V24.3769H92.687L92.7829 24.6381L119.268 96.8638ZM0.796628 96.0673H118.127L92.1307 25.1735H0.796628V96.0673Z" fill="#3F3D56"/>
<path d="M85.6373 87.7034H10.356V31.5459H85.6373V87.7034ZM11.1526 86.9068H84.8407V32.3425H11.1526V86.9068Z" fill="#3F3D56"/>
<path d="M118.697 103.635C122.657 103.635 125.867 100.425 125.867 96.4655C125.867 92.5062 122.657 89.2965 118.697 89.2965C114.738 89.2965 111.528 92.5062 111.528 96.4655C111.528 100.425 114.738 103.635 118.697 103.635Z" fill="#E6535E"/>
<path d="M238.988 212.763C242.948 212.763 246.158 209.554 246.158 205.594C246.158 201.635 242.948 198.425 238.988 198.425C235.028 198.425 231.818 201.635 231.818 205.594C231.818 209.554 235.028 212.763 238.988 212.763Z" fill="#E6535E"/>
<path d="M290.402 107.548C297.065 107.548 302.466 102.147 302.466 95.4845C302.466 88.8221 297.065 83.4212 290.402 83.4212C283.739 83.4212 278.338 88.8221 278.338 95.4845C278.338 102.147 283.739 107.548 290.402 107.548Z" fill="#A0616A"/>
<path d="M282.109 101.265C282.109 101.265 286.13 110.312 280.601 113.831C275.071 117.349 289.649 131.926 289.649 131.926L305.735 114.836C305.735 114.836 297.189 109.307 298.697 100.259L282.109 101.265Z" fill="#A0616A"/>
<path d="M254.461 139.465L250.943 159.571C250.943 159.571 244.91 171.634 244.91 182.189C244.91 192.744 243.905 194.755 243.905 194.755C243.905 194.755 233.851 214.86 240.889 215.866C247.926 216.871 250.943 195.258 250.943 195.258C250.943 195.258 260.493 171.634 260.493 164.094L267.028 147.507L254.461 139.465Z" fill="#A0616A"/>
<path d="M327.349 140.47L328.355 158.063C328.355 158.063 331.873 167.11 329.36 183.194L327.349 198.776C327.349 198.776 331.873 216.368 327.349 216.871C322.825 217.374 317.296 205.813 320.312 199.279V193.75C320.312 193.75 317.296 170.126 318.301 166.105L314.782 147.005L327.349 140.47Z" fill="#A0616A"/>
<path d="M262.001 279.7L267.028 292.769L278.086 290.758L271.049 276.685L262.001 279.7Z" fill="#A0616A"/>
<path d="M309.756 290.256L308.248 309.356H320.815L320.312 292.769L309.756 290.256Z" fill="#A0616A"/>
<path d="M270.044 175.655L268.536 183.194C268.536 183.194 265.52 185.708 265.52 188.221C265.52 190.734 264.515 191.739 264.515 191.739C264.515 191.739 264.012 191.739 263.51 192.744C263.25 193.293 262.911 193.801 262.504 194.252C262.504 194.252 232.846 224.41 239.381 239.49C245.916 254.569 258.483 285.229 258.483 285.229C258.483 285.229 273.06 280.706 273.06 277.187L258.985 237.479L287.135 208.326L309.756 238.987C309.756 238.987 305.232 292.769 308.248 293.272C311.264 293.774 327.852 297.293 328.355 295.785C328.858 294.277 331.371 227.426 330.366 224.913C329.36 222.4 314.783 192.242 314.783 192.242C314.783 192.242 317.296 189.226 315.788 188.221C314.28 187.215 311.767 177.665 311.767 177.665C311.767 177.665 272.558 171.131 270.044 175.655Z" fill="#2F2E41"/>
<path d="M291.66 119.36L281.527 113.111C281.527 113.111 275.574 113.328 274.066 114.836C272.558 116.344 263.51 120.365 263.51 120.365C263.51 120.365 265.52 180.681 269.542 178.671C273.563 176.66 270.547 175.152 273.563 176.66C276.579 178.168 312.27 178.671 312.772 178.671C313.275 178.671 313.778 177.665 313.778 177.665L315.788 147.005L322.323 121.37L302.976 112.469L291.66 119.36Z" fill="#9C8E5E"/>
<path d="M267.53 119.862H263.509C263.509 119.862 257.979 121.37 255.466 129.412C252.953 137.455 251.947 140.973 252.953 141.978C253.958 142.984 267.53 150.523 267.53 150.523V119.862Z" fill="#F3B114"/>
<path d="M315.285 120.868L322.323 121.37C322.323 121.37 331.371 142.481 328.858 143.486C326.344 144.491 311.767 152.031 311.767 150.523C311.767 149.015 315.285 120.868 315.285 120.868Z" fill="#F3B114"/>
<path d="M268.033 286.235L263.935 284.727L254.461 297.293C254.461 297.293 236.867 309.859 252.953 309.356C252.953 309.356 265.52 307.345 266.525 303.827C266.525 303.827 281.103 299.806 281.103 297.293C281.103 294.78 277.753 288.08 276.663 287.911C275.573 287.743 271.049 289.753 268.033 286.235Z" fill="#2F2E41"/>
<path d="M320.815 303.827C320.815 303.827 308.595 303.628 308.673 303.979C308.751 304.33 305.232 312.372 305.735 315.388C306.237 318.403 310.762 322.424 309.756 324.435C308.751 326.446 312.772 332.477 320.815 332.98C328.858 333.482 327.853 324.435 327.853 324.435L323.831 314.885L320.815 303.827Z" fill="#2F2E41"/>
<path d="M283.005 81.5219C282.402 82.0355 281.772 82.5174 281.118 82.9656C280.294 83.6494 279.533 84.4056 278.843 85.2253L278.065 86.0961C277.403 86.8372 276.701 87.683 276.729 88.6762C276.739 89.0448 276.853 89.4024 276.897 89.7684C277.073 91.2204 276.185 92.8163 276.916 94.0834C277.127 94.4497 277.454 94.7361 277.687 95.0891C277.983 95.5415 278.114 96.0822 278.058 96.6201C278.844 96.6523 279.488 95.9488 279.734 95.2026C279.98 94.4565 279.947 93.6505 280.067 92.874C280.187 92.0974 280.523 91.2752 281.229 90.9295C282.735 90.1919 284.464 92.1097 286.071 91.6318C287.193 91.2981 287.784 89.9073 288.932 89.674C289.753 89.5071 290.543 89.9949 291.306 90.3406C292.069 90.6864 293.098 90.8464 293.638 90.2056C293.995 89.7812 294.033 89.1013 294.507 88.8129C295.075 88.4674 295.786 88.9485 296.216 89.4555C296.646 89.9625 297.121 90.5825 297.786 90.564C298.668 90.5395 299.343 89.3655 300.18 89.644C301.124 89.9584 300.69 91.4697 301.263 92.2836C301.747 92.9717 302.762 92.9312 303.596 92.8175C303.736 92.8318 303.878 92.8101 304.008 92.7546C304.138 92.699 304.252 92.6115 304.339 92.5C304.426 92.3885 304.483 92.2568 304.505 92.1173C304.527 91.9777 304.514 91.8348 304.466 91.7019L304.117 87.0834C304.116 86.7651 304.046 86.4508 303.913 86.1617C303.671 85.7224 303.169 85.4999 302.827 85.1323C302.109 84.3593 302.144 83.0041 301.251 82.442C300.787 82.1501 300.181 82.1589 299.72 81.8619C299.13 81.4809 298.94 80.7181 298.526 80.1502C297.935 79.3382 296.902 78.9618 295.903 78.8585C294.904 78.7552 293.895 78.8798 292.891 78.847C290.85 78.7805 288.809 78.2061 286.758 78.5423C284.969 78.8357 284.217 80.354 283.005 81.5219Z" fill="#2F2E41"/>
</g>
<defs>
<clipPath id="clip0">
<rect width="378" height="333" fill="white"/>
</clipPath>
</defs>
</svg>
