<svg width="462" height="295" viewBox="0 0 462 295" fill="none" xmlns="http://www.w3.org/2000/svg">
<path d="M82.1713 292.433C86.577 288.708 89.2531 282.824 88.5513 277.095C87.8495 271.366 83.5027 266.099 77.8643 264.883C72.226 263.666 65.7987 267.034 64.0861 272.545C63.1436 261.92 62.0575 250.849 56.4118 241.8C51.2998 233.606 42.4457 227.743 32.8498 226.695C23.254 225.646 13.1508 229.607 7.16616 237.186C1.18157 244.765 -0.283742 255.783 3.90771 264.484C6.99541 270.894 12.684 275.664 18.6443 279.545C37.904 291.98 61.0036 297.036 83.6928 293.785L82.1713 292.433Z" fill="#9C8E5E"/>
<path d="M16.6554 229.827C24.5731 236.28 31.8369 243.498 38.3415 251.375C44.8471 259.244 50.5746 267.726 55.4436 276.702C58.1651 281.737 60.6099 286.917 62.7671 292.219C63.2069 293.298 61.4568 293.767 61.0218 292.701C57.2009 283.354 52.4738 274.404 46.9081 265.98C41.3695 257.586 35.0303 249.75 27.9794 242.581C23.9915 238.528 19.7838 234.698 15.3756 231.107C14.472 230.371 15.7592 229.096 16.6554 229.827Z" fill="white"/>
<path d="M345.081 0H106.487C105.578 0.00100953 104.706 0.362884 104.063 1.00624C103.42 1.64959 103.059 2.52187 103.058 3.43171V165.212C103.059 166.122 103.42 166.994 104.063 167.638C104.706 168.281 105.578 168.643 106.487 168.644H345.081C345.99 168.643 346.862 168.281 347.505 167.638C348.148 166.994 348.509 166.122 348.51 165.212V3.43171C348.509 2.52187 348.148 1.64959 347.505 1.00624C346.862 0.362884 345.99 0.00100953 345.081 0ZM347.531 165.212C347.53 165.862 347.272 166.485 346.813 166.945C346.354 167.405 345.731 167.663 345.081 167.663H106.487C105.837 167.663 105.215 167.405 104.755 166.945C104.296 166.485 104.038 165.862 104.037 165.212V3.43171C104.038 2.78168 104.296 2.15836 104.755 1.69872C105.215 1.23909 105.837 0.980747 106.487 0.980487H345.081C345.731 0.980747 346.354 1.23909 346.813 1.69872C347.272 2.15836 347.53 2.78168 347.531 3.43171V165.212Z" fill="#3F3D56"/>
<path d="M348.021 13.7464H103.548V14.7269H348.021V13.7464Z" fill="#3F3D56"/>
<path d="M111.877 10.2951C113.501 10.2951 114.817 8.97818 114.817 7.35366C114.817 5.72913 113.501 4.41219 111.877 4.41219C110.254 4.41219 108.938 5.72913 108.938 7.35366C108.938 8.97818 110.254 10.2951 111.877 10.2951Z" fill="#3F3D56"/>
<path d="M120.328 10.2951C121.952 10.2951 123.268 8.97818 123.268 7.35366C123.268 5.72913 121.952 4.41219 120.328 4.41219C118.705 4.41219 117.389 5.72913 117.389 7.35366C117.389 8.97818 118.705 10.2951 120.328 10.2951Z" fill="#3F3D56"/>
<path d="M128.779 10.2951C130.403 10.2951 131.719 8.97818 131.719 7.35366C131.719 5.72913 130.403 4.41219 128.779 4.41219C127.156 4.41219 125.84 5.72913 125.84 7.35366C125.84 8.97818 127.156 10.2951 128.779 10.2951Z" fill="#3F3D56"/>
<path d="M246.362 36.5232H205.208C204.298 36.5232 203.426 36.1616 202.783 35.518C202.14 34.8745 201.778 34.0016 201.778 33.0914C201.778 32.1813 202.14 31.3084 202.783 30.6649C203.426 30.0213 204.298 29.6597 205.208 29.6597H246.362C247.271 29.6597 248.143 30.0213 248.787 30.6649C249.43 31.3084 249.791 32.1813 249.791 33.0914C249.791 34.0016 249.43 34.8745 248.787 35.518C248.143 36.1616 247.271 36.5232 246.362 36.5232Z" fill="#CCCCCC"/>
<path d="M274.532 53.1914H177.037C176.127 53.1914 175.255 52.8299 174.612 52.1863C173.969 51.5427 173.607 50.6699 173.607 49.7597C173.607 48.8496 173.969 47.9767 174.612 47.3331C175.255 46.6896 176.127 46.328 177.037 46.328H274.532C275.442 46.328 276.314 46.6896 276.957 47.3331C277.6 47.9767 277.962 48.8496 277.962 49.7597C277.962 50.6699 277.6 51.5427 276.957 52.1863C276.314 52.8299 275.442 53.1914 274.532 53.1914Z" fill="#CCCCCC"/>
<path d="M303.772 155.628C300.076 155.628 296.464 154.532 293.391 152.477C290.318 150.423 287.923 147.503 286.509 144.086C285.095 140.67 284.725 136.911 285.446 133.284C286.167 129.657 287.946 126.326 290.56 123.711C293.173 121.096 296.502 119.315 300.126 118.594C303.751 117.872 307.508 118.243 310.922 119.658C314.336 121.073 317.254 123.469 319.307 126.544C321.361 129.619 322.456 133.234 322.456 136.931C322.451 141.888 320.48 146.641 316.978 150.146C313.475 153.651 308.725 155.623 303.772 155.628ZM303.772 119.524C300.331 119.524 296.968 120.545 294.107 122.458C291.246 124.37 289.016 127.089 287.7 130.27C286.383 133.451 286.039 136.951 286.71 140.327C287.381 143.704 289.038 146.806 291.471 149.24C293.904 151.675 297.003 153.333 300.378 154.004C303.752 154.676 307.25 154.331 310.429 153.014C313.608 151.696 316.325 149.465 318.236 146.602C320.148 143.74 321.168 140.374 321.168 136.931C321.163 132.316 319.328 127.892 316.067 124.628C312.806 121.365 308.384 119.529 303.772 119.524Z" fill="#3F3D56"/>
<path d="M147.124 105.553C143.429 105.553 139.816 104.457 136.744 102.402C133.671 100.348 131.276 97.4279 129.862 94.0115C128.448 90.5951 128.078 86.8358 128.798 83.209C129.519 79.5821 131.299 76.2507 133.912 73.6359C136.525 71.0211 139.854 69.2404 143.479 68.5189C147.103 67.7975 150.86 68.1678 154.275 69.5829C157.689 70.998 160.607 73.3944 162.66 76.4691C164.713 79.5438 165.809 83.1587 165.809 86.8566C165.803 91.8136 163.833 96.5659 160.33 100.071C156.827 103.576 152.078 105.548 147.124 105.553ZM147.124 69.4491C143.684 69.4491 140.32 70.4701 137.459 72.3828C134.599 74.2956 132.369 77.0142 131.052 80.195C129.736 83.3758 129.391 86.8759 130.062 90.2526C130.734 93.6293 132.39 96.731 134.823 99.1655C137.256 101.6 140.356 103.258 143.73 103.93C147.105 104.601 150.603 104.256 153.781 102.939C156.96 101.621 159.677 99.3902 161.589 96.5276C163.5 93.665 164.52 90.2994 164.52 86.8566C164.515 82.2414 162.681 77.8168 159.419 74.5534C156.158 71.29 151.736 69.4543 147.124 69.4491Z" fill="#3F3D56"/>
<path d="M154.383 96.7679C153.893 96.768 153.424 96.5738 153.078 96.228C152.732 95.8821 152.537 95.4128 152.536 94.9233V84.4328C152.536 83.9438 152.731 83.4749 153.076 83.1291C153.422 82.7833 153.891 82.5888 154.379 82.5882H154.383C154.871 82.5888 155.34 82.7833 155.685 83.1291C156.031 83.4749 156.225 83.9438 156.226 84.4328V94.9233C156.225 95.4123 156.031 95.8812 155.685 96.227C155.34 96.5728 154.871 96.7673 154.383 96.7679ZM149.569 96.7679C149.325 96.7704 149.083 96.7245 148.857 96.633C148.631 96.5415 148.425 96.4061 148.251 96.2347C148.077 96.0633 147.939 95.8592 147.845 95.6341C147.75 95.409 147.701 95.1675 147.7 94.9233V89.2724C147.7 88.7833 147.895 88.3145 148.24 87.9687C148.586 87.6229 149.054 87.4285 149.543 87.4279H149.569C150.058 87.4285 150.527 87.6229 150.872 87.9687C151.218 88.3145 151.412 88.7833 151.413 89.2724V94.9233C151.412 95.4123 151.218 95.8812 150.872 96.227C150.527 96.5728 150.058 96.7673 149.569 96.7679ZM144.71 96.7679C144.221 96.768 143.751 96.5738 143.405 96.228C143.059 95.8821 142.864 95.4128 142.863 94.9233V78.7899C142.864 78.3008 143.058 77.8319 143.404 77.4861C143.749 77.1403 144.218 76.9458 144.707 76.9452H144.71C145.199 76.9458 145.667 77.1403 146.013 77.4861C146.358 77.8319 146.553 78.3008 146.553 78.7899V94.9233C146.553 95.4123 146.358 95.8812 146.013 96.227C145.667 96.5728 145.199 96.7673 144.71 96.7679ZM139.869 96.7679C139.626 96.7682 139.386 96.7206 139.162 96.6279C138.938 96.5352 138.735 96.3993 138.563 96.2278C138.392 96.0564 138.256 95.8528 138.164 95.6287C138.071 95.4046 138.023 95.1644 138.023 94.9219L138.025 92.4988C138.026 92.0096 138.22 91.5405 138.566 91.1948C138.912 90.849 139.381 90.6549 139.87 90.6551C140.358 90.6553 140.827 90.8498 141.173 91.1959C141.518 91.5419 141.712 92.0112 141.712 92.5003V94.9233C141.711 95.4123 141.517 95.8812 141.172 96.227C140.826 96.5728 140.357 96.7673 139.869 96.7679Z" fill="#F3B114"/>
<path d="M430.568 293.807C426.872 293.807 423.26 292.71 420.187 290.656C417.114 288.602 414.719 285.681 413.305 282.265C411.891 278.849 411.521 275.089 412.242 271.463C412.963 267.836 414.742 264.504 417.355 261.889C419.969 259.275 423.298 257.494 426.922 256.772C430.547 256.051 434.304 256.421 437.718 257.836C441.132 259.252 444.05 261.648 446.103 264.723C448.157 267.797 449.252 271.412 449.252 275.11C449.247 280.067 447.276 284.819 443.774 288.325C440.271 291.83 435.521 293.801 430.568 293.807ZM430.568 257.703C427.127 257.703 423.764 258.724 420.903 260.636C418.042 262.549 415.812 265.268 414.496 268.449C413.179 271.629 412.834 275.129 413.506 278.506C414.177 281.883 415.834 284.985 418.267 287.419C420.7 289.854 423.799 291.511 427.174 292.183C430.548 292.855 434.046 292.51 437.225 291.193C440.404 289.875 443.12 287.644 445.032 284.781C446.944 281.919 447.964 278.553 447.964 275.11C447.959 270.495 446.124 266.07 442.863 262.807C439.602 259.544 435.18 257.708 430.568 257.703Z" fill="#3F3D56"/>
<path d="M435.719 271.865L432.076 277.439C432.369 277.794 432.528 278.241 432.526 278.701C432.525 279.233 432.314 279.742 431.938 280.117C431.562 280.493 431.053 280.704 430.522 280.704C429.991 280.704 429.482 280.493 429.106 280.117C428.73 279.742 428.519 279.233 428.518 278.701C428.519 278.572 428.53 278.444 428.552 278.316L426.148 276.915C425.838 277.216 425.438 277.408 425.01 277.462C424.581 277.516 424.146 277.43 423.771 277.216L421.213 279.614V282.004C421.214 282.477 421.402 282.93 421.735 283.264C422.069 283.599 422.522 283.788 422.994 283.79H438.138C438.611 283.788 439.064 283.599 439.398 283.265C439.733 282.93 439.921 282.477 439.923 282.004V273.139L437.477 271.511C437.231 271.702 436.944 271.834 436.639 271.895C436.334 271.956 436.019 271.946 435.719 271.865H435.719Z" fill="#F3B114"/>
<path d="M424.76 273.482C425.291 273.482 425.801 273.693 426.177 274.069C426.553 274.445 426.764 274.955 426.764 275.487V275.745L429.272 277.15C429.63 276.856 430.078 276.696 430.541 276.696C430.687 276.697 430.833 276.712 430.976 276.742L434.626 271.088C434.444 270.831 434.325 270.536 434.278 270.224C434.232 269.913 434.26 269.595 434.359 269.297C434.459 268.998 434.627 268.728 434.851 268.507C435.075 268.286 435.348 268.121 435.647 268.025C435.947 267.93 436.265 267.907 436.575 267.957C436.885 268.008 437.179 268.131 437.433 268.317C437.687 268.503 437.893 268.747 438.035 269.027C438.177 269.308 438.251 269.618 438.25 269.933C438.25 270.092 438.232 270.251 438.196 270.406L439.923 271.561V268.216C439.921 267.743 439.733 267.29 439.398 266.956C439.064 266.621 438.611 266.432 438.138 266.43H422.994C422.522 266.432 422.069 266.621 421.735 266.956C421.402 267.29 421.214 267.744 421.213 268.216V277.797L422.882 276.196C422.771 275.893 422.734 275.568 422.775 275.248C422.816 274.928 422.934 274.623 423.118 274.358C423.302 274.093 423.548 273.877 423.834 273.728C424.12 273.579 424.437 273.501 424.76 273.501V273.482Z" fill="#F3B114"/>
<path d="M226.526 105.553C222.83 105.553 219.218 104.457 216.145 102.402C213.072 100.348 210.677 97.4279 209.263 94.0115C207.849 90.5951 207.479 86.8358 208.2 83.209C208.921 79.5821 210.7 76.2507 213.313 73.6359C215.927 71.0211 219.256 69.2404 222.88 68.5189C226.505 67.7975 230.262 68.1678 233.676 69.5829C237.09 70.998 240.008 73.3944 242.061 76.4691C244.114 79.5438 245.21 83.1587 245.21 86.8566C245.205 91.8136 243.234 96.5659 239.732 100.071C236.229 103.576 231.479 105.548 226.526 105.553ZM226.526 69.4491C223.085 69.4491 219.722 70.4701 216.861 72.3828C214 74.2956 211.77 77.0142 210.454 80.195C209.137 83.3758 208.792 86.8759 209.464 90.2526C210.135 93.6293 211.792 96.731 214.225 99.1655C216.658 101.6 219.757 103.258 223.132 103.93C226.506 104.601 230.004 104.256 233.183 102.939C236.362 101.621 239.078 99.3902 240.99 96.5276C242.901 93.665 243.922 90.2994 243.922 86.8566C243.917 82.2414 242.082 77.8168 238.821 74.5534C235.559 71.29 231.138 69.4543 226.526 69.4491Z" fill="#3F3D56"/>
<path d="M216.599 93.634C216.33 93.634 216.068 93.5543 215.844 93.4051C215.621 93.2558 215.447 93.0437 215.344 92.7955C215.241 92.5474 215.214 92.2742 215.266 92.0106C215.318 91.747 215.447 91.5048 215.637 91.3145L222.541 84.3868C222.648 84.2784 222.776 84.1924 222.917 84.1338C223.058 84.0753 223.209 84.0453 223.361 84.0457H223.362C223.515 84.0453 223.666 84.0751 223.806 84.1334C223.947 84.1918 224.075 84.2775 224.183 84.3857L227.385 87.5896C227.449 87.6545 227.526 87.706 227.61 87.7411C227.695 87.7761 227.785 87.794 227.877 87.7937H227.877C227.969 87.794 228.059 87.7761 228.144 87.741C228.228 87.7059 228.305 87.6544 228.369 87.5894L232.89 83.0583C232.912 83.0367 232.929 83.0111 232.94 82.9829C232.952 82.9548 232.958 82.9245 232.958 82.894C232.958 82.8635 232.952 82.8333 232.94 82.8052C232.928 82.777 232.911 82.7514 232.89 82.7299L231.427 81.2688C231.33 81.1714 231.263 81.0473 231.236 80.9121C231.209 80.7769 231.223 80.6368 231.276 80.5094C231.328 80.382 231.417 80.2731 231.532 80.1965C231.646 80.1199 231.781 80.0791 231.919 80.0791H237.114C237.299 80.0793 237.475 80.1527 237.606 80.2833C237.737 80.414 237.81 80.591 237.81 80.7757V85.9709C237.81 86.1087 237.769 86.2434 237.693 86.358C237.616 86.4726 237.508 86.5619 237.38 86.6146C237.253 86.6674 237.113 86.6812 236.978 86.6543C236.843 86.6275 236.719 86.5611 236.622 86.4637L235.157 84.9977C235.135 84.9762 235.11 84.9591 235.082 84.9474C235.053 84.9357 235.023 84.9297 234.993 84.9297C234.962 84.9297 234.932 84.9357 234.904 84.9474C234.876 84.9591 234.85 84.9762 234.829 84.9977L228.707 91.119C228.6 91.2272 228.472 91.3129 228.331 91.3712C228.19 91.4296 228.039 91.4594 227.887 91.459H227.887C227.734 91.4594 227.583 91.4295 227.443 91.3711C227.302 91.3127 227.174 91.227 227.066 91.1188L223.863 87.9133C223.73 87.7866 223.554 87.716 223.371 87.716C223.187 87.716 223.011 87.7866 222.878 87.9133L217.559 93.2356C217.433 93.3623 217.284 93.4628 217.119 93.5311C216.954 93.5995 216.777 93.6345 216.599 93.634Z" fill="#F3B114"/>
<path d="M226.526 154.578C222.83 154.578 219.218 153.481 216.145 151.427C213.072 149.372 210.677 146.452 209.263 143.036C207.849 139.62 207.479 135.86 208.2 132.233C208.921 128.607 210.7 125.275 213.313 122.66C215.927 120.045 219.256 118.265 222.88 117.543C226.505 116.822 230.262 117.192 233.676 118.607C237.09 120.022 240.008 122.419 242.061 125.494C244.114 128.568 245.21 132.183 245.21 135.881C245.205 140.838 243.234 145.59 239.732 149.095C236.229 152.601 231.479 154.572 226.526 154.578Z" fill="#D17428"/>
<path d="M303.934 104.083C300.238 104.083 296.626 102.986 293.553 100.932C290.48 98.8773 288.086 95.9572 286.671 92.5408C285.257 89.1244 284.887 85.3651 285.608 81.7382C286.329 78.1114 288.109 74.7799 290.722 72.1651C293.335 69.5503 296.664 67.7696 300.289 67.0482C303.913 66.3268 307.67 66.697 311.084 68.1121C314.498 69.5273 317.416 71.9237 319.47 74.9984C321.523 78.0731 322.618 81.6879 322.618 85.3858C322.613 90.3428 320.643 95.0952 317.14 98.6003C313.637 102.105 308.888 104.077 303.934 104.083Z" fill="#D17428"/>
<path d="M147.124 117.184C143.917 117.188 140.765 118.015 137.968 119.586C142.01 119.943 145.799 121.703 148.682 124.56C151.565 127.418 153.359 131.193 153.754 135.234C154.149 139.275 153.121 143.327 150.846 146.689C148.572 150.052 145.195 152.513 141.299 153.648C142.029 153.89 142.774 154.085 143.528 154.231C144.713 154.465 145.917 154.581 147.124 154.579C152.08 154.579 156.833 152.61 160.337 149.103C163.842 145.596 165.81 140.841 165.81 135.882C165.81 130.923 163.842 126.167 160.337 122.66C156.833 119.154 152.08 117.184 147.124 117.184Z" fill="#D17428"/>
<path d="M140.036 118.586C138.852 118.349 137.647 118.23 136.44 118.233C131.635 118.228 127.013 120.073 123.531 123.385C120.049 126.698 117.975 131.224 117.738 136.026C117.5 140.828 119.119 145.536 122.257 149.177C125.395 152.817 129.813 155.109 134.594 155.578C139.376 156.048 144.154 154.658 147.939 151.697C151.725 148.737 154.226 144.432 154.926 139.676C155.626 134.92 154.47 130.076 151.697 126.15C148.925 122.224 144.749 119.515 140.036 118.586ZM141.3 153.648C138.907 154.345 136.392 154.519 133.926 154.158C131.46 153.798 129.101 152.912 127.007 151.559C124.913 150.207 123.134 148.421 121.79 146.321C120.446 144.221 119.568 141.857 119.216 139.388C118.865 136.919 119.047 134.403 119.752 132.011C120.456 129.619 121.666 127.407 123.299 125.523C124.932 123.639 126.95 122.129 129.217 121.093C131.484 120.058 133.947 119.522 136.44 119.522C136.954 119.522 137.464 119.547 137.968 119.586C142.01 119.943 145.8 121.703 148.682 124.56C151.565 127.418 153.359 131.193 153.754 135.234C154.149 139.275 153.121 143.327 150.847 146.689C148.573 150.052 145.196 152.513 141.3 153.648Z" fill="#3F3D56"/>
<path d="M147.319 133.64C146.701 130.931 145.034 128.578 142.685 127.098C140.335 125.617 137.495 125.131 134.787 125.744C134.522 125.804 134.248 125.879 134.007 125.953L136.504 136.933L147.476 134.438C147.43 134.183 147.379 133.904 147.319 133.64Z" fill="#F3B114"/>
<path d="M146.256 136.366L135.279 138.86L132.787 127.88C130.873 128.473 129.169 129.602 127.877 131.134C126.585 132.666 125.759 134.537 125.497 136.525C125.235 138.512 125.548 140.533 126.4 142.348C127.251 144.163 128.604 145.695 130.299 146.764C131.994 147.832 133.96 148.392 135.963 148.377C137.966 148.362 139.923 147.772 141.602 146.677C143.28 145.583 144.61 144.03 145.433 142.202C146.257 140.375 146.539 138.349 146.247 136.366H146.256Z" fill="#F3B114"/>
<path d="M339.145 224.262C335.449 224.262 331.837 223.166 328.764 221.111C325.691 219.057 323.296 216.137 321.882 212.721C320.468 209.304 320.098 205.545 320.819 201.918C321.54 198.291 323.32 194.96 325.933 192.345C328.546 189.73 331.875 187.949 335.5 187.228C339.124 186.506 342.881 186.877 346.295 188.292C349.709 189.707 352.627 192.103 354.681 195.178C356.734 198.253 357.829 201.868 357.829 205.566C357.824 210.523 355.854 215.275 352.351 218.78C348.848 222.285 344.099 224.257 339.145 224.262ZM339.145 188.158C335.704 188.158 332.341 189.179 329.48 191.092C326.619 193.005 324.389 195.723 323.073 198.904C321.756 202.085 321.412 205.585 322.083 208.962C322.754 212.338 324.411 215.44 326.844 217.874C329.277 220.309 332.376 221.967 335.751 222.639C339.125 223.31 342.623 222.965 345.802 221.648C348.981 220.33 351.698 218.099 353.609 215.237C355.521 212.374 356.541 209.008 356.541 205.566C356.536 200.95 354.701 196.526 351.44 193.262C348.179 189.999 343.757 188.163 339.145 188.158Z" fill="#3F3D56"/>
<path d="M347.207 213.057C346.523 213.057 345.854 212.855 345.286 212.475C344.717 212.095 344.273 211.555 344.011 210.923C343.749 210.291 343.68 209.595 343.813 208.924C343.946 208.253 344.275 207.636 344.758 207.152C345.241 206.668 345.857 206.338 346.528 206.204C347.199 206.07 347.894 206.138 348.526 206.399C349.158 206.661 349.698 207.104 350.079 207.673C350.459 208.241 350.662 208.91 350.663 209.595C350.663 210.512 350.299 211.392 349.651 212.041C349.003 212.691 348.124 213.056 347.207 213.057ZM339.145 213.057C338.229 213.056 337.35 212.691 336.703 212.043C336.055 211.395 335.69 210.516 335.689 209.599V201.532C335.69 200.615 336.055 199.737 336.703 199.089C337.351 198.442 338.229 198.078 339.145 198.078C340.061 198.078 340.939 198.442 341.587 199.089C342.235 199.737 342.599 200.615 342.6 201.532V209.599C342.599 210.516 342.235 211.395 341.587 212.043C340.939 212.691 340.061 213.056 339.145 213.057ZM331.085 213.057C330.168 213.056 329.289 212.691 328.641 212.042C327.993 211.394 327.628 210.514 327.627 209.597V206.374C327.627 205.456 327.991 204.576 328.64 203.927C329.288 203.278 330.168 202.913 331.085 202.913C332.002 202.913 332.882 203.278 333.53 203.927C334.178 204.576 334.543 205.456 334.543 206.374V209.597C334.542 210.514 334.177 211.394 333.529 212.042C332.881 212.691 332.002 213.056 331.085 213.057Z" fill="#F3B114"/>
<path d="M102.213 289.448L107.909 288.802L108.126 266.513L99.7207 267.467L102.213 289.448Z" fill="#A0616A"/>
<path d="M119.492 292.846L101.593 294.878L100.808 287.958L111.792 286.711C113.626 286.503 115.468 287.032 116.912 288.183C118.356 289.333 119.284 291.011 119.492 292.846L119.492 292.846Z" fill="#2F2E41"/>
<path d="M43.6431 289.092L49.3747 289.092L52.1012 266.97L43.6421 266.97L43.6431 289.092Z" fill="#A0616A"/>
<path d="M60.4287 294.417L42.4149 294.418L42.4146 287.454L53.4685 287.453C55.3144 287.453 57.0847 288.187 58.39 289.493C59.6953 290.799 60.4286 292.57 60.4287 294.417L60.4287 294.417Z" fill="#2F2E41"/>
<path d="M84.7663 190.163L88.0389 200.815L105.805 239.284L110.48 275.774L99.7269 276.242L93.1816 242.559L70.7407 218.232L51.105 281.856L42.2222 280.92C42.2222 280.92 49.7025 198.584 59.9879 190.163C59.9878 190.163 76.8185 182.21 84.7663 190.163Z" fill="#2F2E41"/>
<path d="M70.2493 144.201C76.5911 144.201 81.732 139.057 81.732 132.711C81.732 126.365 76.5911 121.221 70.2493 121.221C63.9076 121.221 58.7666 126.365 58.7666 132.711C58.7666 139.057 63.9076 144.201 70.2493 144.201Z" fill="#A0616A"/>
<path d="M85.9349 192.268C85.9349 192.268 87.3375 144.55 67.7017 147.825C48.066 151.1 56.2475 197.18 56.2475 197.18C56.2475 197.18 60.4552 205.601 70.7406 196.245C81.026 186.888 85.9349 192.268 85.9349 192.268Z" fill="#D17428"/>
<path d="M126.586 152.55C126.218 153.13 125.726 153.623 125.147 153.993C124.568 154.363 123.914 154.601 123.233 154.691C122.551 154.781 121.859 154.72 121.203 154.513C120.548 154.306 119.946 153.958 119.439 153.493L104.731 161.422L105.502 152.769L119.35 146.566C120.188 145.766 121.289 145.302 122.445 145.261C123.601 145.219 124.733 145.604 125.625 146.342C126.517 147.079 127.107 148.119 127.284 149.263C127.462 150.407 127.213 151.577 126.586 152.55L126.586 152.55Z" fill="#A0616A"/>
<path d="M70.1398 153.651L94.0143 157.689L115.41 147.583L118.658 154.533L95.2362 169.461C95.2362 169.461 70.44 171.146 64.7071 164.602C62.5573 162.149 62.3116 159.915 62.8441 158.082C63.3107 156.58 64.3099 155.301 65.6536 154.484C66.9973 153.668 68.5928 153.372 70.1398 153.651Z" fill="#D17428"/>
<path d="M68.8835 144.784C68.9383 144.735 68.981 144.674 69.008 144.605C69.035 144.537 69.0457 144.463 69.0392 144.389C69.0327 144.316 69.0092 144.245 68.9705 144.182C68.9319 144.12 68.8792 144.067 68.8165 144.028C67.7969 143.396 66.9661 142.501 66.4115 141.437C65.8569 140.373 65.599 139.179 65.6648 137.981C65.7306 136.782 66.1177 135.624 66.7855 134.627C67.4533 133.63 68.3771 132.831 69.4599 132.315C72.8359 130.704 77.4105 131.957 79.9062 128.862C80.4137 128.2 80.7726 127.436 80.9584 126.623C81.1441 125.809 81.1524 124.965 80.9827 124.148C80.4442 121.225 78.248 119.054 75.7885 117.566C72.7671 115.738 69.2945 114.794 65.7643 114.84C62.2341 114.886 58.7873 115.92 55.8144 117.826C52.8416 119.732 50.4615 122.432 48.944 125.622C47.4265 128.812 46.8321 132.363 47.2282 135.874C47.5457 138.687 48.4133 141.842 46.7414 144.127C45.2699 146.137 42.4925 146.514 40.0527 147.014C34.8197 148.085 29.7712 150.557 26.22 154.549C22.6688 158.542 20.7743 164.143 21.845 169.38C22.9157 174.616 27.2112 179.218 32.4907 180.03C36.788 180.691 41.2252 178.864 44.3809 175.872C47.5365 172.879 49.5312 168.838 50.7894 164.674C52.2827 159.731 52.8718 154.405 55.5678 150.002C58.2061 145.693 63.8915 142.605 68.3474 144.849C68.4328 144.893 68.5297 144.911 68.6254 144.9C68.721 144.888 68.811 144.848 68.8835 144.784Z" fill="#2F2E41"/>
<path d="M401.646 229.834C402.267 229.525 402.813 229.083 403.245 228.539C403.678 227.996 403.985 227.364 404.147 226.689C404.309 226.013 404.321 225.311 404.182 224.63C404.043 223.95 403.757 223.308 403.343 222.75L414.407 161.482L404.083 161.346L396.4 221.932C395.509 222.689 394.928 223.747 394.764 224.905C394.601 226.063 394.869 227.241 395.515 228.215C396.162 229.189 397.143 229.891 398.273 230.19C399.403 230.488 400.603 230.362 401.646 229.834H401.646Z" fill="#FFB8B8"/>
<path d="M369.603 226.929L365.684 245.559L366.174 287.229H373.522L376.952 246.539L382.341 229.381L369.603 226.929Z" fill="#FFB8B8"/>
<path d="M393.89 228.327L389.971 246.956L390.461 288.627H397.81L401.239 247.937L406.628 230.778L393.89 228.327Z" fill="#FFB8B8"/>
<path d="M363.607 286.756L375.191 286.727L375.209 294.025L356.332 294.072C356.329 293.114 356.516 292.164 356.88 291.278C357.244 290.391 357.779 289.586 358.455 288.906C359.131 288.227 359.933 287.687 360.817 287.318C361.701 286.949 362.649 286.758 363.607 286.756Z" fill="#2F2E41"/>
<path d="M388.075 287.544L399.658 287.515L399.677 294.813L380.8 294.86C380.797 293.902 380.983 292.952 381.348 292.066C381.712 291.179 382.247 290.374 382.923 289.694C383.598 289.015 384.401 288.475 385.285 288.106C386.169 287.737 387.117 287.546 388.075 287.544Z" fill="#2F2E41"/>
<path d="M387.485 135.569C394.131 135.569 399.518 130.178 399.518 123.528C399.518 116.878 394.131 111.487 387.485 111.487C380.84 111.487 375.452 116.878 375.452 123.528C375.452 130.178 380.84 135.569 387.485 135.569Z" fill="#FFB8B8"/>
<path d="M414.078 153.31C410.417 147.562 398.922 133.929 381.818 141.754C380.47 142.378 379.345 143.399 378.595 144.682C377.845 145.964 377.504 147.445 377.62 148.926C378.448 159.858 379.492 187.711 370.583 204.378C370.583 204.378 396.549 212.222 410.757 204.868C410.757 204.868 405.858 172.022 410.757 165.649C412.391 163.612 413.714 161.344 414.683 158.92C415.023 158.002 415.145 157.017 415.04 156.044C414.935 155.07 414.606 154.134 414.078 153.31Z" fill="#9C8E5E"/>
<path d="M409.287 152.902L414.095 154.907C414.415 155.04 414.691 155.263 414.889 155.547C415.087 155.832 415.2 156.167 415.215 156.514L415.656 167.119L404.878 166.139L409.287 152.902Z" fill="#9C8E5E"/>
<path d="M372.542 203.398C372.542 203.398 361.764 223.498 363.724 242.127L378.911 244.578L389.69 218.595L387.24 245.068L402.918 245.558C402.918 245.558 413.206 207.319 409.777 203.888L372.542 203.398Z" fill="#2F2E41"/>
<path d="M357.235 205.192C357.921 205.087 358.576 204.832 359.153 204.447C359.73 204.061 360.216 203.554 360.576 202.96C360.936 202.366 361.162 201.7 361.237 201.01C361.312 200.319 361.235 199.621 361.011 198.963L382.876 157.719L373.085 154.438L354.648 196.065C353.569 196.514 352.692 197.344 352.184 198.397C351.676 199.45 351.571 200.653 351.89 201.778C352.209 202.903 352.929 203.872 353.914 204.501C354.899 205.13 356.081 205.376 357.235 205.192H357.235Z" fill="#FFB8B8"/>
<path d="M385.861 146.554L381.811 144.741C381.811 144.741 378.377 142.611 375.333 147.298C372.29 151.985 369.002 162.256 369.002 162.256L382.215 165.977L385.861 146.554Z" fill="#9C8E5E"/>
<path d="M389.413 129.325C389.845 127.824 389.72 125.793 388.266 125.225C387.508 124.929 386.663 125.163 385.854 125.246C384.27 125.401 382.686 124.965 381.405 124.02C379.901 122.901 378.971 121.191 378.089 119.536L376.755 117.033C376.458 116.511 376.204 115.966 375.997 115.402C375.255 113.192 376.061 110.634 377.712 108.989C379.437 107.383 381.706 106.492 384.062 106.497C386.4 106.514 388.709 107.009 390.848 107.952C394.651 109.503 398.095 111.818 400.967 114.754C402.844 116.676 404.553 119.179 404.161 121.838C403.856 123.908 402.348 125.565 400.911 127.083L395.695 132.592C394.772 133.568 393.785 134.583 392.495 134.958C391.206 135.333 389.544 134.782 389.193 133.485C389.193 133.486 388.981 130.826 389.413 129.325Z" fill="#2F2E41"/>
<path d="M461.51 295H0.489926C0.359989 295 0.235374 294.948 0.143496 294.856C0.0516167 294.764 0 294.64 0 294.51C0 294.38 0.0516167 294.255 0.143496 294.163C0.235374 294.071 0.359989 294.02 0.489926 294.02H461.51C461.64 294.02 461.765 294.071 461.857 294.163C461.948 294.255 462 294.38 462 294.51C462 294.64 461.948 294.764 461.857 294.856C461.765 294.948 461.64 295 461.51 295Z" fill="#3F3D56"/>
<path d="M310.63 144.775H296.912C296.522 144.775 296.148 144.62 295.873 144.345C295.597 144.069 295.442 143.695 295.442 143.305C295.442 142.915 295.597 142.54 295.873 142.265C296.148 141.989 296.522 141.834 296.912 141.834H310.63C311.02 141.834 311.394 141.989 311.669 142.265C311.945 142.54 312.1 142.915 312.1 143.305C312.1 143.695 311.945 144.069 311.669 144.345C311.394 144.62 311.02 144.775 310.63 144.775Z" fill="#F3B114"/>
<path d="M310.63 138.402H296.912C296.522 138.402 296.148 138.247 295.873 137.971C295.597 137.696 295.442 137.321 295.442 136.931C295.442 136.541 295.597 136.167 295.873 135.891C296.148 135.616 296.522 135.461 296.912 135.461H310.63C311.02 135.461 311.394 135.616 311.669 135.891C311.945 136.167 312.1 136.541 312.1 136.931C312.1 137.321 311.945 137.696 311.669 137.971C311.394 138.247 311.02 138.402 310.63 138.402Z" fill="#F3B114"/>
<path d="M310.63 132.029H296.912C296.522 132.029 296.148 131.874 295.873 131.598C295.597 131.322 295.442 130.948 295.442 130.558C295.442 130.168 295.597 129.794 295.873 129.518C296.148 129.242 296.522 129.088 296.912 129.088H310.63C311.02 129.088 311.394 129.242 311.669 129.518C311.945 129.794 312.1 130.168 312.1 130.558C312.1 130.948 311.945 131.322 311.669 131.598C311.394 131.874 311.02 132.029 310.63 132.029Z" fill="#F3B114"/>
</svg>
