<svg width="425" height="244" viewBox="0 0 425 244" fill="none" xmlns="http://www.w3.org/2000/svg">
<g clip-path="url(#clip0)">
<path d="M92.0858 216.588C104.293 216.588 114.188 206.7 114.188 194.503C114.188 182.306 104.293 172.418 92.0858 172.418C79.879 172.418 69.9834 182.306 69.9834 194.503C69.9834 206.7 79.879 216.588 92.0858 216.588Z" fill="#F2F2F2"/>
<path d="M95.6796 213.356C107.886 213.356 117.782 203.468 117.782 191.271C117.782 179.074 107.886 169.186 95.6796 169.186C83.4727 169.186 73.5771 179.074 73.5771 191.271C73.5771 203.468 83.4727 213.356 95.6796 213.356Z" fill="#F3B114"/>
<path d="M386.946 166.835H113.48V167.58H386.946V166.835Z" fill="#3F3D56"/>
<path d="M255.108 6.95315H158.045V4.95419H114.032V6.95315H16.5686C15.7063 6.95315 14.8526 7.12284 14.056 7.45253C13.2594 7.78222 12.5356 8.26545 11.926 8.87464C11.3163 9.48382 10.8327 10.207 10.5027 11.003C10.1728 11.7989 10.0029 12.652 10.0029 13.5135V146.317C10.0029 148.057 10.6947 149.725 11.926 150.956C13.1572 152.186 14.8272 152.877 16.5686 152.877H255.108C256.85 152.877 258.52 152.186 259.751 150.956C260.982 149.725 261.674 148.057 261.674 146.317V13.5135C261.674 12.652 261.504 11.7989 261.174 11.003C260.844 10.207 260.361 9.48382 259.751 8.87464C259.141 8.26545 258.418 7.78222 257.621 7.45253C256.824 7.12284 255.971 6.95315 255.108 6.95315Z" fill="#9C8E5E"/>
<path d="M252.871 18.5471H18.8052V150.478H252.871V18.5471Z" fill="#F3B114"/>
<path d="M135.638 14.949C136.964 14.949 138.039 13.875 138.039 12.5502C138.039 11.2254 136.964 10.1515 135.638 10.1515C134.313 10.1515 133.238 11.2254 133.238 12.5502C133.238 13.875 134.313 14.949 135.638 14.949Z" fill="#E6535E"/>
<path opacity="0.1" d="M185.932 150.479H18.8052V18.5472L185.932 150.479Z" fill="black"/>
<path d="M55.4293 140.606C67.8553 140.606 77.9285 130.541 77.9285 118.125C77.9285 105.709 67.8553 95.6438 55.4293 95.6438C43.0034 95.6438 32.9302 105.709 32.9302 118.125C32.9302 130.541 43.0034 140.606 55.4293 140.606Z" fill="#FBECDB"/>
<path d="M212.117 89.6987H190.252V94.2637H212.117V89.6987Z" fill="#3F3D56"/>
<path d="M238.55 54.157H163.819V56.1134H238.55V54.157Z" fill="#3F3D56"/>
<path d="M238.55 60.3523H163.819V62.3088H238.55V60.3523Z" fill="#3F3D56"/>
<path d="M238.55 66.5477H163.819V68.5041H238.55V66.5477Z" fill="#3F3D56"/>
<path d="M238.55 72.743H163.819V74.6995H238.55V72.743Z" fill="#3F3D56"/>
<path d="M238.55 78.9384H163.819V80.8948H238.55V78.9384Z" fill="#3F3D56"/>
<path d="M238.549 21.2237H229.412V30.3537H238.549V21.2237Z" fill="#F2F2F2"/>
<path d="M242.792 34.5926H231.697V23.5062H242.792V34.5926ZM232.179 34.1106H242.31V23.9882H232.179V34.1106Z" fill="#3F3D56"/>
<path d="M268.246 148.08H245.403V146.435C245.403 146.392 245.394 146.35 245.378 146.31C245.361 146.271 245.337 146.235 245.307 146.205C245.277 146.174 245.241 146.15 245.201 146.134C245.162 146.118 245.119 146.109 245.076 146.109H237.244C237.201 146.109 237.159 146.118 237.119 146.134C237.08 146.15 237.044 146.174 237.014 146.205C236.983 146.235 236.959 146.271 236.943 146.31C236.926 146.35 236.918 146.392 236.918 146.435V148.08H232.023V146.435C232.023 146.392 232.015 146.35 231.998 146.31C231.982 146.271 231.958 146.235 231.927 146.205C231.897 146.174 231.861 146.15 231.822 146.134C231.782 146.118 231.74 146.109 231.697 146.109H223.865C223.822 146.109 223.779 146.118 223.74 146.134C223.7 146.15 223.664 146.174 223.634 146.205C223.604 146.235 223.58 146.271 223.563 146.31C223.547 146.35 223.538 146.392 223.538 146.435V148.08H218.643V146.435C218.643 146.392 218.635 146.35 218.618 146.31C218.602 146.271 218.578 146.235 218.548 146.205C218.517 146.174 218.481 146.15 218.442 146.134C218.402 146.118 218.36 146.109 218.317 146.109H210.485C210.442 146.109 210.4 146.118 210.36 146.134C210.321 146.15 210.285 146.174 210.254 146.205C210.224 146.235 210.2 146.271 210.184 146.31C210.167 146.35 210.159 146.392 210.159 146.435V148.08H205.264V146.435C205.264 146.392 205.255 146.35 205.239 146.31C205.222 146.271 205.198 146.235 205.168 146.205C205.138 146.174 205.102 146.15 205.062 146.134C205.023 146.118 204.98 146.109 204.937 146.109H197.105C197.062 146.109 197.02 146.118 196.98 146.134C196.941 146.15 196.905 146.174 196.875 146.205C196.844 146.235 196.82 146.271 196.804 146.31C196.787 146.35 196.779 146.392 196.779 146.435V148.08H191.884V146.435C191.884 146.392 191.876 146.35 191.859 146.31C191.843 146.271 191.819 146.235 191.788 146.205C191.758 146.174 191.722 146.15 191.683 146.134C191.643 146.118 191.601 146.109 191.558 146.109H183.726C183.683 146.109 183.64 146.118 183.601 146.134C183.561 146.15 183.525 146.174 183.495 146.205C183.465 146.235 183.441 146.271 183.424 146.31C183.408 146.35 183.399 146.392 183.399 146.435V148.08H178.504V146.435C178.504 146.392 178.496 146.35 178.479 146.31C178.463 146.271 178.439 146.235 178.409 146.205C178.378 146.174 178.342 146.15 178.303 146.134C178.263 146.118 178.221 146.109 178.178 146.109H170.346C170.303 146.109 170.261 146.118 170.221 146.134C170.182 146.15 170.146 146.174 170.115 146.205C170.085 146.235 170.061 146.271 170.044 146.31C170.028 146.35 170.02 146.392 170.02 146.435V148.08H165.125V146.435C165.125 146.392 165.116 146.35 165.1 146.31C165.083 146.271 165.059 146.235 165.029 146.205C164.999 146.174 164.963 146.15 164.923 146.134C164.884 146.118 164.841 146.109 164.798 146.109H103.448C103.405 146.109 103.362 146.118 103.323 146.134C103.283 146.15 103.247 146.174 103.217 146.205C103.187 146.235 103.163 146.271 103.146 146.31C103.13 146.35 103.121 146.392 103.121 146.435V148.08H98.2263V146.435C98.2263 146.392 98.2179 146.35 98.2015 146.31C98.1851 146.271 98.1611 146.235 98.1308 146.205C98.1004 146.174 98.0645 146.15 98.0249 146.134C97.9853 146.118 97.9428 146.109 97.9 146.109H90.068C90.0251 146.109 89.9827 146.118 89.9431 146.134C89.9035 146.15 89.8675 146.174 89.8372 146.205C89.8069 146.235 89.7829 146.271 89.7665 146.31C89.7501 146.35 89.7417 146.392 89.7417 146.435V148.08H84.8467V146.435C84.8467 146.392 84.8382 146.35 84.8218 146.31C84.8054 146.271 84.7814 146.235 84.7511 146.205C84.7208 146.174 84.6848 146.15 84.6452 146.134C84.6056 146.118 84.5632 146.109 84.5203 146.109H76.6883C76.6455 146.109 76.603 146.118 76.5634 146.134C76.5238 146.15 76.4879 146.174 76.4576 146.205C76.4273 146.235 76.4032 146.271 76.3868 146.31C76.3704 146.35 76.362 146.392 76.362 146.435V148.08H71.467V146.435C71.467 146.392 71.4585 146.35 71.4422 146.31C71.4258 146.271 71.4017 146.235 71.3714 146.205C71.3411 146.174 71.3051 146.15 71.2655 146.134C71.2259 146.118 71.1835 146.109 71.1407 146.109H63.3087C63.2658 146.109 63.2234 146.118 63.1838 146.134C63.1442 146.15 63.1082 146.174 63.0779 146.205C63.0476 146.235 63.0236 146.271 63.0072 146.31C62.9908 146.35 62.9823 146.392 62.9823 146.435V148.08H58.0873V146.435C58.0873 146.392 58.0789 146.35 58.0625 146.31C58.0461 146.271 58.0221 146.235 57.9918 146.205C57.9615 146.174 57.9255 146.15 57.8859 146.134C57.8463 146.118 57.8039 146.109 57.761 146.109H49.929C49.8861 146.109 49.8437 146.118 49.8041 146.134C49.7645 146.15 49.7285 146.174 49.6982 146.205C49.6679 146.235 49.6439 146.271 49.6275 146.31C49.6111 146.35 49.6027 146.392 49.6027 146.435V148.08H44.7077V146.435C44.7077 146.392 44.6992 146.35 44.6828 146.31C44.6664 146.271 44.6424 146.235 44.6121 146.205C44.5818 146.174 44.5458 146.15 44.5062 146.134C44.4666 146.118 44.4242 146.109 44.3813 146.109H36.5493C36.5065 146.109 36.464 146.118 36.4244 146.134C36.3849 146.15 36.3489 146.174 36.3186 146.205C36.2883 146.235 36.2642 146.271 36.2478 146.31C36.2314 146.35 36.223 146.392 36.223 146.435V148.08H31.328V146.435C31.328 146.392 31.3196 146.35 31.3032 146.31C31.2868 146.271 31.2627 146.235 31.2324 146.205C31.2021 146.174 31.1661 146.15 31.1266 146.134C31.087 146.118 31.0445 146.109 31.0017 146.109H23.1697C23.1268 146.109 23.0844 146.118 23.0448 146.134C23.0052 146.15 22.9692 146.174 22.9389 146.205C22.9086 146.235 22.8846 146.271 22.8682 146.31C22.8518 146.35 22.8433 146.392 22.8433 146.435V148.08H7.832C5.75483 148.08 3.76273 148.904 2.29394 150.372C0.825158 151.839 1.97893e-06 153.83 0 155.905V159.444C5.93678e-06 161.52 0.825164 163.51 2.29395 164.978C3.76273 166.445 5.75483 167.27 7.832 167.27H268.246C270.323 167.27 272.315 166.445 273.784 164.978C275.253 163.51 276.078 161.52 276.078 159.444V155.905C276.078 153.83 275.253 151.839 273.784 150.372C272.315 148.904 270.323 148.08 268.246 148.08Z" fill="#9C8E5E"/>
<path d="M60.8759 132.166C55.2681 132.166 49.7861 130.505 45.1233 127.392C40.4605 124.279 36.8263 119.854 34.6803 114.677C32.5343 109.5 31.9728 103.804 33.0668 98.3079C34.1608 92.8122 36.8613 87.7641 40.8267 83.8019C44.792 79.8397 49.8442 77.1414 55.3444 76.0482C60.8445 74.9551 66.5455 75.5161 71.7265 77.6604C76.9075 79.8048 81.3358 83.436 84.4514 88.0951C87.567 92.7541 89.2299 98.2317 89.2299 103.835C89.2214 111.346 86.2314 118.548 80.9158 123.859C75.6003 129.17 68.3933 132.158 60.8759 132.166ZM60.8759 76.2494C55.4156 76.2494 50.078 77.8673 45.5379 80.8984C40.9978 83.9296 37.4592 88.2379 35.3697 93.2785C33.2801 98.3191 32.7334 103.866 33.7986 109.217C34.8639 114.568 37.4933 119.483 41.3543 123.341C45.2153 127.199 50.1345 129.826 55.4899 130.891C60.8453 131.955 66.3963 131.409 71.441 129.321C76.4857 127.233 80.7974 123.697 83.831 119.161C86.8646 114.624 88.4837 109.291 88.4837 103.835C88.4755 96.5214 85.5641 89.5097 80.3885 84.3382C75.2128 79.1667 68.1954 76.2577 60.8759 76.2494Z" fill="#3F3D56"/>
<path d="M313.823 12.1314H218.688V12.877H313.823V12.1314Z" fill="#3F3D56"/>
<path d="M425 208.959H151.534V209.704H425V208.959Z" fill="#3F3D56"/>
<path d="M167.017 243.254H71.8818V244H167.017V243.254Z" fill="#3F3D56"/>
<path d="M186.166 205.028H175.72V215.466H186.166V205.028Z" fill="#E6535E"/>
<path d="M192.508 209.502H179.824V196.827H192.508V209.502ZM180.375 208.951H191.957V197.378H180.375V208.951Z" fill="#3F3D56"/>
<path d="M307.416 8.20114H296.97V18.639H307.416V8.20114Z" fill="#E6535E"/>
<path d="M313.759 12.6745H301.074V0H313.759V12.6745ZM301.626 12.1234H313.207V0.551066H301.626V12.1234Z" fill="#3F3D56"/>
<path d="M412.624 205.028H402.178V215.466H412.624V205.028Z" fill="#E6535E"/>
<path d="M418.967 209.502H406.282V196.827H418.967V209.502ZM406.834 208.951H418.415V197.378H406.834V208.951Z" fill="#3F3D56"/>
<path d="M394.408 86.4692H393.52V62.1783C393.52 60.332 393.156 58.5039 392.449 56.7982C391.742 55.0925 390.706 53.5426 389.399 52.2371C388.093 50.9316 386.541 49.8961 384.834 49.1895C383.127 48.483 381.298 48.1194 379.45 48.1194H327.945C326.097 48.1194 324.268 48.483 322.561 49.1895C320.854 49.8961 319.303 50.9316 317.996 52.2371C316.69 53.5426 315.653 55.0925 314.946 56.7982C314.239 58.5039 313.875 60.332 313.875 62.1783V195.44C313.875 197.286 314.239 199.114 314.946 200.82C315.653 202.526 316.69 204.076 317.996 205.381C319.303 206.687 320.854 207.722 322.561 208.429C324.268 209.135 326.097 209.499 327.945 209.499H379.45C381.298 209.499 383.127 209.135 384.834 208.429C386.541 207.722 388.093 206.686 389.399 205.381C390.706 204.076 391.742 202.526 392.449 200.82C393.156 199.114 393.52 197.286 393.52 195.44V103.76H394.408V86.4692Z" fill="#9C8E5E"/>
<path d="M390.524 63.0046V196.072C390.524 198.856 389.418 201.527 387.448 203.497C385.477 205.466 382.805 206.572 380.018 206.573H328.265C325.478 206.572 322.805 205.466 320.835 203.497C318.865 201.527 317.758 198.856 317.759 196.072V63.0046C317.759 60.2206 318.866 57.5507 320.836 55.5821C322.806 53.6135 325.478 52.5074 328.265 52.5071H334.544C334.235 53.2645 334.117 54.0861 334.2 54.8997C334.284 55.7133 334.567 56.4938 335.023 57.1726C335.48 57.8513 336.097 58.4074 336.819 58.7919C337.542 59.1764 338.348 59.3775 339.166 59.3775H368.673C369.491 59.3775 370.297 59.1764 371.02 58.7919C371.742 58.4074 372.359 57.8513 372.816 57.1726C373.272 56.4938 373.555 55.7133 373.638 54.8997C373.722 54.0861 373.604 53.2645 373.295 52.5071H380.018C382.804 52.5074 385.476 53.6135 387.447 55.5821C389.417 57.5507 390.524 60.2206 390.524 63.0046Z" fill="#F3B114"/>
<path d="M361.85 140.246H346.433V144.811H361.85V140.246Z" fill="#3F3D56"/>
<path d="M380.488 104.704H327.794V106.661H380.488V104.704Z" fill="#3F3D56"/>
<path d="M380.488 110.9H327.794V112.856H380.488V110.9Z" fill="#3F3D56"/>
<path d="M380.488 117.095H327.794V119.051H380.488V117.095Z" fill="#3F3D56"/>
<path d="M380.488 123.29H327.794V125.247H380.488V123.29Z" fill="#3F3D56"/>
<path d="M380.488 129.486H327.794V131.442H380.488V129.486Z" fill="#3F3D56"/>
<path d="M355.982 78.723H346.845V87.853H355.982V78.723Z" fill="#F2F2F2"/>
<path d="M350.343 81.0061V92.0926H361.438V81.0061H350.343ZM360.957 91.6117H350.824V81.487H360.957V91.6117Z" fill="#3F3D56"/>
<path opacity="0.1" d="M390.524 181.861V196.072C390.524 198.856 389.418 201.527 387.448 203.496C385.477 205.466 382.805 206.572 380.018 206.573H328.265C325.478 206.572 322.805 205.466 320.835 203.496C318.865 201.527 317.758 198.856 317.759 196.072V124.42L361.36 158.839L362.107 159.428L370.217 165.828L370.975 166.428L390.524 181.861Z" fill="black"/>
<path d="M349.664 202.261C358.703 202.261 366.031 194.939 366.031 185.907C366.031 176.876 358.703 169.554 349.664 169.554C340.626 169.554 333.298 176.876 333.298 185.907C333.298 194.939 340.626 202.261 349.664 202.261Z" fill="#FBECDB"/>
<path d="M119.449 244C113.029 244 106.754 242.098 101.416 238.534C96.0788 234.971 91.9186 229.905 89.4619 223.979C87.0053 218.053 86.3625 211.532 87.6149 205.241C88.8673 198.95 91.9586 193.171 96.4979 188.636C101.037 184.1 106.821 181.011 113.117 179.76C119.413 178.508 125.939 179.151 131.87 181.605C137.801 184.06 142.87 188.217 146.437 193.55C150.003 198.884 151.907 205.154 151.907 211.568C151.897 220.167 148.474 228.41 142.389 234.49C136.305 240.57 128.054 243.99 119.449 244ZM119.449 179.882C113.177 179.882 107.046 181.74 101.831 185.222C96.616 188.704 92.5515 193.653 90.1513 199.442C87.7511 205.232 87.1231 211.603 88.3467 217.75C89.5703 223.896 92.5906 229.542 97.0255 233.974C101.46 238.405 107.111 241.423 113.262 242.646C119.414 243.868 125.79 243.241 131.585 240.843C137.379 238.444 142.332 234.383 145.816 229.172C149.301 223.961 151.161 217.835 151.161 211.568C151.151 203.167 147.807 195.113 141.862 189.173C135.917 183.233 127.857 179.892 119.449 179.882Z" fill="#3F3D56"/>
<path d="M354.489 198.521C350.43 198.521 346.463 197.318 343.089 195.066C339.714 192.813 337.084 189.611 335.531 185.864C333.978 182.118 333.572 177.995 334.364 174.018C335.155 170.041 337.11 166.388 339.979 163.52C342.849 160.653 346.505 158.7 350.485 157.909C354.466 157.118 358.592 157.524 362.341 159.076C366.09 160.628 369.295 163.256 371.55 166.627C373.804 169.999 375.008 173.963 375.008 178.018C375.002 183.454 372.838 188.665 368.991 192.509C365.144 196.353 359.929 198.515 354.489 198.521ZM354.489 158.261C350.578 158.261 346.755 159.42 343.503 161.591C340.251 163.761 337.717 166.847 336.221 170.457C334.724 174.067 334.332 178.04 335.095 181.873C335.858 185.705 337.741 189.226 340.507 191.989C343.272 194.752 346.795 196.633 350.631 197.396C354.467 198.158 358.442 197.767 362.055 196.271C365.668 194.776 368.757 192.244 370.929 188.995C373.102 185.746 374.262 181.926 374.262 178.018C374.256 172.78 372.171 167.758 368.464 164.054C364.757 160.35 359.731 158.267 354.489 158.261Z" fill="#3F3D56"/>
</g>
<defs>
<clipPath id="clip0">
<rect width="425" height="244" fill="white"/>
</clipPath>
</defs>
</svg>
