<svg width="66" height="30" viewBox="0 0 66 30" fill="none" xmlns="http://www.w3.org/2000/svg">
<path d="M45.2514 20.7976L44.2015 19.7513L45.2514 20.7976ZM65.293 1.97595C65.2992 1.14547 64.6344 0.482994 63.8082 0.496274L50.3439 0.712674C49.5177 0.725953 48.8428 1.40996 48.8366 2.24044C48.8304 3.07092 49.4952 3.7334 50.3214 3.72012L62.2897 3.52776L62.1997 15.5575C62.1935 16.388 62.8582 17.0505 63.6845 17.0372C64.5107 17.0239 65.1855 16.3399 65.1917 15.5095L65.293 1.97595ZM12.8503 21.3486L13.9546 20.3082L13.9546 20.3082L12.8503 21.3486ZM30.4684 27.2422L30.6854 28.7247L30.4684 27.2422ZM34.1468 26.6133L33.9297 25.1308L34.1468 26.6133ZM46.3013 21.8439L64.8468 3.04629L62.747 0.953706L44.2015 19.7513L46.3013 21.8439ZM0.784861 10.5961L11.746 22.389L13.9546 20.3082L2.99346 8.51522L0.784861 10.5961ZM30.6854 28.7247L34.3638 28.0957L33.9297 25.1308L30.2513 25.7598L30.6854 28.7247ZM11.746 22.389C16.5478 27.5552 23.6434 29.9288 30.6854 28.7247L30.2513 25.7598C24.1919 26.7959 18.0864 24.7535 13.9546 20.3082L11.746 22.389ZM44.2015 19.7513C41.4077 22.5831 37.8098 24.4673 33.9297 25.1308L34.3638 28.0957C38.8731 27.3247 43.0545 25.1349 46.3013 21.8439L44.2015 19.7513Z" fill="white"/>
</svg>
